<?xml version="1.0" encoding="UTF-8" standalone="no"?>
<!DOCTYPE svg PUBLIC "-//W3C//DTD SVG 1.1//EN" "http://www.w3.org/Graphics/SVG/1.1/DTD/svg11.dtd">
<svg width="100%" height="100%" viewBox="0 0 1721 1153" version="1.1" xmlns="http://www.w3.org/2000/svg" xmlns:xlink="http://www.w3.org/1999/xlink" xml:space="preserve" xmlns:serif="http://www.serif.com/" style="fill-rule:evenodd;clip-rule:evenodd;stroke-linejoin:round;stroke-miterlimit:2;">
    <g transform="matrix(1,0,0,1,15.5798,6.24095)">
        <path d="M30,1004C30,1004 157.7,991.4 196,981C291.9,955.1 361,968 361,968C361,968 493,988 507,984C564.6,967.4 605.5,985.6 646,981C662.4,979.1 682.6,979.2 688,958C693.4,936.8 706.9,965.4 713,978C719.1,990.6 759,981 759,981C759,981 801.1,958.2 858,969C868,970.9 889.3,977 909,980.5L952.8,979.4C970.9,974.7 993.8,969.8 1019.1,966C1049.2,961.5 1060,952.7 1071.1,943C1082.2,933.3 1105.1,961 1105.1,961C1105.1,961 1133.9,965.4 1153.1,963C1172.3,960.6 1249.4,955 1276.1,958C1302.8,961 1305.7,947.8 1388.1,928C1398.9,925.4 1461.2,930.9 1468.8,930.4C1465.2,929.3 1464.2,928.9 1467.5,929.6C1469.8,930.1 1470.1,930.3 1468.8,930.4C1481.7,934.3 1528.9,946.6 1545.7,948.7C1552.8,948.7 1555.4,948.8 1550,949C1549,949 1547.5,948.9 1545.7,948.7C1525.8,948.7 1470.9,948.7 1459,945C1442.8,939.9 1371,956 1371,956L1373,957C1373,957 1470.1,957.4 1499,957C1527.9,956.6 1571.3,961.2 1604,938C1614.3,930.7 1638.1,933.5 1662,943C1674.4,947.9 1686.4,952.1 1696.2,957.2L1647,921C1647,921 1588.6,891.3 1556,865C1523.4,838.7 1396.3,803.7 1359,795C1321.7,786.3 1220.5,756.2 1202,756C1183.5,755.8 1117.7,751.2 1093,751C1068.3,750.8 991.6,734.5 975,735C958.4,735.5 894.6,745 861,745C827.4,745 762.7,745 745,742C727.3,739 648.5,760.4 613,769C577.5,777.6 333.5,820.8 314,826C294.5,831.2 235.7,836.2 213,838C190.3,839.8 119,870 119,870C119,870 77.6,891.3 57,903C36.4,914.7 2,1005 2,1005L30,1004Z" style="fill:rgb(241,241,241);"/>
    </g>
    <g transform="matrix(1,0,0,1,15.5798,6.24095)">
        <path d="M742,779C738.7,777.5 735.889,775.112 728.889,774.112C721.889,773.112 711.738,778.27 711.738,778.27C715.638,783.47 716.055,792.009 716.055,792.009C716.055,792.009 726.6,789.4 730,789C733.4,788.6 737.4,787.1 742,787C746.6,786.9 745.3,780.5 742,779Z" style="fill:rgb(247,247,247);stroke:black;stroke-width:0.15px;"/>
    </g>
    <g transform="matrix(1,0,0,1,15.5798,6.24095)">
        <path d="M615,769C611,768.9 605.378,766.073 601.078,764.873C596.778,763.673 587.383,781.265 587.383,781.265L595,781C595,781 610.8,778.6 616,777C621.2,775.4 619,769.1 615,769Z" style="fill:rgb(247,247,247);stroke:black;stroke-width:0.15px;"/>
    </g>
    <g transform="matrix(1,0,0,1,15.5798,6.24095)">
        <path d="M345.6,789.4C345.1,789.4 344.6,789.2 344.1,788.7C342.6,787.2 340.8,782.3 341,768C341.1,767.6 352.2,727.4 356,718C359.8,708.7 366.022,686.233 366.122,686.033L366.689,684.999C366.789,684.999 371.8,683.8 378.9,682.1C381,681.6 382.8,681.3 384.2,681.3C386.4,681.3 388.991,680.376 388.991,680.376C388.891,680.776 381.6,729.5 379.8,746.9C378,764.3 358,787.6 357.8,787.8L346.9,788.8C346.9,788.9 346.4,789.4 345.6,789.4Z" style="fill:rgb(240,240,240);stroke:black;stroke-width:0.15px;"/>
    </g>
    <g transform="matrix(1,0,0,1,15.5798,6.24095)">
        <path d="M353.1,782C353.1,781.9 350.3,774 349.1,768C347.9,762.1 337.276,711.676 336.876,709.476C343.776,705.576 352.567,698.954 352.667,698.854C352.667,698.854 354.301,701.055 356.601,706.655C359.501,713.955 385.6,758.7 385.9,759.1C388.526,761.014 388.732,786.092 378.9,790C373.8,796.5 359.36,799.821 358.06,799.921L353.1,782Z" style="fill:rgb(248,248,248);stroke:black;stroke-width:0.15px;"/>
    </g>
    <g transform="matrix(1,0,0,1,15.5798,6.24095)">
        <path d="M712,778C712,778 705.2,772.8 698,771C690.8,769.2 685,770 685,770L677,764L672,755C672,755 665.2,735.2 666,719C666.8,702.8 666,679 666,679C666,679 657.9,661.6 655,656C652.1,650.4 641.5,645.9 639,649C636.5,652.1 631.1,657.3 624,665C616.9,672.7 621.8,678.2 622,692C622.2,705.8 622.3,731.9 623,738C623.7,744.1 624.1,754.8 625,768C625.9,781.2 625,797 625,797C625,797 632.2,808.3 637,810C641.8,811.7 658.2,813.4 667,811C675.8,808.6 696.9,802.4 702,800C707.1,797.6 716.9,797.7 718,794C719.1,790.3 712,778 712,778Z" style="fill:rgb(212,212,212);stroke:black;stroke-width:0.15px;"/>
    </g>
    <g transform="matrix(1,0,0,1,15.5798,6.24095)">
        <path d="M372.3,871.9C362,871.9 346.2,867.4 341,863.9C335.5,860.2 328.6,838.8 329,827C329.3,818 330.5,795.6 334,782C336.8,771 340.9,764.6 341.8,763.3C339.571,783.448 354.245,784.404 354.305,785.421C355.196,800.707 398.479,868.163 402.8,868.9C400.8,869.2 383.6,871.4 374,871.9L372.3,871.9Z" style="fill:rgb(206,206,206);stroke:black;stroke-width:0.15px;"/>
    </g>
    <g transform="matrix(1,0,0,1,15.5798,6.24095)">
        <path d="M413.45,760.747C414.993,759.342 416.508,758.011 417.766,756.994C422.466,753.194 437.066,746.894 444.766,742.994C452.466,739.094 478,733 478,733L478,728C478,728 477.2,726.7 477,723C476.8,719.3 487.1,705.4 490,699C492.9,692.6 498.1,681.6 498,676C497.9,670.4 502.9,666.3 508,660C513.1,653.7 543,628 543,628L560,620C560,620 614.6,630.7 626,637C637.4,643.3 649.105,652.927 649.105,652.927C649.105,652.927 629.865,655.628 625,672C622.202,681.417 623.1,698.1 622,714C620.9,729.9 622.227,738.238 622.227,738.238L620,739C620,739 610.6,746.9 604,756C597.4,765.1 589.9,782.3 585,784C580.1,785.7 568,791 568,791C568,791 562.6,796.8 557,806C554.245,810.526 550.812,817.377 548.035,823.169L548.33,823.322L543,834C543,834 533.187,853.826 521.748,858.967C510.308,864.108 468.254,870.904 443.33,871.844C418.406,872.783 384.586,870.406 384.586,870.406C384.586,870.406 376.461,868.859 370.935,860.846C365.41,852.832 365.908,845.813 358.502,840.84C351.095,835.867 352.699,825.588 350.047,813.375C347.394,801.162 354.025,784.859 354.025,784.859L358.26,793.106C358.26,793.106 369.1,798.407 377.457,790.828C384.751,784.213 385.717,779.683 386.96,772.437C388.199,765.216 386.497,759.478 386.497,759.478C386.497,759.478 396.923,765.352 402.145,768.045C403.557,768.774 409.322,763.352 413.45,760.747Z" style="fill:rgb(212,212,212);stroke:black;stroke-width:0.15px;"/>
    </g>
    <g transform="matrix(1,0,0,1,15.5798,6.24095)">
        <path d="M623.057,727.45C622.357,717.05 624,679 624,679C624,679 621.7,692 620,712C618.2,732.6 613,730.8 606,740C599,749.2 586.856,783.771 590.538,778.238C596.196,769.735 598.135,770.067 605.72,755.803C611.099,745.69 612.32,748.127 616.72,743.327C621.12,738.527 623.135,739.213 623.135,739.213C623.135,739.213 623.757,737.85 623.057,727.45Z" style="fill:rgb(206,206,206);stroke:black;stroke-width:0.15px;"/>
    </g>
    <g transform="matrix(1,0,0,1,15.5798,6.24095)">
        <path d="M577,767C574.1,752.4 565.3,744.8 559,738C552.7,731.2 532.5,721.1 523,721C513.5,720.9 484.049,721.938 478.122,727.613C477.618,728.094 477.901,733.179 477.901,733.179C477.901,733.179 506.3,731.9 522,740C537.7,748.1 548.9,759.3 554,766C559.1,772.7 560.6,779.7 566,785C571.4,790.3 569,796 569,796L574,794L581,785C581,785 579.9,781.6 577,767Z" style="fill:rgb(241,241,241);stroke:black;stroke-width:0.15px;"/>
    </g>
    <g transform="matrix(1,0,0,1,15.5798,6.24095)">
        <path d="M450.582,792.801C449.231,792.001 447.951,791.063 447,790C443.6,786.2 429.5,777.9 425,775C420.5,772.1 403.003,768.271 403.003,768.271C403.003,768.271 406.921,764.753 413.393,759.332C418.608,754.965 440.925,744.7 440.925,744.7C440.925,744.7 426.425,752.2 418.925,757.7C411.425,763.2 409.606,765.475 413.134,767.329C417.737,769.747 421.505,770.952 425,773C428.579,775.097 440.8,782.2 448,788C450.925,790.356 453.123,792.118 454.704,793.38C462.235,797.585 471.996,802.749 477,804C486.6,806.4 495.9,800.6 499,793C502.1,785.4 507.4,788.5 507,783C506.6,777.5 512.1,816.2 506,825C506,825 492.2,816.9 486,816C479.8,815.1 473,808.1 467,806C462.771,804.52 455.91,797.774 450.582,792.801Z" style="fill:rgb(206,206,206);stroke:black;stroke-width:0.15px;"/>
    </g>
    <g transform="matrix(1,0,0,1,15.5798,6.24095)">
        <path d="M700.19,771.511C695.985,770.672 694.577,769.449 687.844,769.585C685.049,769.642 683.68,769.378 681.974,767.508C680.51,765.903 678.721,765.04 677.096,764.054C677.096,764.054 675.973,767.813 676.023,772.673C676.056,775.895 676.486,778.33 676.048,781.719C674.948,790.219 672.694,794.911 672.694,794.911C672.694,794.911 675.416,790.71 677.821,786.981C679.573,784.266 680.61,783.176 680.315,779.552C679.615,770.952 683.7,772.8 688,777C692.3,781.2 701.89,772.611 700.19,771.511Z" style="fill:rgb(211,211,211);stroke:black;stroke-width:0.15px;"/>
    </g>
    <g transform="matrix(1,0,0,1,15.5798,6.24095)">
        <path d="M653.1,640.9C650.1,625.8 610.1,612.9 607.2,612L663.1,547.1C663.2,546.7 668.6,511.1 677.7,511.1L678,511.1C687,512 696.1,518.5 696.9,519C696.8,520 695.7,531.4 694.9,537.9C694.4,541.9 692.9,547.2 691.4,552.3C690.4,555.9 689.4,559.3 688.9,561.8C688.4,564.5 688.5,568.8 688.6,573.8C688.7,579.7 688.8,586.4 687.9,591.8C686.3,601.7 676.4,622.1 669.9,630.8C663.9,639 654.2,640.7 653.1,640.9Z" style="fill:rgb(248,248,248);stroke:black;stroke-width:0.15px;"/>
    </g>
    <g transform="matrix(1,0,0,1,15.5798,6.24095)">
        <path d="M642,606.4C646.3,601.3 649.4,588.1 652.7,574.3C655.7,561.5 658.9,548.3 663.1,541C670.2,528.8 688.2,519.8 692.1,519.8C692.4,519.8 692.6,519.9 692.6,520C692.6,520.1 692.6,520.6 690.9,521.9C682.8,528.1 679.4,539.4 673.1,559.8C672.4,562.1 671.7,564.4 670.9,566.9C664.4,587.7 647.6,602.1 642,606.4Z" style="fill:rgb(242,242,242);stroke:black;stroke-width:0.15px;"/>
    </g>
    <g transform="matrix(1,0,0,1,15.5798,6.24095)">
        <path d="M645.2,654.7C644.2,654.7 643.7,654.3 642.9,653.6C641.5,652.4 639.5,650.5 633,649C628,647.8 622.4,645.7 616.4,643.5C611,641.5 605.4,639.5 600,638C589.3,635 586.2,635 580.1,635L579,635C571.7,635 556.8,633.1 549,630C546.6,629 544.6,628.6 543,628.6C541.8,628.6 541.1,628.9 540.6,629.2C541.7,627.4 544.3,623.6 548,621.2C550.7,619.5 551.1,618.7 551.5,617.9C551.8,617.2 552.2,616.5 554,615.2C557.8,612.4 561.9,611.2 562,611.2C562.3,611.2 597.9,612.1 610,613.2C622.3,614.3 641.8,625.6 647.9,631.2C654.4,637.1 655.5,638.2 653.9,641.1C653.3,642.2 653.5,643.8 653.8,645.5C654.3,648.5 654.8,651.5 650.9,653.1C647.8,654.2 646.2,654.7 645.2,654.7Z" style="fill:rgb(233,233,233);stroke:black;stroke-width:0.15px;"/>
    </g>
    <g transform="matrix(1,0,0,1,15.5798,6.24095)">
        <path d="M541,629.8C540.6,629 538.5,625.4 531,621.9C529.3,621.1 526.7,620 523.3,618.6C510.2,613.1 488.5,604 480.4,596.3C485.1,598.4 516.7,612.7 526.8,616C536.9,619.3 547.9,619.9 549.6,620L541,629.8Z" style="fill:rgb(226,226,226);stroke:black;stroke-width:0.15px;"/>
    </g>
    <g transform="matrix(1,0,0,1,15.5798,6.24095)">
        <path d="M631,917C631,917 611.3,911.1 601,908C495.8,876.4 503.9,884.2 505,884C492.1,886 389.9,911.8 403.7,910.8C410,910.4 409,910.8 406,911.4L506,895C506,895 560.5,903.1 586,913C611.5,922.9 657,944 657,944L631,917ZM406,911.4L396,913C396,913 402.4,912.1 406,911.4Z" style="fill:rgb(233,233,234);stroke:black;stroke-width:0.15px;"/>
    </g>
    <g transform="matrix(1,0,0,1,15.5798,6.24095)">
        <path d="M870,854C848.4,850.5 809,843.4 799,837C789,830.6 771,838.3 752,834C733,829.7 713.1,818.7 702,820C690.9,821.3 625,832 625,832C643.5,832 701.2,825.1 713,830C724.8,834.9 755,849 755,849C755,849 786.2,841.2 793,843C799.8,844.8 854,861 854,861L919,863C919,863 891.6,857.5 870,854Z" style="fill:rgb(233,233,234);stroke:black;stroke-width:0.15px;"/>
    </g>
    <g transform="matrix(1,0,0,1,15.5798,6.24095)">
        <path d="M1225,808C1225,808 1244.1,831 1252.3,834.5C1255,834.8 1256,835.1 1254,835C1253.5,835 1252.9,834.8 1252.3,834.5C1245.6,833.7 1227.7,832.3 1214,834C1194.7,836.3 1154.9,834 1146,831C1137.1,828 1118.1,825.3 1100,822C1081.9,818.7 1105.7,827.6 1118,835C1130.3,842.4 1110.3,849.6 1099,851C1087.7,852.4 1073,863 1073,863L1059,883C1059,883 1068.7,879.4 1089,867C1109.3,854.6 1143,840 1143,840C1143,840 1205.5,844.5 1225,846C1244.5,847.5 1273,843 1273,843C1273,843 1239.4,818.6 1225,808Z" style="fill:rgb(233,233,234);stroke:black;stroke-width:0.15px;"/>
    </g>
    <g transform="matrix(1,0,0,1,15.5798,6.24095)">
        <path d="M946,964C940.1,964 914.1,949.3 905,944C895.9,938.7 866,924 855,923C844,922 832.3,929.5 807,924C781.7,918.5 836.7,937.4 852,935C867.3,932.6 923.9,965.6 938,978C952.1,990.4 965.6,970.9 975,967C982.1,964 998.6,955.9 1011.7,952.1C999.7,953.5 984,955 984,955C984,955 951.9,964 946,964ZM1023,950C1019.9,950 1016,950.8 1011.7,952.1C1021.4,951 1028.6,950 1023,950Z" style="fill:rgb(233,233,234);stroke:black;stroke-width:0.15px;"/>
    </g>
    <g transform="matrix(1,0,0,1,15.5798,6.24095)">
        <path d="M233,895C226.4,905.8 138,941 138,941L236,904C236,904 267.2,891.9 283,888C293.7,885.4 316.3,886.2 327.5,887C317.9,884.2 302,876.5 291,877C277.5,877.6 239.6,884.2 233,895ZM327.5,887C329.7,887.6 331.6,888 333,888C335.4,887.9 332.7,887.5 327.5,887Z" style="fill:rgb(233,233,234);stroke:black;stroke-width:0.15px;"/>
    </g>
    <g transform="matrix(1,0,0,1,15.5798,6.24095)">
        <path d="M298.8,731.3C297.6,731.3 296.3,731.2 295,730.9C291.7,730.3 289.8,729.3 288.9,727.7C287.8,725.8 288.2,722.9 290.1,718.1C293.3,710 342.4,664.1 343.5,663.1L343.7,663.1C344.3,663.1 346.6,663.5 349.3,669.2C352.3,675.5 352.7,678.1 353.7,685L354,686.8C354.8,691.6 354.9,697.9 354.9,698C354.8,698 348,704.5 344.9,706.9C342,709.1 335.7,712.5 335,712.9C334.6,712.6 331.7,710.7 328.9,710.7C327.8,710.7 326.9,711 326.1,711.6C321.6,715.1 317.3,719.1 313.9,723C308.7,728.8 304.2,731.3 298.8,731.3Z" style="fill:rgb(207,207,207);stroke:black;stroke-width:0.15px;"/>
    </g>
    <g transform="matrix(1,0,0,1,15.5798,6.24095)">
        <path d="M293.4,729.5C292.7,729.5 291.9,729.3 291.1,728.9C288.9,727.8 287.7,726.5 287.3,724.9C286.5,721.7 289,717.4 294.1,710.1C300.4,701.1 310.4,687.7 318.1,679.1C325.4,670.9 333.1,663.4 339.5,663.4L339.8,663.4C346.3,663.7 347.6,664.8 347.7,664.8C350.8,669.8 344.5,677 335.8,686.9L334.9,687.9C333.6,689.4 332.2,691 330.8,692.7C323.9,700.7 316.1,709.7 307.9,717.9L306.9,718.9C299.7,726.2 296.4,729.5 293.4,729.5Z" style="fill:rgb(197,197,197);stroke:black;stroke-width:0.15px;"/>
    </g>
    <g transform="matrix(1,0,0,1,15.5798,6.24095)">
        <path d="M326.5,691.2C323.2,691.2 320.7,690.6 319.1,689.3C315.6,686.6 314,684.2 313.9,681.7C313.8,679.3 315.2,676.9 318.2,674.3C324.8,668.5 395.8,645.2 396.5,645C396.6,645 396.8,644.6 397.1,644.6C397.2,644.6 397.3,644.6 397.4,644.7C397.8,645.1 398.2,646.8 397.9,651.9C397.8,653.1 397.8,654.1 397.7,655.1C397.4,660.7 397.2,664 394.9,670.8L390.9,682.7C390,682.8 381.2,683.7 377.5,684.3C373.9,684.9 366.1,687.3 365,687.6C364.7,686.6 362.9,679.8 359.3,679.8L358.8,679.8C353.7,680.7 350.4,682.5 345.9,685.6C342.7,688.1 333.8,691.2 326.5,691.2Z" style="fill:rgb(207,207,207);stroke:black;stroke-width:0.15px;"/>
    </g>
    <g transform="matrix(1,0,0,1,15.5798,6.24095)">
        <path d="M321.1,686.2C318.4,686.2 316.4,685.2 314.6,682.9C313.3,681.3 312.8,679.5 313.1,677.6C314.2,671.4 323.3,665 333,659.1C340.3,654.6 347.3,651.7 354,649C357.1,647.7 360,646.5 363,645.1C370.3,641.8 381.3,638.2 388.2,638.2C389.7,638.2 390.9,638.4 391.9,638.7C394.1,639.4 395.201,640.646 396,641.9C397.103,643.63 397.456,644.724 397.356,644.724C398.256,650.624 392.8,653.8 379.8,660C375.9,661.9 370.9,664.5 365.6,667.3C356.4,672.2 346,677.7 337.8,681L336,681.7C329.5,684.3 324.7,686.2 321.1,686.2Z" style="fill:rgb(197,197,197);stroke:black;stroke-width:0.15px;"/>
    </g>
    <g id="Shape_16_1_">
        <g id="Shape_16" transform="matrix(1,0,0,1,15.5798,6.24095)">
            <g>
                <path d="M927,615C902.5,593.4 882.2,629.9 886,625C889.8,620.1 902.5,614 910,625C917.5,636 934,638 934,638C934,638 943.5,629.6 927,615Z" style="fill:rgb(218,218,218);stroke:black;stroke-width:0.15px;"/>
            </g>
        </g>
        <g transform="matrix(1,0,0,1,15.5798,6.24095)">
            <circle cx="949.5" cy="478.5" r="86.5" style="fill:rgb(232,232,232);stroke:black;stroke-width:0.15px;"/>
        </g>
        <g transform="matrix(1,0,0,1,15.5798,6.24095)">
            <circle cx="950.5" cy="479.5" r="66.2" style="fill:rgb(247,247,247);stroke:black;stroke-width:0.15px;"/>
        </g>
        <g transform="matrix(1,0,0,1,15.5798,6.24095)">
            <rect x="912.3" y="490.8" width="9.7" height="23.4" style="fill:white;stroke:black;stroke-width:0.15px;"/>
        </g>
        <g transform="matrix(1,0,0,1,15.5798,6.24095)">
            <rect x="971.6" y="475.5" width="9.7" height="23.4" style="fill:white;stroke:black;stroke-width:0.15px;"/>
        </g>
        <g transform="matrix(1,0,0,1,15.5798,6.24095)">
            <rect x="927" y="467.8" width="9.7" height="53.9" style="fill:white;stroke:black;stroke-width:0.15px;"/>
        </g>
        <g transform="matrix(1,0,0,1,15.5798,6.24095)">
            <rect x="942" y="470.1" width="9.7" height="41.4" style="fill:white;stroke:black;stroke-width:0.15px;"/>
        </g>
        <g transform="matrix(1,0,0,1,15.5798,6.24095)">
            <rect x="956.7" y="431.1" width="9.7" height="67.8" style="fill:white;stroke:black;stroke-width:0.15px;"/>
        </g>
    </g>
    <g transform="matrix(1,0,0,1,15.5798,6.24095)">
        <path d="M932.8,564.7C926.871,558.851 924.174,560.25 915.621,555.579C902.133,548.213 897,538 897,538C897,538 897.616,539.989 904,549C909.507,556.774 932.189,572.973 932.189,572.973C932.189,572.973 936.354,568.207 932.8,564.7Z" style="fill:rgb(218,218,218);stroke:black;stroke-width:0.15px;"/>
    </g>
    <g transform="matrix(1,0,0,1,15.5798,6.24095)">
        <path d="M957,571C963.546,567.458 987.607,546.565 984.019,549.591C962.23,567.967 949.2,564.7 951,564C958.6,561.4 961.4,543.3 960,549C958.7,554.2 953.2,560.6 947.8,561.9C942.8,563.2 940.302,561.498 937,557C932.944,551.475 917.44,539.057 922,543C938.349,557.135 932.815,568.869 929,560C926.447,554.066 913.595,548.177 913.595,548.177C918.167,551.815 921.782,553.6 925,562C927.102,567.487 929.474,569.496 931,572C931,572 936.4,613.3 936,646C935.6,680.7 926.3,699 917,717C907.7,735 903.1,750.6 909,767C915.3,784.4 915,792 915,792L958,792C958,792 959,786.6 942,786C935.7,785.8 929.8,783.8 924,767C917.9,749.6 921,741.1 928,719C933.9,700.3 938.3,702.8 944,674C947.5,656.3 946.6,651.7 945,616C944,593 944.5,597.9 945,584C945.3,575 948.622,575.533 957,571Z" style="fill:rgb(218,218,218);stroke:black;stroke-width:0.15px;"/>
    </g>
    <g transform="matrix(1,0,0,1,15.5798,6.24095)">
        <path d="M979.9,719.9C975,719.9 958.5,719.5 951.1,713.9C948.9,712.3 947.2,710.7 945.6,709.3C942.7,706.6 940.5,704.7 938,704.7C937,704.7 936.1,705 935,705.6C939,702.5 949,695.5 958.4,695.5C960,695.5 961.6,695.7 963,696.1C975.5,699.7 980.5,718.1 980.9,719.9L979.9,719.9Z" style="fill:rgb(218,218,218);stroke:black;stroke-width:0.15px;"/>
    </g>
    <g transform="matrix(1,0,0,1,15.5798,6.24095)">
        <path d="M939.7,744C938.4,744 934.6,738.9 932.1,727C930.2,718.1 931.6,710.5 934.1,707.5C934.8,706.6 935.7,706.1 936.5,706.1C936.7,706.1 936.9,706.1 937,706.2C937.1,706.2 945.3,711.6 943.9,724.1C942.3,738.3 941.5,743.2 940,744C939.9,743.9 939.8,744 939.7,744Z" style="fill:rgb(218,218,218);stroke:black;stroke-width:0.15px;"/>
    </g>
    <g transform="matrix(1,0,0,1,15.5798,6.24095)">
        <path d="M551.6,606.1C534.5,606.1 515.8,602.8 500.8,600.2C490.4,598.4 481.5,596.8 475.9,596.8C475.2,596.8 474.6,596.8 474,596.9C472.5,597 471.2,597.1 470.3,597.1C468.5,597.1 467.6,596.9 467.4,596.5C467.2,595.9 468.4,594.7 470,593.2C472.8,590.6 476.6,587.1 476.4,582.9C476.3,580.5 474.8,578.1 472.1,575.9C467.6,572.3 464.5,569 461.7,566.1C454.7,558.7 449.6,553.3 430,551.9C393,549.2 367.4,531.8 344.7,516.4C325.8,503.5 307.9,491.4 286,488.9C281.2,488.4 276.4,488.1 271.7,488.1C252.5,488.1 238.2,492.4 231.4,495C240.7,490.9 264.1,482 293.8,482C306.8,482 319.7,483.7 332,487.1C347.3,491.3 362.7,497 377.5,502.4C404.4,512.3 429.7,521.7 452.7,521.7C463.8,521.7 473.4,519.5 482.1,515L489.7,511.1C537.2,486.5 578.2,465.3 617.1,465.3C625,465.3 632.7,466.2 640,468C660.7,473.2 676.4,481.2 686.5,491.9C696.7,502.7 697.9,512.8 697.9,516.6C697.9,521.6 685.4,526.9 669.7,533.7C644.1,544.7 609,559.9 597.9,584.8C591.6,599.2 576.4,606.1 551.6,606.1Z" style="fill:rgb(242,242,242);stroke:black;stroke-width:0.15px;"/>
    </g>
    <g transform="matrix(1,0,0,1,15.5798,6.24095)">
        <path d="M899,616C899.1,616 899.4,615.9 899.7,615.9C899,616 898.8,616 899,616ZM923,622C921.5,619.6 917.2,616.2 912,615C907.4,613.9 901.8,615.4 899.7,615.9C902.1,615.5 909.7,614.6 912,616C914.9,617.8 918.1,618.3 922,624C925.9,629.7 928.7,632 933,633C933,633 924.5,624.4 923,622Z" style="fill:rgb(232,232,232);stroke:black;stroke-width:0.15px;"/>
    </g>
    <g transform="matrix(1,0,0,1,15.5798,6.24095)">
        <path d="M923,636C908.9,643.4 898.3,630.1 907,640C915.7,649.9 930,646 930,646C934.435,644.762 936.075,642.054 936.084,638.786C936.098,633.113 931.467,631.556 923,636Z" style="fill:rgb(218,218,218);stroke:black;stroke-width:0.15px;"/>
    </g>
    <g transform="matrix(1,0,0,1,15.5798,6.24095)">
        <path d="M928,639C923,643.2 913,641 913,641C913,641 915.1,642 921,642C926.9,642 934,637 934,637C934.5,634.8 933,634.8 928,639Z" style="fill:rgb(232,232,232);stroke:black;stroke-width:0.15px;"/>
    </g>
    <g transform="matrix(1,0,0,1,15.5798,6.24095)">
        <path d="M602,482C580,475.4 547.8,491.4 527,510C506.2,528.6 485.4,538.8 454,540C422.6,541.2 402,545 402,545L453,560C453,560 498.6,576.2 526,572C553.4,567.8 624,488.6 602,482Z" style="fill:rgb(242,242,242);stroke:black;stroke-width:0.15px;"/>
    </g>
    <g transform="matrix(1,0,0,1,15.5798,6.24095)">
        <path d="M433,554C394.1,537.9 364.8,524.7 354,521C309.3,505.8 248.4,515.4 257,515C315.5,512.2 324.803,553.613 343.476,571.461C375.807,602.361 401.297,616.038 443,614C475.443,612.415 515.4,621.3 542,623C584.2,625.8 630,612 630,612C630,612 480.6,573.7 433,554Z" style="fill:rgb(242,242,242);stroke:black;stroke-width:0.15px;"/>
    </g>
    <g transform="matrix(1,0,0,1,15.5798,6.24095)">
        <path d="M645,562C633.4,599.1 589.274,578.352 542.874,570.052C496.474,561.752 480.037,564.426 410,543C352.575,525.432 315.884,521.626 343,527C371.777,532.703 383.442,558.547 425,559C403.647,563.442 329.704,567.905 344,567C348.084,569.38 397.6,558.5 456,576C512.9,593 549.7,606.1 588,610C626.3,613.9 645.7,600.5 655,591C664.3,581.5 667.8,560.3 670,543C672.2,525.7 688,512 688,512C668.8,514.1 656.6,524.9 645,562Z" style="fill:rgb(242,242,242);stroke:black;stroke-width:0.15px;"/>
    </g>
    <g transform="matrix(1,0,0,1,15.5798,6.24095)">
        <path d="M561.9,627.5C543.9,627.5 529,625.1 515.9,623C505.9,621.4 497.2,620 489.2,620C482.7,620 477.1,621 472,623C465.9,625.4 463.1,626.3 462.6,626.3C463.1,625.4 490,614.2 509.3,614.2C510.2,614.2 511.2,614.2 512,614.3C513.1,614.4 514,614.4 514.8,614.4C516.6,614.4 516.8,614.2 516.8,614C516.8,612 470.3,604.2 437.3,604.2C427.5,604.2 419.3,604.8 413,606.1C384.7,611.9 369.4,618.6 363.4,621.7C369.5,617.7 382.6,610.6 409,601.3C417.8,598.2 426,594.9 433.8,591.8C454.6,583.5 472.5,576.3 492.5,576.3L493,576.3C502.3,576.4 517.8,579.5 535.7,583.1C558.8,587.8 585,593.1 604.9,593.1C615.9,593.1 623.8,591.5 629,588.3C652.6,573.8 667.1,547.9 668.9,544.6C669,547.1 669.6,562 663,578.2C656.3,594.5 640.9,615.6 605,623.1C590.2,626 576.1,627.5 561.9,627.5Z" style="fill:rgb(242,242,242);stroke:black;stroke-width:0.15px;"/>
    </g>
    <g transform="matrix(1,0,0,1,15.5798,6.24095)">
        <path d="M429.7,513.5C425.5,512.1 423,511 423,511C425.1,512 427.4,512.8 429.7,513.5ZM525.648,491.796C506.526,502.407 462.9,523.4 429.7,513.5C442.9,518 477.674,529.664 502.204,513.667C536.585,488.515 574.296,472.722 574.296,472.722C574.296,472.722 546.169,480.41 525.648,491.796Z" style="fill:rgb(242,242,242);stroke:black;stroke-width:0.15px;"/>
    </g>
    <g transform="matrix(1,0,0,1,15.5798,6.24095)">
        <path d="M608.7,596.3C596.5,596.3 583.2,593.2 569.2,590C552.2,586.1 532.8,581.6 511.3,581.6C504.5,581.6 497.7,582.1 491,582.9C481.3,584.2 467.4,585 453.8,585C441.7,585 424.3,584.4 408.4,581.6C411.5,581.9 416.4,582.3 422.5,582.3C445,582.3 486,577.1 508.1,542.1C532.3,503.8 559.9,492.5 567.7,490C568.2,489.8 568.2,489.8 568.2,489.7L568.2,489.6L568.1,489.6C568.1,489.6 567.9,489.6 567.6,489.7C567.3,489.8 566.7,489.8 566,490C553.6,491.9 534.4,496.6 510.9,516C507.5,518.8 506,519.8 505.7,519.8C505.7,519.8 505.7,519.6 506.4,518.8C511.9,512.4 563.2,467.8 615.8,467.8C618.9,467.8 622,468 625,468.3C648.3,470.7 667.5,477.6 680.5,488.3C691.2,497.1 697.4,508.1 697.9,519.2C697.9,519.8 697.9,520.2 697.8,520.3C697.8,520.3 697.7,520.4 697.6,520.4C697.4,520.4 697.1,520.3 696.7,520.1C695.9,519.8 694.8,519.3 693.2,519.3C688.1,519.3 681.9,524.6 675,535.2C670.2,542.5 666.6,549.7 663.2,556.6C654.4,574.3 646.8,589.6 622.1,595.2C617.8,595.8 613.5,596.3 608.7,596.3Z" style="fill:rgb(242,242,242);stroke:black;stroke-width:0.15px;"/>
    </g>
    <g transform="matrix(1,0,0,1,15.5798,6.24095)">
        <path d="M614.8,577.9C600,577.9 582.6,573.2 563,563.9C537.6,551.8 508.4,545.7 476.3,545.7C461,545.7 445.4,547.1 429.9,549.9C428.6,550.1 428,550.2 427.7,550.2C430.4,549 464.3,540.7 504.6,540.7C533.4,540.7 558,544.9 577.9,553.1C590.8,558.4 601.4,561 610.4,561C632.7,561 639.7,544.9 646.5,529.4C649.1,523.3 651.6,517.6 655,513C661.5,504.1 671.2,498.5 680.2,498.5C685.1,498.5 689.4,500.2 692.5,503.3C696.1,507 698,512.7 697.9,519.7C697.2,519.4 694,518.1 690,518.1C685.2,518.1 678.5,520 673.9,528.8C667.7,540.6 663,548 656.9,556.8C647.2,570.9 633.1,577.9 614.8,577.9Z" style="fill:rgb(242,242,242);stroke:black;stroke-width:0.15px;"/>
    </g>
    <g transform="matrix(1,0,0,1,15.5798,6.24095)">
        <path d="M623.5,562.4C637.5,554.8 649.5,550 659.1,548.1C673.5,545.2 675,540.6 676.6,535.2C677.2,533.2 677.8,531.2 679.1,529.1C683.1,522.5 688.7,518.3 693.2,518.3C694.9,518.3 696.4,518.9 697.8,520C696.5,520.5 688.8,523.9 685.9,534C681.3,550.3 674.8,556.7 662,557.9C659.6,558.1 656.7,558.3 653.7,558.6C643.2,559.4 630.2,560.4 623.5,562.4Z" style="fill:rgb(242,242,242);stroke:black;stroke-width:0.15px;"/>
    </g>
    <g transform="matrix(1,0,0,1,15.5798,6.24095)">
        <path d="M658.5,551.4C656.828,551.091 654.9,551.2 653,550.9C650.4,550.4 647.6,549.9 644.5,549.3C631.6,546.8 613.8,543.3 599.8,543.3C596.6,543.3 593.6,543.5 591,543.8C597.9,541.2 604.3,539.3 610.1,538.1C614.4,537.2 619.2,536.8 625.1,536.8C629,536.8 632.9,537 636.7,537.2C640.3,537.4 643.7,537.5 646.9,537.5C655.1,537.5 663.2,536.6 667.2,530.1C673.2,520.4 683.866,516.275 690.866,516.275C694.966,516.275 697,518.1 697.9,519.9C698.012,520.123 693.921,520.942 688.995,526.894C684.286,532.584 682.953,555.915 658.5,551.4Z" style="fill:rgb(242,242,242);stroke:black;stroke-width:0.15px;"/>
    </g>
</svg>
