<svg viewBox="0 0 1721 1153" xmlns="http://www.w3.org/2000/svg" fill-rule="evenodd" clip-rule="evenodd" stroke-linejoin="round" stroke-miterlimit="2"><path d="M45.58 1010.24s127.7-12.6 166-23c95.9-25.899 165-13 165-13s132 20 146 16c57.6-16.6 98.5 1.601 139-3 16.4-1.899 36.6-1.799 42-23 5.4-21.2 18.9 7.4 25 20 6.1 12.601 46 3 46 3s42.1-22.799 99-12c10 1.9 31.3 8 51 11.5l43.8-1.1c18.1-4.699 41-9.6 66.3-13.399 30.1-4.5 40.9-13.3 52-23 11.1-9.7 34 18 34 18s28.8 4.4 48 2c19.2-2.4 96.3-8 123-5 26.7 3 29.6-10.2 112-30 10.8-2.6 73.1 2.9 80.7 2.4-3.6-1.1-4.6-1.5-1.3-.8 2.3.5 2.6.7 1.3.8 12.9 3.9 60.1 16.2 76.9 18.3 7.1 0 9.7.1 4.3.3-1 0-2.5-.1-4.3-.3-19.9 0-74.8 0-86.7-3.7-16.2-5.1-88 11-88 11l2 1s97.1.4 126 0c28.9-.4 72.3 4.2 105-19 10.3-7.3 34.1-4.5 58 5 12.4 4.9 24.4 9.1 34.2 14.2l-49.2-36.2s-58.4-29.7-91-56-159.7-61.3-197-70c-37.3-8.7-138.5-38.8-157-39-18.5-.2-84.3-4.8-109-5-24.7-.2-101.4-16.5-118-16-16.6.5-80.4 10-114 10-33.6 0-98.3 0-116-3-17.7-3-96.5 18.4-132 27-35.5 8.6-279.5 51.8-299 57-19.5 5.2-78.3 10.2-101 12-22.7 1.8-94 32-94 32s-41.4 21.3-62 33-55 102-55 102l28-1z" fill="#f1f1f1"/><path d="M757.58 785.24c-3.3-1.5-6.111-3.887-13.111-4.887-7-1-17.151 4.158-17.151 4.158 3.9 5.2 4.317 13.739 4.317 13.739s10.545-2.61 13.945-3.01c3.4-.399 7.4-1.899 12-2 4.6-.1 3.3-6.5 0-8zM630.58 775.24c-4-.1-9.622-2.926-13.922-4.126-4.3-1.2-13.695 16.392-13.695 16.392l7.617-.265s15.8-2.4 21-4c5.2-1.6 3-7.9-1-8z" fill="#f7f7f7" stroke="#000" stroke-width=".15"/><path d="M361.18 795.64c-.5 0-1-.199-1.5-.699-1.5-1.5-3.3-6.4-3.1-20.7.1-.4 11.2-40.6 15-50 3.8-9.3 10.022-31.767 10.122-31.967l.567-1.034c.1 0 5.11-1.2 12.21-2.899 2.1-.5 3.9-.8 5.3-.8 2.2 0 4.792-.924 4.792-.924-.1.4-7.391 49.124-9.191 66.524-1.8 17.4-21.8 40.7-22 40.9l-10.9 1c0 .1-.5.6-1.3.6z" fill="#f0f0f0" stroke="#000" stroke-width=".15"/><path d="M368.68 788.24c0-.1-2.8-8-4-14-1.2-5.899-11.824-56.323-12.224-58.523 6.9-3.9 15.69-10.522 15.79-10.622 0 0 1.635 2.2 3.935 7.8 2.9 7.301 28.999 52.046 29.299 52.446 2.626 1.914 2.832 26.992-7 30.9-5.1 6.5-19.54 9.821-20.84 9.921l-4.96-17.921z" fill="#f8f8f8" stroke="#000" stroke-width=".15"/><path d="M727.58 784.24s-6.8-5.2-14-7c-7.2-1.799-13-1-13-1l-8-6-5-9s-6.8-19.799-6-36c.8-16.2 0-40 0-40s-8.1-17.399-11-23c-2.9-5.6-13.5-10.1-16-7-2.5 3.101-7.9 8.3-15 16-7.1 7.701-2.2 13.201-2 27 .2 13.8.3 39.9 1 46 .7 6.101 1.1 16.8 2 30 .9 13.201 0 29 0 29s7.2 11.3 12 13c4.8 1.701 21.2 3.4 30 1 8.8-2.399 29.9-8.6 35-11 5.1-2.399 14.9-2.299 16-6 1.1-3.7-6-16-6-16z" fill="#d4d4d4" stroke="#000" stroke-width=".15"/><path d="M387.88 878.14c-10.3 0-26.1-4.5-31.3-8-5.5-3.699-12.4-25.1-12-36.899.3-9 1.5-31.4 5-45 2.8-11 6.9-17.4 7.8-18.7-2.23 20.148 12.445 21.104 12.505 22.12.89 15.287 44.174 82.743 48.495 83.48-2 .3-19.2 2.5-28.8 3h-1.7z" fill="#cecece" stroke="#000" stroke-width=".15"/><path d="M429.03 766.988c1.543-1.405 3.058-2.736 4.316-3.753 4.7-3.8 19.3-10.1 27-14 7.7-3.9 33.234-9.994 33.234-9.994v-5s-.8-1.3-1-5c-.2-3.7 10.1-17.6 13-24 2.9-6.4 8.1-17.4 8-23-.1-5.6 4.9-9.7 10-16 5.1-6.3 35-32 35-32l17-8s54.6 10.7 66 17c11.4 6.3 23.105 15.927 23.105 15.927s-19.24 2.701-24.105 19.073c-2.798 9.417-1.9 26.1-3 42-1.1 15.9.227 24.238.227 24.238l-2.227.762s-9.4 7.9-16 17-14.1 26.3-19 28c-4.9 1.7-17 7-17 7s-5.4 5.8-11 15c-2.755 4.526-6.188 11.377-8.965 17.169l.295.153-5.33 10.678s-9.813 19.826-21.252 24.967c-11.44 5.14-53.494 11.937-78.418 12.877-24.924.939-58.744-1.438-58.744-1.438s-8.125-1.547-13.651-9.56c-5.525-8.014-5.027-15.033-12.433-20.006-7.407-4.973-5.803-15.252-8.455-27.465-2.653-12.213 3.978-28.516 3.978-28.516l4.235 8.247s10.84 5.301 19.197-2.278c7.294-6.615 8.26-11.145 9.503-18.391 1.239-7.221-.463-12.96-.463-12.96s10.426 5.875 15.648 8.568c1.412.729 7.177-4.693 11.305-7.298z" fill="#d4d4d4" stroke="#000" stroke-width=".15"/><path d="M638.637 733.69c-.7-10.4.943-48.45.943-48.45s-2.3 13-4 33c-1.8 20.601-7 18.8-14 28-7 9.201-19.144 43.772-15.462 38.239 5.658-8.503 7.597-8.171 15.182-22.435 5.379-10.113 6.6-7.676 11-12.476 4.4-4.8 6.415-4.114 6.415-4.114s.622-1.363-.078-11.763z" fill="#cecece" stroke="#000" stroke-width=".15"/><path d="M592.58 773.24c-2.9-14.6-11.7-22.2-18-29-6.3-6.799-26.5-16.899-36-17-9.5-.1-38.951.939-44.878 6.614-.504.481-.221 5.566-.221 5.566s28.399-1.279 44.099 6.821c15.7 8.1 26.9 19.3 32 26 5.1 6.7 6.6 13.7 12 19 5.4 5.3 3 11 3 11l5-2 7-9s-1.1-3.4-4-18z" fill="#f1f1f1" stroke="#000" stroke-width=".15"/><path d="M466.162 799.042c-1.351-.8-2.631-1.738-3.582-2.801-3.4-3.8-17.5-12.1-22-15-4.5-2.9-21.997-6.73-21.997-6.73s3.918-3.517 10.39-8.938c5.215-4.367 27.532-14.632 27.532-14.632s-14.5 7.5-22 13-9.32 7.775-5.791 9.629c4.603 2.418 8.37 3.623 11.866 5.67 3.579 2.098 15.8 9.201 23 15 2.925 2.357 5.123 4.119 6.704 5.38 7.53 4.206 17.292 9.37 22.296 10.62 9.6 2.4 18.9-3.399 22-11 3.1-7.6 8.4-4.5 8-10-.4-5.5 5.1 33.201-1 42 0 0-13.8-8.1-20-9-6.2-.899-13-7.899-19-10-4.23-1.48-11.09-8.225-16.418-13.198z" fill="#cecece" stroke="#000" stroke-width=".15"/><path d="M715.77 777.752c-4.205-.839-5.613-2.062-12.346-1.926-2.795.057-4.164-.207-5.87-2.077-1.464-1.605-3.253-2.468-4.878-3.454 0 0-1.123 3.759-1.073 8.619.033 3.222.463 5.657.025 9.046-1.1 8.5-3.354 13.192-3.354 13.192s2.722-4.201 5.127-7.93c1.752-2.715 2.789-3.805 2.494-7.429-.7-8.6 3.385-6.752 7.685-2.552 4.3 4.2 13.89-4.389 12.19-5.49z" fill="#d3d3d3" stroke="#000" stroke-width=".15"/><path d="M668.68 647.14c-3-15.1-43-28-45.9-28.899l55.9-64.9c.1-.4 5.5-36 14.6-36h.3c9 .9 18.1 7.4 18.9 7.9-.1 1-1.2 12.4-2 18.9-.5 4-2 9.3-3.5 14.4-1 3.6-2 7-2.5 9.5-.5 2.7-.4 7-.3 12 .1 5.9.2 12.6-.7 18-1.6 9.9-11.5 30.3-18 39-6 8.2-15.7 9.9-16.8 10.1z" fill="#f8f8f8" stroke="#000" stroke-width=".15"/><path d="M657.58 612.64c4.3-5.1 7.4-18.299 10.7-32.1 3-12.799 6.2-26 10.4-33.299 7.1-12.2 25.1-21.2 29-21.2.3 0 .5.1.5.2s0 .6-1.7 1.9c-8.1 6.2-11.5 17.5-17.8 37.9-.7 2.3-1.4 4.6-2.2 7.1-6.5 20.8-23.3 35.2-28.9 39.5z" fill="#f2f2f2" stroke="#000" stroke-width=".15"/><path d="M660.78 660.94c-1 0-1.5-.4-2.3-1.1-1.4-1.2-3.4-3.1-9.9-4.6-5-1.2-10.6-3.299-16.6-5.5-5.4-2-11-4-16.4-5.5-10.7-3-13.8-3-19.9-3h-1.1c-7.3 0-22.2-1.899-30-5-2.4-1-4.4-1.399-6-1.399-1.2 0-1.9.3-2.4.6 1.1-1.8 3.7-5.6 7.4-8 2.7-1.7 3.1-2.5 3.5-3.3.3-.7.7-1.4 2.5-2.7 3.8-2.8 7.9-4 8-4 .3 0 35.9.9 48 2 12.3 1.1 31.8 12.4 37.9 18 6.5 5.9 7.6 7 6 9.9-.6 1.1-.4 2.7-.1 4.4.5 3 1 6-2.9 7.6-3.1 1.1-4.7 1.6-5.7 1.6z" fill="#e9e9e9" stroke="#000" stroke-width=".15"/><path d="M556.58 636.04c-.4-.799-2.5-4.399-10-7.899-1.7-.8-4.3-1.9-7.7-3.3-13.1-5.5-34.8-14.6-42.9-22.3 4.7 2.1 36.3 16.4 46.4 19.7 10.1 3.3 21.1 3.9 22.8 4l-8.6 9.8z" fill="#e2e2e2" stroke="#000" stroke-width=".15"/><path d="M646.58 923.24s-19.7-5.899-30-9c-105.2-31.6-97.1-23.799-96-24-12.9 2-115.1 27.8-101.3 26.8 6.3-.399 5.3 0 2.3.601l100-16.4s54.5 8.1 80 18 71 31 71 31l-26-27zm-225-5.6l-10 1.601s6.4-.9 10-1.6zM885.58 860.24c-21.6-3.5-61-10.6-71-17-10-6.399-28 1.3-47-3-19-4.299-38.9-15.299-50-14-11.1 1.3-77 12-77 12 18.5 0 76.2-6.899 88-2 11.8 4.9 42 19 42 19s31.2-7.799 38-6c6.8 1.8 61 18 61 18l65 2s-27.4-5.5-49-9zM1240.58 814.24s19.1 23 27.3 26.5c2.7.3 3.7.601 1.7.5-.5 0-1.1-.2-1.7-.5-6.7-.799-24.6-2.2-38.3-.5-19.3 2.3-59.1 0-68-3-8.9-3-27.9-5.7-46-9-18.1-3.299 5.7 5.601 18 13 12.3 7.4-7.7 14.601-19 16-11.3 1.4-26 12-26 12l-14 20s9.7-3.6 30-16c20.3-12.399 54-27 54-27s62.5 4.5 82 6 48-3 48-3-33.6-24.399-48-35zM961.58 970.24c-5.9 0-31.9-14.7-41-20-9.1-5.299-39-20-50-21s-22.7 6.5-48 1 29.7 13.4 45 11c15.3-2.399 71.9 30.601 86 43 14.1 12.4 27.6-7.1 37-11 7.1-3 23.6-11.1 36.7-14.899-12 1.4-27.7 2.9-27.7 2.9s-32.1 9-38 9zm77-14c-3.1 0-7 .8-11.3 2.101 9.7-1.1 16.9-2.1 11.3-2.1zM248.58 901.24c-6.6 10.8-95 46-95 46l98-37s31.2-12.1 47-16c10.7-2.6 33.3-1.799 44.5-1-9.6-2.799-25.5-10.5-36.5-10-13.5.601-51.4 7.201-58 18zm94.5-8c2.2.601 4.1 1 5.5 1 2.4-.1-.3-.5-5.5-1z" fill="#e9e9ea" stroke="#000" stroke-width=".15"/><path d="M314.38 737.54c-1.2 0-2.5-.099-3.8-.399-3.3-.6-5.2-1.6-6.1-3.2-1.1-1.9-.7-4.8 1.2-9.6 3.2-8.1 52.3-54 53.4-55h.2c.6 0 2.9.4 5.6 6.1 3 6.3 3.4 8.9 4.4 15.8l.3 1.8c.8 4.8.9 11.1.9 11.2-.1 0-6.9 6.5-10 8.9-2.9 2.2-9.2 5.6-9.9 6-.4-.3-3.3-2.2-6.1-2.2-1.1 0-2 .3-2.8.9-4.5 3.5-8.8 7.5-12.2 11.4-5.2 5.8-9.7 8.3-15.1 8.3z" fill="#cfcfcf" stroke="#000" stroke-width=".15"/><path d="M308.98 735.74c-.7 0-1.5-.2-2.3-.6-2.2-1.1-3.4-2.399-3.8-4-.8-3.199 1.7-7.5 6.8-14.799 6.3-9 16.3-22.4 24-31 7.3-8.2 15-15.7 21.4-15.7h.3c6.5.3 7.8 1.4 7.9 1.4 3.1 5-3.2 12.2-11.9 22.1l-.9 1c-1.3 1.5-2.7 3.1-4.1 4.8-6.9 8-14.7 17-22.9 25.2l-1 1c-7.2 7.3-10.5 10.6-13.5 10.6z" fill="#c5c5c5" stroke="#000" stroke-width=".15"/><path d="M342.08 697.44c-3.3 0-5.8-.6-7.4-1.9-3.5-2.699-5.1-5.099-5.2-7.599-.1-2.4 1.3-4.8 4.3-7.4 6.6-5.8 77.6-29.1 78.3-29.3.1 0 .3-.4.6-.4.1 0 .2 0 .3.1.4.4.8 2.1.5 7.2-.1 1.2-.1 2.2-.2 3.2-.3 5.6-.5 8.9-2.8 15.7l-4 11.9c-.9.1-9.7 1-13.4 1.6-3.6.6-11.4 3-12.5 3.3-.3-1-2.1-7.8-5.7-7.8h-.5c-5.1.9-8.4 2.7-12.9 5.8-3.2 2.5-12.1 5.6-19.4 5.6z" fill="#cfcfcf" stroke="#000" stroke-width=".15"/><path d="M336.68 692.44c-2.7 0-4.7-1-6.5-3.3-1.3-1.6-1.8-3.399-1.5-5.299 1.1-6.2 10.2-12.6 19.9-18.5 7.3-4.5 14.3-7.4 21-10.1 3.1-1.3 6-2.5 9-3.9 7.3-3.3 18.3-6.9 25.2-6.9 1.5 0 2.7.2 3.7.5 2.2.7 3.3 1.946 4.1 3.2 1.103 1.73 1.456 2.824 1.356 2.824.9 5.9-4.556 9.076-17.556 15.276-3.9 1.9-8.9 4.5-14.2 7.3-9.2 4.9-19.6 10.4-27.8 13.7l-1.8.7c-6.5 2.6-11.3 4.5-14.9 4.5z" fill="#c5c5c5" stroke="#000" stroke-width=".15"/><path d="M942.58 621.24c-24.5-21.6-44.8 14.9-41 10 3.8-4.899 16.5-11 24 0s24 13 24 13 9.5-8.399-7-23z" fill="#dadada" stroke="#000" stroke-width=".15"/><circle cx="949.5" cy="478.5" r="86.5" fill="#e8e8e8" stroke="#000" stroke-width=".15" transform="translate(15.58 6.24)"/><circle cx="950.5" cy="479.5" r="66.2" fill="#f7f7f7" stroke="#000" stroke-width=".15" transform="translate(15.58 6.24)"/><path fill="#fff" stroke="#000" stroke-width=".15" d="M927.88 497.04h9.7v23.401h-9.7zM987.18 481.74h9.7v23.4h-9.7zM942.58 474.04h9.7v53.901h-9.7zM957.58 476.341h9.7v41.4h-9.7zM972.28 437.341h9.7v67.8h-9.7z"/><path d="M948.38 570.94c-5.93-5.848-8.626-4.45-17.18-9.12-13.487-7.366-18.62-17.58-18.62-17.58s.616 1.99 7 11c5.507 7.775 28.189 23.974 28.189 23.974s4.165-4.766.61-8.273z" fill="#dadada" stroke="#000" stroke-width=".15"/><path d="M972.58 577.24c6.546-3.541 30.607-24.434 27.019-21.408-21.79 18.376-34.82 15.109-33.02 14.409 7.6-2.6 10.4-20.7 9-15-1.3 5.2-6.8 11.6-12.2 12.9-5 1.3-7.497-.402-10.8-4.9-4.055-5.525-19.56-17.943-15-14 16.35 14.135 10.816 25.869 7 17-2.552-5.934-15.404-11.823-15.404-11.823 4.572 3.638 8.187 5.423 11.405 13.823 2.102 5.487 4.474 7.496 6 10 0 0 5.4 41.3 5 74-.4 34.7-9.7 53-19 71s-13.9 33.6-8 50c6.3 17.4 6 25 6 25h43s1-5.4-16-6c-6.3-.2-12.2-2.2-18-19-6.1-17.4-3-25.9 4-48 5.9-18.7 10.3-16.2 16-45 3.5-17.7 2.6-22.3 1-58-1-23-.5-18.1 0-32 .3-9 3.622-8.467 12-13z" fill="#dadada" stroke="#000" stroke-width=".15"/><path d="M995.48 726.14c-4.9 0-21.4-.399-28.8-6-2.2-1.6-3.9-3.199-5.5-4.6-2.9-2.699-5.1-4.599-7.6-4.599-1 0-1.9.3-3 .9 4-3.1 14-10.1 23.4-10.1 1.6 0 3.2.2 4.6.6 12.5 3.6 17.5 22 17.9 23.8h-1z" fill="#dadada" stroke="#000" stroke-width=".15"/><path d="M955.28 750.24c-1.3 0-5.1-5.1-7.6-17-1.9-8.899-.5-16.5 2-19.5.7-.899 1.6-1.399 2.4-1.399.2 0 .4 0 .5.1.1 0 8.3 5.4 6.9 17.9-1.6 14.2-2.4 19.1-3.9 19.9-.1-.1-.2 0-.3 0z" fill="#dadada" stroke="#000" stroke-width=".15"/><path d="M567.18 612.34c-17.1 0-35.8-3.3-50.8-5.899-10.4-1.8-19.3-3.4-24.9-3.4-.7 0-1.3 0-1.9.1-1.5.1-2.8.2-3.7.2-1.8 0-2.7-.2-2.9-.6-.2-.6 1-1.8 2.6-3.3 2.8-2.6 6.6-6.1 6.4-10.3-.1-2.4-1.6-4.8-4.3-7-4.5-3.6-7.6-6.9-10.4-9.8-7-7.4-12.1-12.8-31.7-14.2-37-2.7-62.6-20.1-85.3-35.5-18.9-12.9-36.8-25-58.7-27.5-4.8-.5-9.6-.8-14.3-.8-19.2 0-33.5 4.3-40.3 6.9 9.3-4.1 32.7-13 62.4-13 13 0 25.9 1.7 38.2 5.1 15.3 4.2 30.7 9.9 45.5 15.3 26.9 9.9 52.2 19.3 75.2 19.3 11.1 0 20.7-2.2 29.4-6.7l7.6-3.9c47.5-24.6 88.5-45.8 127.4-45.8 7.9 0 15.6.9 22.9 2.7 20.7 5.2 36.4 13.2 46.5 23.9 10.2 10.8 11.4 20.9 11.4 24.7 0 5-12.5 10.3-28.2 17.1-25.6 11-60.7 26.2-71.8 51.1-6.3 14.4-21.5 21.3-46.3 21.3z" fill="#f2f2f2" stroke="#000" stroke-width=".15"/><path d="M914.58 622.24c.1 0 .4-.1.7-.1-.7.101-.9.101-.7.101zm24 6c-1.5-2.399-5.8-5.799-11-7-4.6-1.1-10.2.4-12.3.9 2.4-.399 10-1.299 12.3.101 2.9 1.8 6.1 2.3 10 8 3.9 5.7 6.7 8 11 9 0 0-8.5-8.6-10-11z" fill="#e8e8e8" stroke="#000" stroke-width=".15"/><path d="M938.58 642.24c-14.1 7.4-24.7-5.899-16 4 8.7 9.9 23 6 23 6 4.435-1.237 6.075-3.945 6.084-7.213.014-5.673-4.617-7.23-13.084-2.786z" fill="#dadada" stroke="#000" stroke-width=".15"/><path d="M943.58 645.24c-5 4.201-15 2-15 2s2.1 1 8 1 13-5 13-5c.5-2.2-1-2.2-6 2z" fill="#e8e8e8" stroke="#000" stroke-width=".15"/><path d="M617.58 488.24c-22-6.6-54.2 9.4-75 28-20.8 18.601-41.6 28.8-73 30-31.4 1.201-52 5-52 5l51 15s45.6 16.201 73 12c27.4-4.2 98-83.399 76-90z" fill="#f2f2f2" stroke="#000" stroke-width=".15"/><path d="M448.58 560.24c-38.9-16.1-68.2-29.299-79-33-44.7-15.2-105.6-5.6-97-6 58.5-2.799 67.803 38.614 86.476 56.462 32.33 30.9 57.82 44.577 99.524 42.539 32.443-1.585 72.4 7.3 99 9 42.2 2.8 88-11 88-11s-149.4-38.3-197-58z" fill="#f2f2f2" stroke="#000" stroke-width=".15"/><g><path d="M660.58 568.24c-11.6 37.101-55.726 16.353-102.126 8.053-46.4-8.3-62.837-5.626-132.874-27.052-57.425-17.568-94.116-21.374-67-16 28.777 5.703 40.442 31.547 82 32-21.353 4.442-95.296 8.905-81 8 4.084 2.38 53.6-8.5 112 9 56.9 17 93.7 30.1 132 34 38.3 3.9 57.7-9.5 67-19 9.3-9.5 12.8-30.7 15-48 2.2-17.3 18-31 18-31-19.2 2.1-31.4 12.9-43 50z" fill="#f2f2f2" stroke="#000" stroke-width=".15"/></g><g><path d="M577.48 633.74c-18 0-32.9-2.399-46-4.5-10-1.6-18.7-3-26.7-3-6.5 0-12.1 1-17.2 3-6.1 2.4-8.9 3.3-9.4 3.3.5-.899 27.4-12.099 46.7-12.099.9 0 1.9 0 2.7.1 1.1.1 2 .1 2.8.1 1.8 0 2-.2 2-.4 0-2-46.5-9.8-79.5-9.8-9.8 0-18 .6-24.3 1.9-28.3 5.8-43.6 12.5-49.6 15.6 6.1-4 19.2-11.1 45.6-20.4 8.8-3.1 17-6.4 24.8-9.5 20.8-8.3 38.7-15.5 58.7-15.5h.5c9.3.1 24.8 3.2 42.7 6.8 23.1 4.7 49.3 10 69.2 10 11 0 18.9-1.6 24.1-4.8 23.6-14.5 38.1-40.4 39.9-43.7.1 2.5.7 17.4-5.9 33.6-6.7 16.3-22.1 37.4-58 44.9-14.8 2.9-28.9 4.4-43.1 4.4z" fill="#f2f2f2" stroke="#000" stroke-width=".15"/></g><g><path d="M445.28 519.74c-4.2-1.399-6.7-2.5-6.7-2.5 2.1 1 4.4 1.8 6.7 2.5zm95.948-21.703c-19.122 10.611-62.748 31.604-95.948 21.704 13.2 4.5 47.974 16.164 72.504.167 34.38-25.152 72.092-40.945 72.092-40.945s-28.127 7.688-48.648 19.074z" fill="#f2f2f2" stroke="#000" stroke-width=".15"/></g><g><path d="M624.28 602.54c-12.2 0-25.5-3.099-39.5-6.299-17-3.9-36.4-8.4-57.9-8.4-6.8 0-13.6.5-20.3 1.3-9.7 1.3-23.6 2.1-37.2 2.1-12.1 0-29.5-.6-45.4-3.4 3.1.3 8 .7 14.1.7 22.5 0 63.5-5.2 85.6-40.2 24.2-38.3 51.8-49.6 59.6-52.1.5-.2.5-.2.5-.3v-.1h-.1s-.2 0-.5.1-.9.1-1.6.3c-12.4 1.9-31.6 6.6-55.1 26-3.4 2.8-4.9 3.8-5.2 3.8 0 0 0-.2.7-1 5.5-6.4 56.8-51 109.4-51 3.1 0 6.2.2 9.2.5 23.3 2.4 42.5 9.3 55.5 20 10.7 8.8 16.9 19.8 17.4 30.9 0 .6 0 1-.1 1.1 0 0-.1.1-.2.1-.2 0-.5-.1-.9-.3-.8-.3-1.9-.8-3.5-.8-5.1 0-11.3 5.3-18.2 15.9-4.8 7.3-8.4 14.5-11.8 21.4-8.8 17.7-16.4 33-41.1 38.6-4.3.6-8.6 1.1-13.4 1.1z" fill="#f2f2f2" stroke="#000" stroke-width=".15"/></g><g><path d="M630.38 584.14c-14.8 0-32.2-4.699-51.8-14-25.4-12.1-54.6-18.199-86.7-18.199-15.3 0-30.9 1.4-46.4 4.2-1.3.2-1.9.3-2.2.3 2.7-1.2 36.6-9.5 76.9-9.5 28.8 0 53.4 4.2 73.3 12.4 12.9 5.3 23.5 7.9 32.5 7.9 22.3 0 29.3-16.1 36.1-31.6 2.6-6.1 5.1-11.8 8.5-16.4 6.5-8.9 16.2-14.5 25.2-14.5 4.9 0 9.2 1.7 12.3 4.8 3.6 3.7 5.5 9.4 5.4 16.4-.7-.3-3.9-1.6-7.9-1.6-4.8 0-11.5 1.9-16.1 10.7-6.2 11.8-10.9 19.2-17 28-9.7 14.1-23.8 21.1-42.1 21.1z" fill="#f2f2f2" stroke="#000" stroke-width=".15"/></g><g><path d="M639.08 568.64c14-7.6 26-12.399 35.6-14.299 14.4-2.9 15.9-7.5 17.5-12.9.6-2 1.2-4 2.5-6.1 4-6.6 9.6-10.8 14.1-10.8 1.7 0 3.2.6 4.6 1.7-1.3.5-9 3.9-11.9 14-4.6 16.3-11.1 22.7-23.9 23.9-2.4.2-5.3.4-8.3.7-10.5.8-23.5 1.8-30.2 3.8z" fill="#f2f2f2" stroke="#000" stroke-width=".15"/></g><g><path d="M674.08 557.64c-1.672-.308-3.6-.199-5.5-.5-2.6-.5-5.4-1-8.5-1.6-12.9-2.5-30.7-6-44.7-6-3.2 0-6.2.201-8.8.5 6.9-2.599 13.3-4.5 19.1-5.699 4.3-.9 9.1-1.3 15-1.3 3.9 0 7.8.2 11.6.4 3.6.2 7 .3 10.2.3 8.2 0 16.3-.9 20.3-7.4 6-9.7 16.666-13.825 23.666-13.825 4.1 0 6.134 1.825 7.034 3.625.112.223-3.98 1.042-8.905 6.994-4.71 5.69-6.042 29.02-30.495 24.506z" fill="#f2f2f2" stroke="#000" stroke-width=".15"/></g></svg>