<svg xmlns="http://www.w3.org/2000/svg" width="211" height="150"><defs><clipPath id="a"><path transform="translate(581 208)" fill="#fff" stroke="#707070" d="M0 0h211v150H0z"/></clipPath><style>.c,.u{fill:#ebebeb}.ac,.ad,.c,.h,.i,.j,.k,.m,.u,.v,.w,.y{fill-rule:evenodd}.v{fill:#dfdfdf}.h{fill:#f0f0f0}.i{fill:rgba(195,195,195,.14)}.j{fill:rgba(113,113,113,.14)}.k{fill:#e1e1e1}.m{fill:#d2d2d2}.u,.v{stroke:#d5d5d5;stroke-linecap:round;stroke-linejoin:round;stroke-miterlimit:1.5;stroke-width:.037px}.w{fill:#fafafa}.y{fill:#b6b6b6}.ac{fill:rgba(210,210,210,.5)}.ad{fill:rgba(210,210,210,.65)}</style></defs><g transform="translate(-581 -208)" clip-path="url(#a)"><path class="c" d="M678.814 352.185s-2.833.93-5.086 1.7-7.753.11-10.686.41-8.581-.6-10.62.465a43.368 43.368 0 00-4.606 2.9c-1.657 1.094-2.551-.573-1.408-2.515s2.448-5.1 3.823-6 5.371-1.109 7.029-.972.315-1.5-3.032-.929-3.884.337-6.385 2.636c-2.1 1.93-4.629 2.082-3.3-.87a27.153 27.153 0 012.82-5.351c1.474-2.1 3.87-1.936 6.09-2.647s1.434-.715-.41-.381l4.27-4.349s8.3-6.588 13.768-6.588 6.428-.382 9.36 1.258 2.85 1.858 6.826 1.284-2.5-1.886-5.964 6.288-2.986 7.183-2.489 13.661z"/><path d="M647.817 357.652s-1.878-.307-.274-2.866 1.419-3.543 2.823-4.593-.371-1.99-1.71.613-2.836 4.483-2.65 6.407c.1 1.022.539.723.784.675.215-.041.177.258 1.027-.236z" fill="#f3f3f3" fill-rule="evenodd"/><path d="M654.554 348.619s3.87.765 4.281-.853-2.743-2.6-4.426-2.139-.027-1.623 1.166-2.913 3.9-.472 3.9-.472a1.443 1.443 0 001.728-.546c1.347-1.549.143-3.749 1.362-4.821s1.749-2.361 3.8-3.411 4.453-2.34 7.011-3.521-13.771.438-13.771.438l-9.072 10.023a40.5 40.5 0 00-4.027 5.083c-1.657 2.581-3.253 5.263-2.188 6.344.692.7 2.115.383 3.71-1.468 2.048-2.377 5.055-1.766 6.526-1.744z" fill="#dfdfdf" fill-rule="evenodd"/><path d="M663.001 334.881s.433.894-1.517 1.569a17.05 17.05 0 00-3.913 1.51 8.718 8.718 0 00-2.636 2.344 20.162 20.162 0 013.7.655c.71.358 1.541.556-.77.616s-2.456-.179-4 0a8.86 8.86 0 00-4.551 1.43c-1.288 1.013-1.131 1.43-2.732 4.568s-.626 2.9.783 2.264a18.046 18.046 0 011.95-.794 22.679 22.679 0 01-3.743 2.523c-1.107.4-2.239-.616-.722-3.258s3.118-6.2 3.118-6.2z" fill="#cdcdcd" fill-rule="evenodd"/><path d="M680.438 330.945s-5.884-1.177-8.879.681-9 6.386-9.132 8.879.676 2.515-.464 3.958-2.677 1.706-1.007 2.646 2.5.459 1.193 1.137-2.69.591-1.4 2.143 1.829 1.225 4.149-.809 4.957-1.181 5.527-3.259 1.577-2.668 3.579-.722 4.241 1.291 5.182-.9 2.995-8.595 5.288-10.607 1.67-.744-1.272-1.334-2.764-1.813-2.764-1.813z" fill="rgba(243,243,243,.6)" fill-rule="evenodd"/><path class="c" d="M686.455 208.348s-2.764 1.531-4.677 1.219-12.156-2.344-16.094 1.656-4.128 7.967-7.233 9.81a11.043 11.043 0 00-4.809 11.871c1.363 5.248 1.665 8.279-.739 10.591s-1.438 3.187-3.029 4.78a10.141 10.141 0 00-2.518 9.935c1.306 4.811 2.177 7.03 2.594 10.873s2.858 9.31.587 10.716-5.517.085-5.744 6.739 1.516 1.374.3 4.53-2.613 4.842-2.991 6.592-2.477 4.58-.853 8.685c2.881 7.279-1.028 2.414-1.335 8.822-.162 3.377 5.29 2.507 1.541 6.393-2.2 2.281 1.27.229 3.193-2.078 3.467-4.159.317-3.919 2.951-7.731 2.816-4.075 9.024-.136 10.533-7.077.772-3.551 1.148-3.858 3.761-5.17s2.911.9 3.687-4.405 3.351-22.994 3.351-22.994l5.415-50.265 11.228-7.154 11.415 68.693 5.153 3.73s-2.161 2.769.773 5.768 6.06.906 8.293-1.063-2.235 2.874-2.1 6.811.928-3.062 5.567-1.188 8.748-2.342 7.915-5.685-1.193-3.562-1.193-3.562 4.639 1.5 7.365-.062 2.669-1.125 5.415 1.562 7.782-.03 10.319 3.374-2.348-3.874-5.718-5.218-2.159-4.03-6.4-6.029-1.931-3.687-4.866-5.53-3.2-2.062-3.2-2.062-6.552-7.154-6.665-9.154 1.345-5.374-.151-9.091-2.026-3.4-2.026-3.4 1.666-9.029.038-14.653-2.348-7.53-3.162-10.56-2.467-4.948-5.875-9.2-7.581-11.886-20.016-9.819z"/><path class="h" d="M712.7 287.378s2.256 1.049 1.29 2.407-2.511 2.9-3.172 4.269 1.45-1.792 2.952-3.485 1.051-2.771-1.07-3.191zM653.281 277.773s.407 3.723-1.748 5.962-7.142 2.281-5.929-.84 2.57-1.819 3.732-1.484-3.545 1.526-1.679 2.324 3.419-.084 4.36-2.519 1.103-.56 1.264-3.443zM646.7 295.479s-1.23 3.079.967 3.919 2.994 1.708 2.731 3.387.162-2.351-2.18-2.366-4.165-1.413-2.7-3.737 1.182-1.203 1.182-1.203zM653.567 258.737a6.339 6.339 0 00-2.519 5.514c.1 3.863 2.986 3.6 3.826 5.095s-.22-.644-2.18-.952.229 2.8 1.23 3.205-3.6-.658-4-4.073a8.941 8.941 0 013.643-8.789zM654.829 245.625a60.719 60.719 0 01-4.632 4.505 16.3 16.3 0 00-2.061 1.806s2.349-1.834 1.17.07-1.79 1.05-1.586 3.513.891 4.325 1.009 5.977-1.755-4.655-1.764-6.635c-.01-2.165.187-3.163 1.587-4.745s3.749-1.944 6.277-4.491zM650.512 247.23s3.8-3.246 5.412-5.066 3.036-6.425 1.077-9.251 3.122 3.527-1.442 8.608-4.462 4.761-5.047 5.709zM654.432 233.916s-1.731-2.2-.662-5.962 2.206-4.982 4.326-6.592 4.046-3.079 4.818-5.445a11.152 11.152 0 01-2.986 4.9c-2.222 1.987-4.606 3.9-4.894 5.682s.381.014 2.273-1.694-2.079 1.918-2.579 4.073-1.093 1.092-.296 5.038zM718.699 273.796a8.685 8.685 0 00-3.291-3.317c-2.452-1.5-4.767-1.694-6.362-.938s-2.68-.784.153-1.694 7.583 1.218 9.5 5.949zM700.776 266.024a2.118 2.118 0 00-1.077 2.337c.475 1.47 0 .574.865-.434s-1.043.728.712 1.666 1.9.588 3.3-.126-1.824 1.861-4.029 1.679a2.551 2.551 0 01-1.5-4.465c1.789-1.441 1.729-.657 1.729-.657zM706.247 269.397s-2.68 2.9-3.978 4.087 2.358-1.442 3.978-4.087z"/><path class="h" d="M716.952 274.17a9.033 9.033 0 00-3.334-3.233 4.078 4.078 0 00-4.869 1.05c-.644.993 2.664-3.71 8.203 2.183zM712.216 252.485s-.551-2.855-2.2-4.115a9.585 9.585 0 00-5.285-2.058c-2.138-.224-2.655.238-2.859-1.5s-.662 2.24 3.2 2.156 6.024 2.522 7.144 5.517z"/><path class="h" d="M702.452 247.153s4.029.28 5.209 1.581-.84-1.2-3.2-.518-4.163-.475-2.009-1.063zM711.367 234.901a7.934 7.934 0 00-3.215-4.955c-2.825-2.016-5.513-2.351-6.073-5.067s-.551 1.19.331 2.127-.1 1.652-1.1.294-.187 1.036 3.647 2.057 5.603 2.199 6.41 5.544zM722.382 287.23s3.962.112 5.174-1.652 3.868-3.975 6.777-.742 2.884 4.955 5.667 5.794-2.061.938-5.336-4.492-3.911-1.274-5.242.154-3.455 2.146-7.04.938zM731.015 280.887s-2.813-3.049-5.776-2.506c-1.6.294-2.846.961-3.469.42-.129-.111-.162.252 3.63-1.26s3.167 1.12 5.615 3.346z"/><path class="c" d="M646.023 315.978a4.975 4.975 0 01.888-4.855c1.935-2.165 5.752-4.373 6.031-6.67s-.65-3.959-1.67-2.472c-.857 1.249.995 1.639-.583 3.7s-7.49 5.442-4.666 10.297zM642.882 306.771a3.145 3.145 0 01-.331-3.652c1.087-2.275 1.829-.81 1.457 1.487s-1.365 3.893-1.087 7.108.106-2.013-.039-4.943z"/><path class="i" d="M645.73 286.237a3.4 3.4 0 003.5 3.389c3.459.022 5.222-.743 6.044-2.471s-1.219 3.718-4.44 3.5-4.613.853-5.766 2.646 1.882-2.953 1.882-2.953-1.936.657-1.22-4.111z"/><path class="c" d="M647.373 282.891s1.816 2.362 3.539.285a4.946 4.946 0 001.4-3.762s-.525 4.854-4.939 3.477z"/><path class="i" d="M650.598 268.93s-.145 3.7 1.949 4.615 3.843 1.618 3.949 5.161 1.5-3.674-1.975-6.145-3.817-.637-3.923-3.631z"/><path class="j" d="M701.179 277.615s.839 1.166 2.592-1.774 2.445-2.867 3.785-3.961-3.108 2.065-3.078 4.933 1.34-.534 2.842-1.676-.751 1.41-.162 2.26.4-1.312 3.667-2.114 5.022.315 3.372 4.4-1.767 4.4 0 5.176-1.679.972-2.768-3.159-.295-2.163-3.255-2.211-2.916-2.4-5.257-1.409-1.738-.465-1.738-.465z"/><path class="j" d="M717.761 276.23s-5.213 6.755-3.563 8.626 1.708.608 5.552 2.454 3.593 2.041 5.817.486-2.341 2.6-5.817-.486-3.49-1.093-2.577-4.714 1.648-1.044.588-6.366zM657.508 251.295s-4.241 3.435-3.722 10.848c.441 6.343 4.179 8.654 4.783 13.051s.559 11.421-1.753 13.51a34.218 34.218 0 01-3.725 3.013s2.3.1 4.7-2.915-1.193 3.352-3.608 4.373-3.609 1.506-5.7 1.433-2.724 2.115-1.355 3.791 2.887.753 4.4.85-.118-1.263 1.782-2.819 4.094-2.624 6.789-7.605 4.447-3.742 3.653-.729-1.988 6.391-4.315 7a20.322 20.322 0 00-4.536 1.919s3.579-.1 3.55 2.066a18 18 0 01-.221 3.061s1.958-3.693 4.05-3.4 2.945 1.895 3.844-3.742 1.767-23.667 1.767-23.667z"/><path class="j" d="M656.667 252.28s-2.489.9-4.462 5.079-3.388 7.9-2.5 10.764-1.678-2.745-.515-7.071 1.208-6.1 3.711-8.116 3.49-2.6 3.107-4.35-1.266-1.579-3.151-.218.78-1.094 2.179-3.062-1.678 1.045-3.4 2.114a14.032 14.032 0 00-2.518 1.9 13.188 13.188 0 013.461-4.106c2.239-1.677 4.492-3.4 5.1-5.953s.4-5.322-1.09-7.1 1.591 5.03-.515 7.8a18.013 18.013 0 01-2.327 2.844s3.623-5.054 1.885-8.578-1.085-4.289.505-6.283a46.233 46.233 0 014.963-4.836c1.488-1.41-1.709-1.215-3.387.437s-2.846 3.085-2.821 4.544-1.031-2.746 2.827-5.443 4.742-2.187 5.4-4.009 1.763-6.234 7.315-8.057 5.494-.584 9.676.729 2.135 1.191 4.624.049 6.789-.947 7.717 2.7 1.9 3.985 2.636 6.658.368 5.686 1.414 7.727a8.9 8.9 0 005.729 4.326c2.769.826 7 4.714 5.213 8.262s-.854 5.15-.589 5.394c1.68 1.541-2-.024-1.355-4.641s-.014-3.038-2.474-5.783-5.125-3.5-6.686-6.415-6.715-7.022-6.715-7.022z"/><path class="i" d="M711.95 240.962a9.869 9.869 0 00-2.346 4.286c-.159 1.137-.544 2.252 1.8 4.133a23.153 23.153 0 013.658 3.608s-3.763-3.423-4.494-6.474c-.447-1.879.189-3.126 1.382-5.553zM705.814 231.755s4.426 3 3.446 7.086 4.4-3.411-3.446-7.086zM697.106 224.014s-1.511 4.549 1.524 5.555 7.886 1.2 8.841 1.356c2.6.418-.332.087-4.162-1.225s-6.919-2.187-5.673-5.6.743-2.579-.53-.086z"/><path class="i" d="M702.01 221.521s-.663 3.675 2.054 5.446 6.362 3.127 7.33 6.1.755-1.115-2.731-4.505-7.574-4.375-5.182-9.819c1.047-2.384-1.246 1.597-1.471 2.778z"/><path class="j" d="M700.253 244.622s-.751 4.2 1.752 6.1 5.139 3.062 2.959 6.172 1.871-1.458-1.369-3.645-4.874-5.663-3.342-8.627z"/><path class="j" d="M705.377 251.644a5.141 5.141 0 013.049 5.249c-.348 3.672-2.489 5.516-5.258 5.394s-4.447-.316-5.243 2.065-.648-1.579 4.226-1.531 7.467-2.138 7.084-6.026-1.668-3.693-3.858-5.151z"/><path class="j" d="M712.534 254.414s.545 5.274-.044 6.974c-1.117 3.223-4.271 5.054-7.481 5.516s-5.714 2.017-3.328 2.868 3.623-1.652 6.848-2.235 6.023-.122 7.967 2.7-.913-4.738-8.188-3.111 1.473.243 4.462-3.693 3.358-5.303-.236-9.019z"/><path class="c" d="M680.613 211.673s-6.207-.75-9.453.9a17.2 17.2 0 00-8.16 8.292c-1.514 3.227-2.191 5.434-2.948 6.961s-.971 2.243-1.133 5.134.162 4.447-.633 7.072-2.009 7.4-.824 16.353a28.566 28.566 0 005.01 12.345c2.239 2.94 2.33 2.352 2.794 3.552.116.3.086 1.18-.046 6.55a68.547 68.547 0 00.339 11.056c.383 3.184-.466 8.046-2.542 10.062s-3.122 1.725-3.122 1.725 4.309 2.368 7.96.1c7.371-4.572 7.75-1.528 11.844-4.055s13.284-6.263 17.868-8.83a31.67 31.67 0 015.007-2.284l-.015-1.944s-2.857-1.093-1.988-4.932.221-1.968.221-1.968-3.843-2.478-4.359-5.953-1.614-5.971 1.7-9.713 5.346-3.038 5.7-5.662-1.168-2.124-3.495-3.412-3.8-5.006-1.885-8.6 4-6.774 1.362-10.394-5.4-4.884-4.948-8.48.4-4.756-1.76-7.916-1.384-2.09-2.96-3.572-6.269-3.102-9.534-2.387z"/><path class="k" d="M661.256 233.681a3.881 3.881 0 012.047-2.6c1.752-.875 5.425 2.6 5.425 2.6s1.37-1.911-1.228-3.452c-1.647-.977.707-.219 1.738.8s-.56-2.138-1.885-2.77.742-.165.742-.165a3.613 3.613 0 012.171 3.944c-.53 2.843-1.072 3.1-2.516 4.41s-3.683.972-4.974.963c-1.556-.011-2.39-1.351-.387-1.788s4.156-.247 5.125-1.628c.459-.653-1.291-.284-2.985.056a6.035 6.035 0 01-3.273-.37z"/><path class="k" d="M660.181 236.908a11.17 11.17 0 01.177-5.078c.447-1.255 1.915-3.046 3.078-3.256 2.443-.442-1.912 1.685-2.716 3.952-1 2.824-.439 2.79-.539 4.382z"/><path class="h" d="M657.461 256.387s2.082 7.308 6.235 10.609a16.985 16.985 0 0014.62 3.477c2.624-.5 6.415-2.165 7.621-4.462s-2.049 6.024-12.578 6.386c-6.957.239-9.774-2.569-11.155-4.085-1.549-1.7-3.514-6.182-4.743-11.925z"/><path class="h" d="M673.286 259.453s-.8-.8-2.445-2.163a5.819 5.819 0 00-5.831-1.433c-1.149.34-3.4 1.676-3.726 3.741-.538 3.434 1.355 2.236 2.563 1.215a9.168 9.168 0 019.439-1.36z"/><path d="M674.438 244.114a6.2 6.2 0 01-2.91.056c-1.239-.392-1.221-1.022-2.027-.756s-1.332-.7-1.332-.7l-.738.476s-.891.182-1.23-1.764.187-2.058.187-2.058 1.612-1.581 3.02-1.539 2.544 1.89 3.495 2.883.551 1.889 1.485 1.049 1.637-.125 1.2 1.456" fill="#e4e4e4" fill-rule="evenodd"/><path class="m" d="M675.631 242.977a1.812 1.812 0 01-2.324.773c-1.532-.656-.723-1.917-1.2-2.012-.9-.18-1.252.827-.487 1.9s3.202.474 4.011-.661zM668.356 242.419s-2.693-1.228-1.679.242c.749 1.086.79.988 1.679-.242z"/><path d="M696.615 243.145a51.768 51.768 0 00-3.2 7.311c-1.269 3.78-.209 7.06-2.443 10.684s-3.666 6.109-8.35 9.06c-3.768 2.374-8.52 3.124-14.56 2.124-8.671-1.435 5.226 1.655 4.96 4.53s8.5.125 11.853-1.812 4.753-1.906 5.434 2.374 1.8 5.155-1.136 7.654-5.831 3.124-2.8 5.31 4.317-3.811 6.078-1.406 3.749 2.281 4.772-3.5-3.22-10.5-2.311-16.4 2.821-6.936 3.711-12.247-.359-10.622.512-15.465-1.722-7.654-2.916-10.559a22.314 22.314 0 01.396 12.342z" fill="rgba(160,160,160,.17)" fill-rule="evenodd"/><path d="M677.391 236.094s3.314 2.114 5.552 2.065 5.316 1.215 4.83 3.863-2.636 1.142-4.845 2.284-3.77 1.969-2.592 3.864-2.136.437-2.519-2.066.722-2.964-.324-5.418-2.62-4.544-.102-4.592z" fill="rgba(247,247,247,.45)" fill-rule="evenodd"/><path d="M694.067 227.699s-4.978-3.621-8-4.374-2.269-.292-4.006-.632 1.369-1.482 4.241-.923 6.406 3.085 6.6 1.433.465 3.136 1.165 4.496z" fill="rgba(247,247,247,.73)" fill-rule="evenodd"/><path d="M691.993 219.195a12 12 0 01-4.4-2.187c-2.4-1.8-7.319-1.167-9.293-.121s-5.993 3.475-5.183 6.027 2.046 4.276 1.09 6.317-1.958 3.062-3.623 5.735-2.194 1.264-3.093 2.843-1.709 1.724-.987 2.648-1.973.317.545-3.255 3.093-2.892 3.416-5.832.722-5.1-.088-7.7-.559-1.409-2.459-.947-5.451 2.449-6.718 4.587-1.694 1.847-1.605 5.127-1.487-1.6 1.061-5.783 1.178-1.409 2.327-4.325 1.984-7.193 9.384-9.574 13.858-2.235 17.3.608 3.327 3.839 2.326 5.832z" fill="rgba(247,247,247,.64)" fill-rule="evenodd"/><path d="M694.249 229.836s-1.86-3.616-7.948-5.85-9.623.305-10.861 2.7-3.186 7.1-3.692 8.551.808 3.053 2.133 4.114 2.835 1.463 2.221 3.1 2.893-1.061 1.2-3.44-2.006-1.157-1.3-3.15.555.675 2.055 1.543-.9-1.51.058-2.812 1.977.128 3.7.112.867-.627-.331-1.125-.516-1.173.955-2.394-1.422 1.527-.935-.064a3.6 3.6 0 012.718-2.636c1.315-.4-.068-1.735-1.636-.3s-2.094-3.536 3.253-2.33 5.907 1.747 8.41 3.981z" fill="rgba(200,200,200,.12)" fill-rule="evenodd"/><path d="M686.584 230.43s2.649 1.222 3.146 2.459-.506-2.571-2.532-3.761 1.374-.787 2.922.675a15.519 15.519 0 013.915 6.509 36.064 36.064 0 001.354 4.114 5.6 5.6 0 00-3.73-1.189c-2.017.225-3.712-1.273-5.816-2.318s-6.72-.157-7.295-2.2-.224-1.8 2.5-.771 2.988.4 5.959.483 3.743 1.4 2.418-.419-.62-1.798-2.841-3.582z" fill="rgba(212,212,212,.42)" fill-rule="evenodd"/><path d="M673.51 248.299s1.163 1.847 2.7 1.823 3.136.7 1.237 1.652-2 .048-3.607.972a10.207 10.207 0 01-1.959 1s-.236-.073.987 1.725-2.313-1.167-5.655-.729-2.817.3-2.817.3 1.639-2.245.667-3.558-.467.162-1.748.21-2.05-.631-.741-1.911c1.367-1.336 1.909.995 4.383-.317s6.553-1.167 6.553-1.167z" fill="rgba(160,160,160,.09)" fill-rule="evenodd"/><path class="u" d="M680.886 233.292s2.172-3.745 5.065-2.7a6.833 6.833 0 013.838 4.066 14.04 14.04 0 00-3.176-.772c-1.539-.145-3.819.244-5.727-.594z"/><path class="v" d="M685.951 230.592a2.581 2.581 0 00-2.282-.011 6.42 6.42 0 00-2.6 2.435c-.345.5-.109.387.308.55a8.341 8.341 0 003.416.408c1.793-.06.99-.055 1.546-.055s-2.249-.152-3.2-.2-1.449-.7-.976-1.137 4.5-1.871 5.512-1-.26-.493-1.724-.99z"/><path class="h" d="M689.788 234.658s-1.66-2.856-3.378-3.012-3.023.849-2.5 1.588.92-.473 1.517.05c.716.627-1.05.478-2.143.434a6.86 6.86 0 01-2.106-.475 3.485 3.485 0 012.044-2.157c1.696-.728 4.291-.918 6.566 3.572z"/><path class="w" d="M684.252 230.854s-2.335.631-2.616 2.07c-.1.516 1.053.636 1.738.676s.378-.642-.31-.717-1.189-.888 1.188-2.029z"/><path class="u" d="M668.767 233.693s-1.919-3.97-4.081-3.455a5.019 5.019 0 00-3.087 2.86 3.73 3.73 0 002.552.5c1.881-.098 3.702-.568 4.616.095z"/><path class="v" d="M664.688 230.238a1.945 1.945 0 00-.609.24c-.108.121 1.53-.126 1.962.171a13.619 13.619 0 012.144 2.286c.1.294.34.317-.082.381s-.813-.02-.5.015a3.354 3.354 0 011.142.3 2.985 2.985 0 00-.423-.786c-.375-.578-1.249-2.016-2.327-2.41s-1.307-.197-1.307-.197z"/><path class="h" d="M668.767 233.693s-1.373-1.985-2.6-2.3c-1.922-.492-2.857 1.177-1.943 1.525 1.093.416.914-.331 1.369-.264.246.036.381.573.378.606a6.905 6.905 0 01-2.541.231c-1.253-.112-1.944-.268-1.341-1.126.472-.672 1.445-2.315 3.237-1.945s2.223 1.664 3.441 3.273z"/><path class="w" d="M663.834 230.77s-1.879 1.3-1.733 2.185c.069.424 1.035.447 1.623.384s-.042-.539-.661-.591-.761-.235.087-1.106 1.793-1.409 1.435-1.238c-.577.275-.751.366-.751.366z"/><path d="M694.867 225.552a9.372 9.372 0 001.9 6.332c2.357 3.278 1.7 5.528 1.656 8.052s-1.373 6.751-1.247 8.952.633 4.564-.263 7.168-.053 3.509-.939 4.734c-1.7 2.345-6.369 7.649-7.733 9.417s2.105.231 5.221-3.288c2.3-2.6.956 1.079.966 3.939s.164 7.166 1.127 8.758-.662 2.027-.935 5.145.487 4.452-1.335 5.737-3.33 2.105-6.321.755-4.559-.016-3.224-2.749-1.315 1.575-2.328 3.68-1.364 1.961-1.539 3.279-1.1 2.2-2.854 2.764 5.556-1.848 9.658-3.793 8.446-3.7 11.33-5.166l4.084-2.072.672-2.2s-2.365.179-3.1-2.785a4.616 4.616 0 011.25-4.27s-3.176-.58-4.617-2.928c-1.657-2.7-1.3-9.318 1.111-12.709 2.271-3.19 6.049-3.648 6.331-5.754s.219-2.162-2.235-4.4-3.376-3.31-2.568-7.3 3.991-6.1 1.868-9.946-4.874-3.351-5.936-9.352z" fill="#d4d4d4" fill-rule="evenodd"/><path class="y" d="M701.505 252.159s2.38 2.07 1.881 3.754a5.586 5.586 0 01-2.959 3.538 10.084 10.084 0 00-3.931 4.6c-.456 1.5.12-1.863 4.919-4.9s1.575-6.267.09-6.992z"/><path d="M675.472 251.314a16.42 16.42 0 01-1.921-2.578c-1.237-1.913-2.514-2.877-3.857-2.6s-1.062-.048-2.075-.113-2.133 1.19-2.951 2.861-.091 1.309-.812 1.454 1.239 2.092 1.662 2.42c.906.7 4.6 1.845 7.05.5a11.7 11.7 0 002.904-1.944z" stroke="#dcdcdc" stroke-linecap="round" stroke-linejoin="round" stroke-miterlimit="1.5" stroke-width=".037" fill-rule="evenodd" fill="#ebebeb"/><path d="M673.551 248.736a21.958 21.958 0 00-1.905-2.365 2.664 2.664 0 00-2.519-.394c-.69.294-.837-.174-1.707 0a2.042 2.042 0 00-1.351.817c-.326.516.543-1.01 1.759-.7a3.931 3.931 0 002.271.014c1.148-.216 1.983.636 3.452 2.628z" stroke="#dcdcdc" stroke-linecap="round" stroke-linejoin="round" stroke-miterlimit="1.5" stroke-width=".037" fill="#dfdfdf" fill-rule="evenodd"/><path d="M675.419 251.346a4.06 4.06 0 01-2.618-.938c-1.24-1.259-2.27-1.9-3.4-1.286s-1.047.339-2.1.065c-1.408-.366-2.036.043-3.075 1.081a2.863 2.863 0 013.17-.668c1.842.966 2.1-.8 3.712-.2 1.115.413 1.818 2.058 4.311 1.946z" fill="#cecece" fill-rule="evenodd"/><path class="c" d="M640.159 350.751s2.293-4.57 3.154-6.145 4.148-.853 6.945-1.946 6.362-3.7 9.41-5.62 7.024-4.242 9.3-5.773a14.388 14.388 0 018.839-1.774c4.042.615 6.571.582 7.025-1.047.233-.834-.022-1.092-2.365-1.781-.666-.2-3.307-1.22-4.817-1.509-2.074-.4-2.754-.615-2.754-.615s2.377-.42 4.822-.659a35.854 35.854 0 005.833-.868c3.905-1.008 5.147-1.844 5.561-2.669.865-1.725-1.323-1.892-1.323-1.892s1.981-.881 1.418-2.515c-.357-1.036-2.457-1.159-3.955-1.181s-6.29-.757-8.093-.976-4.763-.546-3.9-.612c1.234-.094 6.033-.6 7.318-.9s3.273-1.257 3.032-2.5c-.353-1.817-4.876-1.254-7.521-1.413-4.83-.291-8.8-.6-11.207.6s-8.734 5.642-10.086 6.407-2.107.219-3.857 1.028-4.6 3.018-6.787 4.112a78.969 78.969 0 00-9.834 6.735c-2.757 2.209-7.29 6.758-8.376 8.748s3.656 15.705 12.218 14.765z"/><path class="ac" d="M661.49 315.599s-1.2.733-.609 1.092c.572.347 1.334-.13 3.317-1.354a16.013 16.013 0 016.911-2.537c2.535-.21 6.035.22 8.661-.081 1.446-.166-3.685.588-3.685.588a20.146 20.146 0 012.756.441c.869.262-2.542-.014-5.045-.084a17.109 17.109 0 00-6.564 1.33 35.549 35.549 0 00-5.524 2.9c-1.262.683-4.811.888-3.151-1.092 1.11-1.323 3.842-2.239 5.844-3.544 1.349-.875-.889.731-2.911 2.341zM663.436 322.324s-1.256.409-.44-.868 2.118-1.028 4.822-2.533a16.292 16.292 0 018.888-1.83c2.544.28 10.785.755 11.92 1s1.1.533-.356.322-6.578-.175-10.2-.256c-2.785-.062-4.092-.3-6.542.542s-6.746 2.993-8.092 3.623zM657.775 325.823s-2.725-.244-.594-1.715 3.181-1.12 1.845-.088.149 1.768-1.251 1.803zM657.34 330.494s-.308 1.312-1.432.857.265-2.345 1.474-2.222.849.123-.042 1.365zM658.889 319.28s-1.527 1.8-2.99 2.047 1.336-1.032 2.99-2.047zM674.738 324.484a20.569 20.569 0 00-3.908.621 25.068 25.068 0 00-7.117 3.436c-1.715 1.189-3.039 1.305-2.434-.007s2.271-2 4.81-3.411c2.761-1.532 5.592-1.238 7.927-1.27a104.587 104.587 0 0010.751-1.053c1.246-.242 5.548-1.873 5.386-1.653-.323.445-4.633 2.42-15.415 3.337z"/><path class="ad" d="M675.32 324.653s-4.241.1-5.463.7-5.42 2.6-6.294 3.079-1.484.755-1.484.755-.484-.112 1.8-1.245 5.089-2.687 7.312-3.107a10.526 10.526 0 014.129-.182zM688.892 318.313s-2.282.125-3.172.1-9.119-.182-10.849.028-3.962.238-5.259.924-5.174 2.043-5.853 2.3 4.038-1.96 5.9-2.729a13.99 13.99 0 016.337-.98c3.022.035 10.164.674 12.896.357z"/><path class="w" d="M668.923 246.501a2.414 2.414 0 00-1.591-.3c-.76.2-1.14.412-1.732 1.559s-1.119 2.1-1.119 2.1a18.439 18.439 0 011.618-2.212c1.216-1.388 1.84-.67 2.736-.717 1.042-.054.842-.851 2.514-.251.592.222-.51-1.182-2.426-.179z"/><path class="ad" d="M675.591 313.12a40.084 40.084 0 00-4.589 0 6.811 6.811 0 00-3.41 1.078c-1.305.651-6.192 2.687-7.456 3.177s-2.68-.294-1.332-.489a10.9 10.9 0 003.877-.994c2.816-1.036 4.58-2.169 6.54-2.841s3.74-.141 6.37.069z"/><path class="ac" d="M677.084 329.306s-2.506-.612-4.136-.918-1.524-.525-3.154-.066a38.163 38.163 0 00-6.508 3.411c-1.657 1.006-1.246.306-2.823.306s-3.009 1.924-4.745 3.259-7.462 2.449-9.847 2.734-1.126-.438-2.333-1.4-2.612.371-4.9 1.6-6.243 5.358-6.243 5.358 2.757 5.686 5.129 6.757 3 .066 3 .066a20.834 20.834 0 011.736-4.549c1.431-2.952 2.531-3.127 4.692-2.909s7.547-2.517 10.1-4.33c4.679-3.324 7.807-4.68 10.71-6.757a14.992 14.992 0 019.322-2.562z"/><path class="y" d="M702.016 287.322l.814-2.311a3.127 3.127 0 01-1.156-.313c-.858-.34-2.448-1.926-2.139-3.592s-1.242 2.485 2.15 4.075c.855.402.461 1.249.331 2.141zM699.582 280.304a9.937 9.937 0 01.646-2.086c.092-.179-1.33-.179-2.78-1.577a8.92 8.92 0 01-2.237-7.641s-.369 6.226 2.872 7.731 2.942 1.12 2.942 1.12a6.447 6.447 0 00-1.443 2.453z"/><path class="w" d="M669.756 256.755s-2.057-1.54-4.008-.875-1.081 2.152.721 1.8.89-2.376 3.287-.925z"/></g></svg>