<svg viewBox="0 0 563 848" xmlns="http://www.w3.org/2000/svg" fill-rule="evenodd" clip-rule="evenodd" stroke-linecap="round" stroke-linejoin="round" stroke-miterlimit="1.5"><path d="M187.852 380.039s-38.889 60.101-83.057 74.161c-44.169 14.061-70.539 9.556-70.539 9.556s75.043 59.332 109.43 92.182c34.388 32.85 110.638 76.907 110.638 76.907l27.138-63.064c20.431-54.188 88.561-91.281 132.725-133.932" fill="#dcdcdc"/><path d="M183.017 416.077s-9.781 21.753-24.61 32.52c-14.829 10.768-16.592 31.095-22.413 49.551-5.82 18.456-17.687 27.022-3.844 43.505 13.843 16.483-93.168-77.897-93.168-77.897s36.589 5.382 77.349-13.074c40.76-18.456 66.686-34.605 66.686-34.605zM197.081 397.179s1.647 20.218 5.934 42.08c4.286 21.861 7.909 28.45 26.808 41.637 18.898 13.186 2.085 19.45 1.646 35.599-.439 16.149-7.58 15.38-7.249 31.751.33 16.371-15.051 54.385-15.051 54.385l49.329 37.137 109.869-132.612 6.92-56.144-178.206-53.833z" fill="#d4d4d4"/><path d="M84.237 437.914s5.968-12.38 1.916-25.2c-4.052-12.821-12.307-21.664-6.854-43.769 5.453-22.104 5.307-30.651 4.349-45.536-.958-14.885-1.404-11.2-5.601-21.958-4.198-10.758-1.769-13.19-1.769-13.19s-18.052-9.433-25.273-34.042c-7.222-24.609-5.966-33.008 7.591-48.115 13.557-15.106 32.419-24.903 35.883-31.242 3.463-6.338-4.347-14.588-.516-33.453 3.831-18.865 7.222-10.977 7.222-25.789 0-14.813-6.115-22.55 11.643-23.875 17.758-1.326 18.937-2.211 33.526.294 14.588 2.505 26.083 13.558 37.135 5.453 11.052-8.104 14-2.945 23.505-12.82 9.506-9.875 13.412-13.12 18.128-29.107 4.716-15.987 35.958-33.377 63.294-38.682s47.821-1.768 62.336-4.716c14.516-2.948 29.849 6.424 45.248 5.909 15.398-.516 27.408 12.307 41.114 22.179 13.706 9.873 18.203 2.133 39.128 16.209 20.924 14.075 35.294 32.646 46.789 53.57 11.495 20.925 24.388 59.318 23.062 80.464-1.325 21.145-4.565 31.312-4.346 42.661.219 11.349-1.914 9.359-1.474 21.958.44 12.599-8.625 20.56-8.549 34.19.075 13.631-2.211 20.706-7.516 32.717-5.305 12.01-6.263 12.448-4.346 25.713 1.916 13.266-7.592 39.349-26.969 50.844-19.378 11.495-41.406 23.762-42.611 38.647-4.332 53.508-28.412 24.823-31.802 37.938-3.391 13.114-8.717-2.223-16.023 8.168-14.396 20.474-17.697 13.899-25.495 7-9.525-8.427-153.582-96.428-153.582-96.428l-11.253-30.936s-20.34 27.908-27.637 47.139c-7.296 19.232-14.923 18.753-37.175 31.576-22.253 12.823-31.018 9.802-48.336 17.318-17.318 7.515-30-3.787-14.742-21.089z" fill="#dedede"/><path d="M60.781 242.601s15.307-27.631 39.125-25.586c23.818 2.045 15.529 11.993 25.31 25.918 9.782 13.926 42.831 6.52 53.165-7.074 10.334-13.594 4.144 12.27-19.84 18.072-23.985 5.803-37.08 10.446-54.268-1.105-17.187-11.551-34.707.551-31.889 11.715 2.819 11.164-30.171 2.265-11.603-21.94z" fill="#e7e7e7"/><path d="M109.963 127.132s-14.526 4.186-14.124 24.352c.401 20.165 7.93 35.444.473 37.055-25.797 5.577-38.949 27.409-39.64 48.74-.691 21.331 17.741-44.718 60.207-11.793 9.154 7.097 6.735-20.711 21.622-10.665s-12.845-6.644-23.952-25.699c-9.208-15.798-14.159-38.22-4.586-61.99z" fill="#cecece"/><path d="M128.417 176.962s1.167 20.458 15.726 33.635c14.559 13.178 45.099 9.648 55.037-1.419 9.938-11.066 21.439-14.268 28.283-11.029 6.844 3.24-8.735-14.779-27.117-4.769-18.383 10.01-55.365 4.441-49.651-12.849 5.715-17.29-2.875-35.745-12.339-29.885-9.465 5.86-10.121 16.378-9.939 26.316zM55.907 265.491s12.412 5.096 27.591 7.535 14.596 3.714 12.376 13.505c-2.221 9.792 7.608 7.791 6.88 18.274-.729 10.482-10.046 13.577-.765 21.112 9.282 7.535 19.73 9.937 27.555-1.275 7.826-11.212 7.645 18.42-6.916 22.314-14.56 3.894-37.166-9.282-35.272-23.114 1.893-13.832 5.388-20.35-4.877-30.068s-21.367-15.324-26.572-28.283zM111.417 389.871s24.826-20.128 40.915-18.235c16.088 1.892 29.702 14.449 17.326 25.406-12.376 10.957-25.591 13.287-31.05 25.627-5.46 12.34-11.576 26.972-29.557 31.886-17.981 4.915 17.109-6.552 21.95-27.19 4.841-20.639 9.827-21.878 20.275-28.721 10.447-6.843-8.81-28.611-39.859-8.773z" fill="#cecece"/><path d="M168.347 166.403s17.984 1.856 24.244-12.304c6.26-14.16 9.208-26.281 20.565-25.153 11.357 1.128 17.799 22.751 37.347 20.203 19.548-2.549 17.254-7.644 18.237-19.111.983-11.466 1.747-14.559 11.247-19.328 9.501-4.769-3.456-19.184 7.099-28.32 10.556-9.137 23.697-19.075 36.218-19.001 12.522.073-21.657-10.811-35.49 4.478-13.832 15.288-28.539 36.945-41.934 35.38-13.394-1.564-32.76-7.571-40.877 6.152-8.118 13.723-14.087 55.549-36.656 57.004zM482.654 312.214s-3.639 7.01 1.888 10.38c5.526 3.369 8.794 5.593-1.989 8.794-10.784 3.201-17.692 7.415-19.377 15.705-1.685 8.289-7.583 12.367 1.55 20.118 9.132 7.751 6.907 16.345-6.302 18.669-13.21 2.325-15.334-1.582-23.994 8.763s-14.321 14.793-18.399 22.679c-4.078 7.886 26.218-42.092 37.541-63.894 11.323-21.803 29.082-41.214 29.082-41.214z" fill="#cecece"/><path d="M537.349 246.095s-9.2 8.864-10.986 15.806c-1.787 6.941 8.628 12.503-.438 21.702-9.066 9.2-12.605 21.872-23.827 28.139-11.221 6.267 9.976-3.74 18.098-10.75 8.121-7.01 12.301 4.246 2.965 13.952-9.335 9.705-14.187 21.937-25.948 25.105-11.761 3.168-28.206 8.965-17.49 13.784 10.715 4.818 30.228-16.243 34.44-4.786 4.213 11.458 6.403 19.747-4.078 29.453-10.481 9.705 13.548-5.797 11.83-23.589-1.719-17.793-3.338-20.927 1.987-31.037 5.325-10.111 6.402-27.264 7.582-35.149 1.181-7.886 5.762-14.289 6.976-24.466 1.214-10.177-1.111-18.164-1.111-18.164z" fill="#cecece"/><path d="M126.471 153.834s-3.496-6.326.708-12.928c4.204-6.603 4.046-16.034 4.911-22.833.865-6.798 4.244-13.87 11.317-13.831 7.074.039 2.635 4.599 8.686 8.803 6.051 4.203 8.369 5.659 12.338-1.73 3.97-7.388 10.572-14.814 12.497-6.916 1.925 7.898 2.986 11.552 9.234 10.216 6.248-1.336 11.83 1.771 5.935 3.617-5.896 1.846-14.147.786-11.986 7.112 2.161 6.326 10.805 9.116 15.678-1.847 4.874-10.964 10.728-22.871 18.43-21.731 7.702 1.14 14.539 8.33 19.177 1.375 4.637-6.955 2.398-6.601 10.296-9.273 7.899-2.672 32.026-13.205 39.257-24.207 7.23-11.002 17.645-16.738 27.94-14.893 10.295 1.846 25.187.63 32.615 9.471 7.427 8.841 34.698 17.722 45.977 14.303 11.278-3.419 27.388-2.161 33.755 4.244 6.366 6.406 13.871 10.451 19.215 8.487 5.344-1.963 13.694-2.47 12.829-10.998-.865-8.527 4.715-10.65 12.574-7.742 7.859 2.908 23.146 21.69 31.476 25.582 8.33 3.891 16.312 11.414 21.499 19.392 5.187 7.977 10.02 5.384 4.715-3.929-5.305-9.314-14.657-20.946-18.116-27.783-3.458-6.838-24.912-25.78-32.34-29.984-7.427-4.203 3.852 4.638-3.301 2.634-7.152-2.004-12.731-9.903-17.918-4.99-5.187 4.912-5.268 7.898-10.022.55-4.754-7.349-22.083-24.246-32.851-28.884-10.767-4.637-11.002-3.773-11.749 1.375-.748 5.149-5.149 5.383-13.833-.157-8.684-5.54-32.379-5.619-26.721.748 5.658 6.366 22.556 9.509 15.601 15.089s-20.631-3.929-28.215-3.615c-7.585.314-1.179 8.762-8.292 8.566-7.112-.196-20.63.903-30.887 1.768-10.256.865-29.551 10.808-36.388 20.199-6.837 9.391-12.416 14.422-19.805 14.265-7.388-.157-7.506-1.417-11.789 2.2-4.283 3.616-4.4 4.952-7.662 8.842-3.263 3.89-14.462.392-19.02 1.925s-7.426-1.219 5.266-6.366c12.692-5.147 24.678-15.836 29.511-24.088 4.833-8.252-2.004-1.297-10.806 6.287-8.803 7.585-17.722 16.113-21.377 13.676-3.655-2.437 1.022-5.189 3.615-10.454 2.593-5.265-3.418 10.533-10.413 13.794-6.996 3.261-15.758 4.991-21.731 8.684-5.973 3.693-6.365.352-14.146 1.296-7.782.944-7.232 4.48-13.126 5.541-5.894 1.061-1.014-3.327-9.698-7.533-8.685-4.205-8.45-.983-17.645-1.415-9.196-.432-17.367 2.16-22.084 2.2-4.716.04 2.281 1.218-1.1 6.759-3.38 5.542.156 8.803 6.876 13.833 6.721 5.03 16.898 6.525 11.279 14.226-5.619 7.701-5.401 12.9-.186 21.068z" fill="#e8e8e8"/><path d="M94.354 148.09s-2.434-9.823 3.499-15.403c5.933-5.581 8.959-7.976 8.566-12.575-.393-4.598-4.636-8.331-4.283-14.107.353-5.776 1.1 5.58-1.847 13.36-2.947 7.78-7.586 22.595-5.935 28.725zM103.079 98.656s1.493-6.916 10.531-6.366c9.039.55 17.88-2.594 25.739-1.454 7.86 1.14 11.671-.549 16.033 2.869 4.362 3.418 15.363 4.832 19.372 4.479 4.01-.353-6.601-1.18-11.513 2.436-4.912 3.617-5.816 1.179-11.71-3.772-5.895-4.951-12.458-5.855-19.177-3.851-6.719 2.004-15.481 2.594-22.791 2.987-7.309.393-4.637-3.576-6.484 2.672zM203.539 90.396s5.462-7.504 10.531-12.77c5.07-5.267 6.839-7.624 8.803-14.658 1.963-7.034 6.72-15.757 15.6-23.028 8.88-7.27 19.451-10.06 28.764-14.069 9.313-4.008 34.973-8.763 43.855-10.806 8.881-2.043 43.424-4.046 53.483-2.121 10.059 1.925 18.035 2.75 26.367 3.143 8.331.393 20.121 3.264 27.233 8.725 7.112 5.461-.314 3.576-8.253-.236-7.938-3.813-5.185-.235-13.478 1.572s-6.248 3.812-16.23-2.633c-9.981-6.446-30.376-9.511-28.647-1.966 1.729 7.546 19.495 11.792 13.621 15.813-7.988 5.47-10.949 3.875-17.865-.251-6.916-4.126-23.027-5.304-35.405-.943-12.379 4.361-8.058 9.902-16.034 10.806-7.976.905-29.787 20.865-38.117 26.76-8.33 5.896 5.501-6.444 16.268-16.032 10.768-9.589 20.946-16.62 10.847-14.893-10.1 1.728-23.499 8.919-27.861 16.897-4.362 7.977-14.384 14.895-19.413 17.527-5.029 2.631 7.114-8.881 10.454-18.823 3.34-9.943-9.55 12.416-17.252 16.11-7.703 3.694-13.084 5.265-27.271 15.876z" fill="#ececec"/><path d="M475.797 55.956s-5.422-4.793-16.072-7.505c-10.649-2.713-16.503-4.049-20.04-6.053-3.538-2.004 12.416 9.078 11.552 6.131-1.663-5.673-.51 11.316-6.326 5.737-5.816-5.579-10.727-9.509-13.479-15.404-2.751-5.894-4.245-8.801-14.697-12.299-10.453-3.498 10.414 25.503 17.92 30.965 7.505 5.462 14.029 3.576 24.52 2.79 10.492-.786 9.549 4.48 14.618 1.179 5.069-3.301 7.701-2.122 2.004-5.541z" fill="#ececec"/><path d="M445.515 108.266s-6.487 10.242-17.317 12.304c-10.831 2.063 6.557-9.21-3.98-11.2-10.536-1.99-22.177 6.924-29.398 14.294s-14.148 12.232-25.201 9.948c-11.052-2.284-34.557-7.367-26.747-12.083 7.81-4.716 3.023-8.404-8.62-7.591-11.643.812-6.336 12.159-17.979 3.612-11.643-8.547-11.273-8.404-21.516-3.834-10.242 4.571-19.971 17.758-18.57 24.979 1.401 7.222 6.706-7.369 19.453-5.747 12.748 1.622 37.508-9.211 31.907-2.062-5.602 7.148-22.18 11.494-33.381 10.757-11.2-.737-24.093 11.125-25.862 21.516-1.768 10.391-11.052 21.737 4.274 23.505 15.325 1.768 22.695-1.841 30.948-7.367 8.252-5.526-23.729 4.497-16.581-10.536 7.148-15.034 10.021-14.37 28.221-17.391 18.201-3.021 22.253-.667 27.263-10.391 5.011-9.724 1.034-2.651 13.56 5.308 12.526 7.958 39.125 20.851 63.073 9.135s19.75-7.297 24.685 6.042c4.935 13.338 41.852 58.583 56.073 61.528 14.221 2.946 15.62-2.062 26.526-.442 10.906 1.619-3.096-6.927-17.169-6.19-14.073.737-10.831-2.727-16.284-22.547-5.453-19.821-20.706-30.948-15.695-45.979 5.01-15.032 10.093-20.487 15.989-14.37 5.896 6.117 4.495 1.771 10.685 8.328 6.19 6.557 11.792-7.589-.073-19.526-11.864-11.938-39.937-15.841-48.19-24.758s-10.685-7-10.685-7-11.419 1.253.591 17.758z" fill="#d5d5d5"/><path d="M265.356 180.255s-24.239 4.717-36.841-4.716c-12.601-9.432-26.159-11.422-38.169-7.148-12.01 4.273 24.536-2.211 30.062 7.81 5.527 10.021 19.969 17.39 19.969 17.39s3.24 10.685-10.169 8.696c-13.409-1.99-13.927-4.644-23.578 4.789-9.651 9.432-16.211 9.211-30.211 11.716-14 2.505 12.453 6.336 31.242-6.19s25.346-3.24 18.052 4.643c-7.294 7.883-22.396 13.557-19.966 22.104 2.43 8.547-2.432 2.138-10.612 4.201-8.18 2.062 11.125 13.484 2.063 18.052-9.063 4.567-10.316 13.557-16.8 5.01s-12.896-14.443-23.948-9.432c-11.052 5.01-28.664 6.414-32.273-4.641-3.61-11.054 4.203 16.06 22.843 12.893 18.641-3.166-8.77 9.581-17.833 1.402-9.062-8.18 9.063 12.453 21.221 8.473 12.159-3.979-3.533 10.685-16.429 7-12.896-3.684-7.224 9.433 9.208 12.232 16.432 2.8-2.872 8.693-8.841 20.852-5.969 12.159-10.906 34.633 9.062 33.674 19.969-.958 20.56 6.633 6.855 17.464-13.706 10.831 28.807-5.602 24.682 24.094-4.125 29.695 3.831-17.831 8.768-37.506 4.938-19.674 26.307-55.632 26.307-55.632l52.758-68.011s34.925-33.302 38.904-41.187c3.979-7.886-18.568 2.065-36.326-8.032z" fill="#dadada"/><path d="M374.53 139.812c-30.743-27.147-49.018-11.916-54.78 10.302-3.185 12.277-16.542.403-25.706 7.838-9.165 7.436-2.885 11.353-10.665 17.464-7.779 6.112-7.954 10.088-14.697 9.108-6.743-.98-7.205 7.203-16.657 6.513-9.453-.691-20.117-2.71-25.996-10.548-5.879-7.839 4.785 9.281 13.431 12.624 8.645 3.342 6.918 5.936-1.614 9.395-8.531 3.459-11.586 7.433-14.526 18.443-2.94 11.011 1.037 24.669-10.951 26.342-11.989 1.672-1.901 6.111-11.239 15.16-9.338 9.049-9.11 12.394-14.93 12.334-5.82-.059 28.358 11.296 43.576-14.583 15.217-25.879 24.785-53.661 60.925-59.08 36.14-5.418 63.288-30.204 66.284-37.926 2.997-7.723 74.317 12.54 85.788-16.335 11.471-28.876-21.194-16.82-31.317-2.564-5.435 7.653-18.775 11.541-36.926-4.487z" fill="#cdcdcd"/><path d="M316.372 129.355c3.196-1.688 16.937-4.812 11.489.727-3.838 3.902-6.653 9.7-13.474 9.7-6.821 0-18.534-.224-26.361 2.963-7.827 3.187-7.743 3.382-10.846 6.485-3.103 3.103 7.659-7.994 17.024-6.764 9.365 1.23 19.288 2.265 26.445-2.041 7.157-4.305 16.774-10.203 13.978-14.48-2.796-4.277-14.872-.197-23.762 2.879-8.89 3.075-15.907 6.487-20.77 5.34-4.864-1.147 2.851 4.445 26.277-4.809z" fill="#cecece"/><path d="M161.427 279.976s.164 9.062 4.918 14.644c5.554 6.521 8.344 9.063 14.258 8.954 5.914-.11 8.346 0 8.346 0s-4.809 17.628-5.528 29.068c-.719 11.439-1.324 48.965 9.949 66.482 11.274 17.518 36.584 53.442 53.936 69.301 17.352 15.859 38.848 37.412 82.23 19.176 43.383-18.236 66.538-40.895 75.657-53.66 9.119-12.766 21.386-34.428 31.279-47.25 9.893-12.823 24.148-39.405 28.238-50.733 4.09-11.328 8.51-16.302 13.651-22.105 5.14-5.803 6.908-21.057 11.384-28.848 4.477-7.791 4.973-22.381 9.063-31.334 4.09-8.953 1.934-15.142-.553-24.592-2.486-9.449-1.049-4.367-7.625-12.158-6.576-7.791-18.98-18.064-26.14-29.455-7.295-11.605-14.754-21.609-16.192-32.937-1.437-11.328-1.99-19.508-1.99-19.508s-6.285 11.271-27.395 17.295c-21.109 6.023-38.404 4.256-47.8-.112-9.397-4.367-20.559-13.097-24.317-15.253 0 0-2.986 3.039-15.088 17.683-12.101 14.645-18.347 21.389-33.158 25.975-14.81 4.586-12.656 2.429-20.779 5.359s-9.781.609-9.781.609-1.768 7.79-14.147 9.504c-12.379 1.715-9.617.94-9.617.94s1.601 11.055-7.682 17.299c-9.283 6.244-6.687 6.797-10.72 19.396-4.034 12.6-2.207 11.992-15.528 17.961 0 0 1.272 9.893-8.013 16.303-9.286 6.41-14.313 9.89-23.487 6.631-9.174-3.26 7.373.672-17.369 5.365z" fill="#ebebeb"/><path d="M346.69 137.769s7.815 44.701-3.359 55.425c-11.173 10.724 9.423 25.706-8.418 22.35-17.84-3.356-32.422-8.367-41.343-2.855-8.921 5.512-1.703 10.926 10.574 13.781 12.277 2.855 41.444 15.485 44.851 27.913 3.408 12.427 6.616 26.058-2.856 17.588-9.472-8.469-1.805 1.706-1.956 10.124-.15 8.418-15.984 12.478-23.752 2.605-7.768-9.872 13.932 4.159 9.02-8.318-4.911-12.478-12.18-24.056-25.909-25.96-13.73-1.904-23.653 14.334-12.278 17.942 11.376 3.607 24.564 22.287 16.647 22.687-7.917.4-1.508 11.563-4.014 22.638-2.507 11.075-4.772 14.7-13.786 16.965-12.278 3.084-8.166-25.91-10.122-36.382-1.955-10.473-1.354-14.532-9.572-16.737-8.218-2.205-13.633-12.228-26.36-8.62-12.727 3.607-17.44 15.084-25.707 24.756-8.268 9.672-11.476 17.892-21.298 34.629-9.823 16.737-13.329 24.705-15.134 30.017-1.805 5.311 3.009-61.387 20.948-88.248 3.504-5.245-.402-15.211 7.393-16.834 4.317-.899 16.336 8.926 16.966-20.085.228-10.484 21.917-14.973 18.37-29.058-1.697-6.735 5.741-4.588 13.881-6.69 5.203-1.344 5.228-6.013 10.739-7.877 7.706-2.608 10.865-1.506 23.857-4.65 35.195-8.517 52.618-47.106 52.618-47.106z" fill="#e7e7e7"/><path d="M326.844 288.409s13.631 4.258 10.524 11.826c-3.106 7.568-3.957-.452-13.028 4.711-9.072 5.163-11.976 14.734-5.613 23.453 6.364 8.719 8.567 17.238 2.154 22.801-6.413 5.563-13.68 8.169-9.722 17.991 3.959 9.823 2.356 18.344 12.028 21.199 9.672 2.855 7.215 2.407 7.667 7.467.452 5.06 7.318.853 4.36 7.467-2.957 6.613-1.604 7.966-1.604 7.966s4.812-6.163 8.77-12.477c3.959-6.314 11.826-9.472 11.826-9.472s-23.752-6.314-21.147-19.594c2.605-13.28 9.87-19.895 14.683-39.99 4.812-20.095 14.383-33.525 5.412-51.516s-18.14-18.944-28.614-19.796c-10.474-.852 2.304 27.964 2.304 27.964z" fill="#e7e7e7"/><path d="M317.172 402.467s9.621-1.052 13.431-6.665c3.809-5.612 20.998-2.807 20.998-2.807s-6.916 9.874-2.556 17.941c4.361 8.068 7.067 7.214 9.171 15.785 2.104 8.57 10.171 10.222 1.603 9.321-8.569-.902-16.739-.7-24.957-4.86s-17.69-28.715-17.69-28.715z" fill="#ebebeb"/><path d="M204.368 316.122s10.974 40.691 20.145 52.568c9.171 11.877 20.396 28.465 29.717 30.219 9.322 1.753 6.917 8.969 4.511 18.942-2.405 9.973-3.356 15.536-11.425 23.053-8.069 7.516-24.757-16.086-33.226-27.562-8.469-11.477-21.25-22.855-25.959-38.288-4.71-15.434-8.117-15.034-1.252-32.923 6.864-17.89 17.489-26.009 17.489-26.009z" fill="#ededed"/><path d="M278.034 454.784s-10.122-2.956-23.853-1.603c-13.732 1.353-4.111 10.425 1.403 15.736 5.513 5.312 21.047 13.68 27.712 12.527 6.665-1.153 14.782-10.175 6.164-16.788-8.619-6.613-11.426-9.872-11.426-9.872z" fill="#ebebeb"/><path d="M355.66 398.106s-5.814 7.267 3.507 12.379c9.321 5.111 3.81 8.769 5.163 14.983 1.353 6.215 6.765 19.895 1.402 29.417-5.362 9.521 16.987 2.957 28.464-13.33s38.438-51.518 45.303-65.198c6.865-13.68-10.173-.101-24.806-4.41-14.633-4.309-21.646-11.126-29.666-22.45-8.02-11.325-16.337 3.558-12.028 14.934 4.309 11.375 5.964 26.46-3.508 30.068-9.472 3.607-13.831 3.607-13.831 3.607z" fill="#f1f1f1"/><path d="M490.63 216.921s-11.125-7.983-27.042-3.046c-15.916 4.938-32.422 15.326-35.664 29.253-3.242 13.927-6.779 20.114-8.252 27.263-1.474 7.148-2.136 3.242 8.106 5.526s-5.231 11.862 9.284 16.726c14.516 4.865 17.024 10.461 19.453 21.073 2.43 10.612 10.388 14.886 18.052-6.851s12.305-18.274 18.347-31.242c6.041-12.969 16.138-38.929-2.284-58.702z" fill="#f5f5f5"/><path d="M371.484 241.802s-2.208 14.219 6.263 24.61c8.471 10.39 2.43 22.104-1.549 34.778-3.98 12.675-13.04 29.92-19.157 41.339-6.117 11.419-22.031 28.664-12.747 33.305 9.284 4.64 16.062 3.463 16.062 3.463s9.8.518 8.547-12.526c-1.252-13.044 1.914-27.708 8.769-40.602 6.854-12.893 17.388-34.703 25.494-39.419 8.107-4.716 5.896-12.893-2.356-26.453-8.253-13.56-.073-20.857-15.326-30.065-15.253-9.208-18.198 5.307-14 11.57z" fill="#f1f1f1"/><path d="M279.231 408.255s-1.989-2.875-12.968-.148-.222 11.273 6.557 14.81c6.779 3.536 1.602 10.113 3.813 18.881 2.211 8.769 2.45 7.569 11.44 13.171 8.989 5.601 25.052 15.771 13.557 24.391-11.495 8.619-8.323 13.117-21.367 9.21-13.045-3.906 10.976 10.831 33.599 2.357 22.622-8.474 19.453-13.041 27.484-19.82 8.031-6.779 15.99-22.034 9.948-28.148-6.042-6.115-4.422.445-10.169 10.096-5.748 9.651-11.125 13.557-21.81 2.505-10.685-11.052-5.455-15.29-16.949-24.28-11.495-8.989-1.028-6.298-23.135-23.025z" fill="#efefef"/><path d="M473.285 302.525s-8.897-12.547-25.918-17.354c-17.022-4.806-27.575-4.642-40.563 1.713-12.988 6.356-21.334 22.162-28.186 38.74-6.851 16.578 5.526-20.945 29.842-31.611 24.317-10.666 50.18-6.187 64.825 8.512zM280.747 223.388s29.071 1.051 57.254 13.705c28.184 12.654 30.395 36.582 26.637 55.594-3.758 19.012 2.486-5.414-8.4-28.404-10.887-22.991-47.196-40.508-75.491-40.895z" fill="#d0d0d0"/><path d="M471.296 302.359s-12.601-8.733-30.285-8.787c-17.684-.055-29.896-.551-19.342 1.05 10.555 1.602 23.762 3.811 29.123 10.996 5.362 7.186 4.675.749-8.256-3.507-12.932-4.256 6.142 6.95 9.473 15.998 1.162 3.156-1.635-4.105-8.233-9.903-6.782-5.959-18.374-10.279-26.665-7.871-16.36 4.752-30.262 7.741-22.836 14.672 6.697 6.252 18.902 10.645 27.4 14.934 6.864 3.465-9.234-4.592-18.353-5.477-9.12-.885-5.416.608-9.506-5.195s-2.983-3.149-7.571-2.486c-4.587.662.885-14.7 22.659-23.598 21.773-8.899 44.818-11.162 55.871.939 11.052 12.102 6.521 8.235 6.521 8.235z" fill="#dfdfdf"/><path d="M406.724 320.386s14.062 14.357 27.877 14.191c11.953-.143 21.97-9.626 14.256-10.409-1.201-.122-3.967 5.73-6.022 5.767-15.254.275-25.115.785-36.111-9.549z" fill="#d8d8d8"/><path d="M492.296 273.566s-7.131 13.816-12.656 21.111-6.354 15.584-11.881 22.16c-5.527 6.576-6.044 9.426-12.435.221-5.762-8.298-.532 6.755-4.366 11.107-4.797 5.446 5.139 2.047 4.918 9.231-.22 7.183 3.371 4.308-.441 13.262-3.813 8.953 5.805-6.799 12.877-19.122 7.072-12.322 9.115-10.334 13.648-19.562 4.533-9.229 7.076-28.793 10.336-38.408z" fill="#e0e0e0"/><path d="M381.05 320.706s3.647-6.025 8.842 1.436-2.209 7.685-.883 14.703 2.098 5.912 12.875 8.785c10.777 2.873 18.733 5.196 28.516 2.432 9.783-2.764 5.857-8.897 13.871-9.008 8.014-.111 11.164 3.26 11.164 3.26s11.217-5.086.275-11.938c-10.941-6.851-23.927-14.259-40.949-18.347-17.021-4.088-21.385-4.366-27.465.884-6.08 5.25-6.246 7.793-6.246 7.793z" fill="#e0e0e0"/><path d="M364.421 390.872s5.878-2.296.883-4.464c-4.996-2.167-10.433-3.847-15.96-2.918-5.526.928-15.959-6.277-14.103-12.644 1.856-6.367 8.535-6.369 12.689-16.094 4.155-9.725 8.708-27.187 11.185-36.428 2.476-9.241 6.146-23.52 6.057-31.125-.089-7.605-11.364-32.672-19.542-38.684-8.178-6.013 6.278 7.384 4.466 15.651-1.813 8.267-7.294-.884-6.366 7.117.928 8.002 7.338 25.95 3.536 38.463-3.801 12.512-13.783 34.961-19.796 41.769-6.012 6.808-14.182 8.486-14.446 17.108-.264 8.622 14.258 7.306 18.503 13.673 4.245 6.367 15.739 12.953 24.714 7.958 8.975-4.996 8.18.618 8.18.618z" fill="#e1e1e1"/><path d="M345.011 299.133s-3.492-3.004-3.05-9.99c.443-6.986.53-13.663-1.901-20.294s-3.756-9.727-8.311-14.103c-4.555-4.377-.002 2.123 1.723 7.251 1.725 5.129-1.148.088-5.79-4.421-4.642-4.51 2.872 3.448 2.651 9.284-.22 5.836-7.515-18.039-20.159-19.011-12.644-.972-39.92 5.041-33.953 9.816 5.967 4.775 27.653 18.966 27.653 18.966s-6.549.62-22.956-8.77c-7.245-4.146-10.158-6.56-15.286-5.898-5.128.663-6.078 2.82-14.302 3.306-8.223.486-8.444-4.686-1.061-10.478 7.383-5.792 9.063-7.25 7.736-13.175-1.326-5.925 4.51-10.345 9.417-13.351 4.908-3.007 16.049-.002 24.316 5.039 8.267 5.04 16.891 7.382 26.925 10.478 10.034 3.095 26.259 15.34 27.852 30.284 1.592 14.944 6.764 13.663 3.89 19.277-2.873 5.614.133 5.039-5.394 5.79z" fill="#dfdfdf"/><path d="M349.329 391.718s5.25-2.871 12.545-3.701c7.295-.83 2.598 5.525-5.029 5.691-7.627.166 3.426-2.654-7.516-1.99z" fill="#d3d3d3"/><path d="M397.633 313.91s-1.843-.38-2.462-1.667c-.458-.954.191-2.914 2.248-3.71 1.422-.551 3.164-1.204 4.857-1.862 8.821-3.424 19.127-7.39 31.645-4.146 14.922 3.867 17.02 16.359 17.297 23.984 0 0-4.586 4.254-17.904 5.139-10.89.723-21.756-6.856-30.522-14.222-.827-.695-3.368-3.286-5.159-3.516zM333.432 284.574c1.327-1.196-.03-1.355-.417-7.765s-1.332-15.345-13.766-25.569c-12.433-10.225-39.269-4.443-45.646-1.879-2.374.954-5.282 6.369 1.049 11.218 5.989 4.589 15.035 11.549 28.517 15.418 13.483 3.87 16.153-.157 22.736 5.318 3.028 2.518 5.321 5.247 7.527 3.259z" fill="#f2f2f2"/><path d="M310.547 255.052s-8.375.925-7.452 7.2c.524 3.565 2.981 4.893 5.805 5.266 3.44.453 2.062-4.187-.627-7.887-1.01-1.389-.757-2.685 2.274-4.579z" fill="#f6f6f6"/><path d="M402.123 307.385s4.073-1.643 11.748-1.926c7.674-.284 10.832 1.137 15.379 4.484 4.547 3.347 4.83 9.948-3.885 8.969-8.715-.979-6.885 12.284 6.537 11.337 13.422-.948 15.412-.381 16.864-5.717 1.452-5.336.473-8.998-4.548-15.157-5.022-6.158-18.033-11.211-42.095-1.99z" fill="#e8e8e8"/><path d="M331.412 268.993s-6.396-10.856-14.535-16.892c-4.015-2.978-8.79-3.986-11.549-4.329-40.311-5.018-35.617 16.918-4.789 26.195 6.619 1.992-7.296-2.211-17.169-7.737-9.874-5.526-12.711-10.759-9.137-14.443 3.574-3.683 14.26-7.919 29.916-5.562 7.177 1.08 21.185 5.784 27.263 22.768z" fill="#eaeaea"/><path d="M294.349 263.136s-8.4-3.538-8.032 1.915c.369 5.453 12.417 9.654 19.933 11.016 7.515 1.362 15.822-.351 20.059 3.223 4.237 3.574 6.402 3.878 5.628-2.385-.773-6.263-1.42-12.693-6.567-18.044-8.696-9.037-11.909-8.779-12.93-6.603-.56 1.191-2.605 3.945 1.919 5.163 4.062 1.093 6.215 6.908 2.601 9.335-5.416 3.637-14.617.064-22.611-3.62z" fill="#e8e8e8"/><path d="M283.952 405.921s16.69-2.32 29.18-2.265c12.49.054 7.79 4.539 14.479 6.908 7.019 2.486 9.56-1.934 15.142 6.576 5.582 8.51 2.764 12.047 8.621 17.684 0 0-8.621 6.464-16.248 9.726-7.627 3.262-18.566-.773-27.851-3.924-9.285-3.15-16.358-14.256-21.221-23.541-4.863-9.285-2.102-11.164-2.102-11.164z" fill="#efefef" stroke="#e7e7e7" stroke-width=".65"/><path d="M351.374 434.824s-2.508-.439-7.068-1.544c-4.559-1.106-9.532-9.92-14.838-10.279-5.305-.36-4.088.302-10.969-2.874-6.881-3.177-9.948-7.821-15.723-7.875-5.775-.055-15.392-2.514-20.779-5.498 0 0 7.108-1.059 12.863-1.549 8.422-.717 10.061-.711 18.61-1.198 4.706-.268-6.699-.205-13.801 1.923-7.101 2.128 1.284 4.36 7.003 4.056 5.72-.304 9.173 4.283 14.866 8.014 5.692 3.73 7.433.441 11.578 3.342 4.144 2.902 9.117 8.732 12.433 9.285 3.317.552.43-6.191-3.217-12.326-3.648-6.134-8.977-6.354-10.021-6.501-4.85-.68 6.142-1.464 10.199 4.874 4.186 6.538 6.179 15.466 8.864 18.15z" fill="#e3e3e3"/><path d="M313.961 377.792s-5.39-5.553-1.327-11.881c5.496-8.557.277 4.645 8.346 5.196 8.068.551 10.777 2.209 14.424 10.056 3.646 7.848 2.873 11.44 17.076 9.782 2.663-.311 3.908-.327 4.129-.197.96.564-17.291 3.861-22.588-2.29-6.52-7.57-1.658-6.687-9.174-7.129-7.516-.441-7.68-1.408-10.886-3.537z" fill="#d3d3d3"/><path d="M391.533 473.138s-13.883 1.414-22.858 1.723c-8.975.31-28.912 21.577-36.384 26.483-7.472 4.906-24.803 21-32.451 25.819-7.649 4.818-20.91 10.256-25.597 21.529-4.688 11.274-19.405 50.707-27.186 61.405-7.782 10.699-52.653 64.503-76.572 88.819l71.753 57.473s32.67-41.736 40.098-47.526c7.429-5.791 31.347-18.478 38.73-27.586 7.383-9.108 5.923-42.112 21.53-60.349 14.092-16.466 9.371-27.484 12.423-40.451 2.864-12.166 25.641-32.672 25.863-42.089.222-9.417 39.17-57.96 39.17-57.96l-28.519-7.29z" fill="#ebebeb"/><path d="M361.883 504.587s-1.602 1.877-12.213 8.731c-10.611 6.853-29.014 21.498-29.014 21.498s14.702-17.522 20.946-24.594c6.244-7.072.662-7.295 3.646-14.699 2.985-7.405 5.36-9.672 11.66-14.203 6.301-4.532 15.639-5.803 26.637-6.577 10.998-.773 19.344-.607 19.344-.607l12.379 15.529-33.823 16.799 12.124 51.7-40.749 17.447c-1.51-13.258 10.023-22.259 17.374-27.177 5.28-3.534 6.863-16.646 3.517-24.558-3.439-8.131-4.601-12.857-11.828-19.289z" fill="#e2e2e2"/><path d="M349.67 513.318s16.082-3.203 15.529 9.505c-.552 12.709-7.681 20.999-15.529 29.399-7.848 8.4-11.221 22.439-13.043 36.586-1.822 14.146-12.932 37.301-14.977 51.117-2.044 13.816-2.484 14.26-5.193 28.02-2.709 13.759-11.662 17.851-23.709 28.847-12.047 10.996 6.192 11.772 26.914-11.219 20.723-22.99 37.082-86.044 37.082-86.044l26.194-61.178-3.481-31.83s-12.656-13.1-21.83-9.285c-3.084 1.282-4.994 3.52-6.17 5.925-2.323 4.751-1.787 10.157-1.787 10.157z" fill="#dcdcdc"/><path d="M367.922 478.724s-5.436-1.414-9.283 2.786c-3.847 4.2-4.159 6.055-.047 13.66 4.113 7.604 11.233 10.168 14.15 17.021 2.917 6.854 6.63 21.929 5.791 27.146-.839 5.217-13.086 18.614-17.905 23.211-4.819 4.597-8.664 14.279-11.583 23.607-2.919 9.329-23.745 58.066-24.584 71.241-.839 13.175-7.692 28.427-19.408 36.075-11.716 7.649-20.292 12.866-20.292 12.866s9.484 42.384 14.48 61.528c4.995 19.144 77.501 10.08 77.501 10.08s-12.291-52.788-6.853-70.34c5.437-17.551 14.147-34.839 25.862-49.515 11.716-14.677 26.843-37.224 32.193-49.292 5.35-12.069 25.465-42.397 33.247-56.191 7.781-13.794 9.239-22.902 9.239-22.902s.886-4.245-.972-14.059-5.616-21.708-5.616-21.708-9.016 6.675-17.284 8.533c0 0-15.696 1.503-23.167 4.024-7.472 2.52-16.36 8.753-16.36 8.753s-3.389-9.828-7.28-17.168c-3.891-7.339-8.414-8.959-16.328-11.435-7.914-2.477-8.809-5.893-15.501-7.921z" fill="#ebebeb"/><path d="M395.268 603.846s-3.45 21.666-6.809 33.336c-3.359 11.671-22.814 45.403-31.345 54.113-8.532 8.709-15.297 11.98-24.802 14.412-9.505 2.433-15.475 2.344-20.072 10.302-4.597 7.958-15.519 37.933-13.175 50.842 2.344 12.909-12.644-62.647-12.644-62.647s5.085-4.198 18.613-12.687c13.528-8.489 14.812-14.944 18.348-28.428 3.536-13.485 11.185-34.618 18.038-50.224 6.853-15.606 15.43-33.776 15.43-33.776l38.418 24.757z" fill="#e1e1e1"/><path d="M390.321 488.732s12.048-5.055 16.413-7.432c0 0 1.878-1.356 4.559-1.991 0 0 11.302-5.719 16.745-6.769 5.444-1.05 8.29.966 10.363 4.724 2.072 3.759.053 13.121-2.738 16.685-2.792 3.565-4.613 8.654-11.659 11.776s-16.772 9.008-16.772 9.008-3.482-9.257-6.273-16.109c-2.791-6.853-6.934-7.709-10.638-9.892z" fill="#ebebeb"/><path d="M445.55 501.104s2.209 5.483 3.006 13.219c.797 7.736 1.019 9.902-.706 15.65-1.725 5.748-10.258 28.561-14.944 38.066-4.686 9.504-4.067 10.745-7.781 18.834-3.715 8.089 7.207-12.072 14.767-20.869 7.559-8.797 12.467-17.506 15.031-25.287 2.564-7.782 3.494-8.932 1.769-16.447-1.725-7.516-4.688-14.81-1.725-19.585 2.962-4.775 8.886-9.151 8.886-9.151s-12.864 6.189-18.303 5.57zM407.485 515.473s2.521 6.941 3.05 13.439c.53 6.498.177 8.136-.442 18.702-.618 10.565-2.565 27.454-2.565 27.454s3.45-23.122 7.693-33.025c4.244-9.903 5.219-15.428 5.882-22.856.662-7.428.953-10.495.797-11.583-.388-2.693-10.568 6.102-14.415 7.869z" fill="#e0e0e0"/><path d="M437.021 475.656s5.993-.657 13.537-2.343c7.544-1.685 13.235-4.559 16.302-1.326 3.068 3.233 3.261 12.462 1.216 16.303-2.045 3.841-5.36 6.825-10.223 9.533-4.864 2.708-31.197 7.212-31.197 7.212s8.731-5.79 11.3-16.65c2.569-10.859-.935-12.729-.935-12.729z" fill="#ebebeb"/><path d="M469.485 511.998s13.318-4.228 16.524-8.649c3.206-4.421 3.233-9.423 2.128-12.683-1.106-3.26-1.796-4.007-6.19-4.504-4.393-.497-12.739-1.649-12.739-1.649s-3.441 8.88-8.249 11.534c0 0 6.371 6.224 8.526 15.951z" fill="#ebebeb"/><path d="M407.031 515.248s-4.494-11.732-7.28-17.168c-2.786-5.435-2.492-8.31-8.902-10.925-6.41-2.615-7.22-.44-15.067-4.346-7.848-3.907-9.174-5.305-14.405-2.358-5.232 2.946 1.435-4.791 11.862-1.585 10.427 3.206 15.584 4.937 22.069 4.569 6.484-.369 4.569-.073 9.653-1.768 5.085-1.696-5.452 5.488-5.452 5.488s1.766 2.431 2.652 8.363c.885 5.933 1.842 7.112 4.236 11.938 2.395 4.825.634 7.792.634 7.792z" fill="#d1d1d1"/><path d="M469.208 484.513s-2.311 5.66-4.858 8.649c-2.546 2.988.99 1.556.99 1.556s2.855-4.759 3.868-10.205z" fill="#c2c2c2"/><path d="M393.633 449.039s-4.587 1.216-5.996 5.996c-1.409 4.78.83 14.092 7.35 18.955l10.97 8.179s8.262-4.127 13.727-5.861c7.21-2.287 9.152-3.589 9.152-3.589s-4.992-4.854-9.745-6.926c-4.753-2.072-5.895-4.375-5.895-4.375s-8.869-8.123-14.257-10.804c-5.389-2.681-5.306-1.575-5.306-1.575z" fill="#ebebeb"/><path d="M403.967 441.717s-1.575 4.669 1.851 10.388c3.427 5.72 4.957 7.767 8.162 10.834 3.205 3.066 15.88 9.912 15.88 9.912s7.043.166 8.702 4.697c1.658 4.532 17.629-4.995 17.629-4.995s-8.346-5.775-13.208-10.472c-4.863-4.697-10.445-10.445-14.12-10.86 0 0-10.113-8.787-16.662-11.715-6.549-2.929-6.466-.276-8.234 2.211z" fill="#ebebeb"/><path d="M406.962 513.937s3.118-.993 11.088-5.687c6.228-3.668 8.183-4.164 12.194-8.302 4.011-4.137 5.75-6.914 8.182-13.64 2.431-6.727-1.886 10.098-3.559 13.54-1.673 3.442-.159 2.746 6.663 1.673 6.821-1.074 15.538-2.494 19.737-5.652 4.2-3.159 3.158-3.095 3.158-3.095s1.137 3.157 2.527 8.526c1.389 5.368 1.767 10.042 2.715 15.19.948 5.147-2.496-4.453-5.211-8.937-3.385-5.589-4.167-6.158-8.621-2.653-4.453 3.506-7.011-.535-7.705 2.969s-.82-3.001-5.715-2.843c-4.895.159-10.043 2.559-14.337 4.011-4.295 1.453-5.465-.253-6.285 3.189-.82 3.442-1.516 3.348-6.884 3.285-5.368-.064-4.895 2.083-4.895 8.936s-.276-2.306-3.052-10.51z" fill="#d1d1d1"/><path d="M358.014 488.371s2.078 1.546 7.471 2.785c5.394 1.239 6.721 5.262 13.396 6.765 6.675 1.504 9.462 1.811 11.804 10.433 2.343 8.622 1.504 21.886 2.255 27.677.752 5.79 5.525 22.811 7.161 31.609 1.636 8.799-2.386 29.71-6.851 40.453-4.466 10.744-11.847 13.925-20.868 21.928-9.02 8.004-22.682 25.952-30.02 32.805-7.337 6.853-5.834-12.822 2.123-26.217 7.958-13.395-4.554-14.764 1.547-34.439 6.102-19.675 2.696-19.011 10.433-34.352 7.738-15.34 15.815-12.588 21.62-25.201 4.599-9.991.619-10.78-.842-23.652-1.59-14.014-6.142-13.928-12.509-17.773-6.367-3.846-9.417-8.621-6.72-12.821z" fill="#e1e1e1"/><path d="M455.101 472.04s-5.057 1.451-8.682 2.123c-3.626.672-8.259 1.043-8.259 1.043s-.796-1.662-3.608-2.918c-2.812-1.255-3.148-.885-5.5-.318-2.352.566-2.139-.832-2.139-.832s4.121-1.378 7.445-.459c3.324.919 5.535 3.006 8.842 2.635 3.307-.371 5.853-1.521 7.745-2.458 1.893-.938-1.962-.248-4.173-3.679-2.21-3.43-3.13-4.209-5.482-6.313-2.352-2.104 10.434 7.446 12.503 9.143 2.069 1.698 1.308 2.033 1.308 2.033z" fill="#d1d1d1"/><path d="M406.734 481.3s2.653-1.142 7.428-3.282 15.244-6.048 15.244-6.048-2.811-.567-4.898-2.211c-2.087-1.644 1.751.779-1.008 2.423-2.759 1.645-6.951 3.343-10.346 4.439-3.395 1.096-3.502 3.787-6.42 4.679z" fill="#d1d1d1"/></svg>