<svg viewBox="0 0 564 845" xmlns="http://www.w3.org/2000/svg" fill-rule="evenodd" clip-rule="evenodd" stroke-linejoin="round" stroke-miterlimit="2"><path d="M449.649 398.98s2.025-3.692 11.478-.854c9.454 2.836 17.194 4.23 25.568 1.124 8.373-3.105 7.92-2.251 12.559-6.752 4.637-4.5 2.7-7.832 2.7-7.832s.244-5.629-5.653-10.985c-5.898-5.356-10.535-7.474-9.5-15.17 1.036-7.698.45-13.866-1.845-20.032 0 0 5.672-1.844 6.212-8.463.541-6.618-11.523-18.636-11.523-18.636l-.09-8.508s2.837-4.995 7.607-10.757c4.771-5.762 6.767-15.3 4.562-25.16-2.205-9.858-2.78-14.526-10.928-21.007-8.147-6.482-8.553-13.189-17.24-18.501-8.689-5.312-20.212-12.603-20.212-12.603s-1.193-1.406-8.755-9.78c-7.561-8.372-7.47-12.017-18.275-17.599-10.803-5.583-8.418-6.213-16.475-11.435-8.058-5.22-8.618-8.363-17.53-12.459-8.913-4.097-10.76-5.808-16.611-10.13-5.852-4.32-5.896-3.735-12.288-7.832-6.393-4.097-29.756-6.48-48.302-11.793-18.545-5.312-50.145-4.008-58.427-2.342-8.283 1.666-20.933 1.486-30.115 3.016-9.183 1.53-20.89 6.346-29.846 11.479-8.957 5.132-21.237 14.385-34.922 22.128-13.685 7.743-30.701 23.815-34.166 36.237-3.465 12.424-3.42 25.298-11.479 35.787-8.057 10.488-11.434 16.609-18.815 28.133-7.382 11.525-15.032 10.84-15.032 10.84s-18.967-2.995-38.652 19.69c-19.685 22.684-13.088 36.612-1.922 54.256 11.166 17.644 3.725 8.646-5.158 21.848-8.885 13.203-24.127 17.645-15.125 36.85 9.002 19.206-3.246 24.012 10.801 42.976 14.047 18.963 1.2 25.327 17.526 35.05 16.325 9.725 29.65 18.243 47.897 11.163 18.246-7.08 33.49-11.044 33.49-11.044l135.405-39.373 94.827-36.85 98.254-14.68z" fill="#ebebeb"/><path d="M361.542 278.763s-22.103 1.71-30.61 7.787c-8.507 6.077-6.662 14.583-10.308 20.84-3.646 6.258 4.996-2.563 15.98-6.21 10.983-3.647-3.601 5.4 7.878 3.78 11.478-1.62 12.782.99 18.365-2.7 5.582-3.69 5.627 1.71-.766 6.301-6.391 4.592 6.483-1.307 16.476-.99 9.993.316 11.883 2.925 18.501-2.926 6.618-5.852 11.884-5.313 15.71-9.319 3.826-4.005-6.57 9.861-10.128 17.288-3.557 7.426-.179 17.105-.179 17.105s.9-4.819 9.633-11.03c8.733-6.21 16.294-5.625 16.744 4.638.45 10.263 6.706 16.701 11.793 8.687 5.088-8.012 12.38-9.723 15.127-16.43 2.745-6.708.584-17.285.584-17.285s-20.752-14.629-37.767-16.655c-17.015-2.028-43.257-4.682-57.033-2.881zM216.955 314.999c-3.607-3.962 12.425 6.979 16.026 15.035 3.6 8.056 8.779 15.98 10.984 20.932 2.205 4.95 8.913-1.26 7.292-10.219-1.62-8.958.315-11.345-6.527-18.367-6.843-7.022-20.887.18-27.775-7.381zM305.814 291.5s-9.409 3.6-12.92 15.261c-3.51 11.66-3.644 15.349-5.716 21.832-2.071 6.483 11.028-5.222 14.27-15.575 3.24-10.354 9.228-4.908 4.546 2.925-4.682 7.834 10.354-.088 12.379-8.282 2.026-8.193 2.296-13.19 5.177-18.32 2.881-5.131-5.356 4.457-9.813 12.333-4.458 7.877-1.352-2.52-7.968.36-6.617 2.881-1.845-7.967.045-10.533zM283.262 295.058s-10.083 7.067-12.379 18.095c-2.296 11.028.811 19.762-3.735 26.064-4.547 6.302 6.346-3.648 8.776-18.368 2.431-14.718 1.17-19.893 7.338-25.791z" fill="#dcdcdc"/><path d="M480.293 299.608s2.43-9.407.09-19.625c-2.341-10.219-10.038-17.469-18.862-23.994-8.823-6.526-8.418-10.13-12.289-21.697-3.87-11.568-.764 17.915 7.428 25.793 8.191 7.878 6.842 16.16 6.842 16.16s-25.03-14.585-34.571-14.945c-9.543-.359-.586-.044 2.745-10.263 3.332-10.218 5.716-16.297-3.331-28.18-9.047-11.882 6.259 17.873-2.385 20.843-8.643 2.97-27.503 10.76-28.224 6.392-.721-4.367 6.705-.719 11.658-9.182 4.952-8.464 5.716-11.344 3.511-17.106-2.205-5.762-5.762 18.635-18.006 22.057-12.244 3.422-17.33 5.627-17.33 5.627s-31.782 4.815-40.739 3.69c-8.956-1.124-28.672.858-39.297 2.973-10.624 2.114-24.307 7.292-30.113 3.555-5.807-3.737-5.63-5.942 5.895-4.592 11.525 1.352 23.948-2.34 30.835-14.089 6.887-11.748 11.884-14.09 22.868-11.48 10.984 2.611-9.048-10.576-21.426-.403-12.379 10.172-9.86 17.6-20.257 15.304-10.399-2.296-27.052-2.025-33.04 6.392-5.988 8.418-5.088 12.605-9.05 8.418-3.96-4.187-5.132-7.158-1.845-15.846 3.286-8.688-5.086 12.379-4.771 17.106.314 4.727-6.302 11.03-7.967 2.657-1.666-8.373-4.907-12.696 5.176-22.689 10.084-9.992-5.176.136-12.514 9.454-7.337 9.318-8.282 19.716-8.282 19.716s-8.69-6.168-5.718-18.726c2.972-12.559 5.852-13.462 8.102-21.517 2.252-8.057-8.865 8.464-12.782 17.736s-10.039 8.779-9.588.63c.45-8.148-7.743-1.486-12.155 1.755-4.412 3.24-10.803 8.645-12.153-7.426-1.35-16.072-6.257-2.61-18.142-7.743-11.883-5.132-13.46-1.171-19.626-.856-6.167.315-22.689 11.841-32.996 19.447-10.307 7.607-12.108 34.526-12.108 34.526s14.72-4.773 21.157.675c6.437 5.447 10.082-3.647 23.632-3.647 16.127 0 8.193-3.06 18.456-5.266s17.287-.496 24.848 2.656c7.562 3.151 71.257-8.777 71.257-8.777l67.118-6.483 133.512 12.243 34.437 18.727zM224.553 405.43s-3.964-2.205-13.686.406c-9.722 2.61-15.575 3.87-20.166-4.008-4.592-7.875-8.507-6.57-5.266-13.097 3.24-6.527-8.96 1.98-8.014-5.627.947-7.608.495-7.834 8.688-13.956 8.194-6.121-9.317 5.177-13.143 11.704-3.827 6.528-8.374 13.236-2.026 21.023 6.348 7.788 15.755 9.633 13.595 14.675-2.161 5.041-2.657 10.756-10.354 12.782-7.697 2.027-7.878 10.443-15.71 5.807-7.833-4.635-12.11-2.835-16.026-8.192-3.915-5.356-2.386 4.814-9.003 4.68-6.616-.133-4.682 3.648-2.746 12.2 1.937 8.553 7.204 8.059 9.364 12.47 2.16 4.412.99 4.143-5.762 8.193s-9.994 9.948-16.79 13.01c-6.797 3.06-.36-10.221-3.87-19.943-3.512-9.722 2.79 14.81-9.949 16.655-12.74 1.845-13.955 4.367-18.547 15.71-4.592 11.344 11.929 12.92 11.929 12.92l89.804-34.076 48.21-48.345-10.532-14.99z" fill="#dcdcdc"/><path d="M96.891 429.558s23.856 9.947 36.551 2.07c12.696-7.877 18.547-14.764 17.152-29.438-1.395-14.675.541-15.666-4.411-21.158-4.953-5.491 11.387-6.347 13.008 8.868 1.622 15.216 10.982 9.41 10.128-2.926-.855-12.333-4.455-8.599.496-18.14 4.952-9.543 9.722-17.825 4.501-24.983-5.221-7.157-18.499-13.866-33.985-13.19-15.486.676-23.904 3.376-30.205 6.122-6.302 2.746 24.848-4.095 30.114 12.425 5.266 16.52 1.98 16.338-12.2 13.368-14.179-2.97-2.835 4.095 4.322 9.633 7.158 5.538 3.422 7.788-11.253 3.016-14.674-4.77-27.909 7.788-14.764 11.164 13.143 3.376 29.349 2.927 26.558 18.547-2.79 15.62 1.397 20.661-11.794 21.697-13.19 1.035-12.334 9.273-24.218 2.925zM205.06 322.784c-9.632 2.07-12.423 6.391-13.053 11.523-.63 5.133 12.785 2.928 14.81 11.075 2.025 8.147 10.083 15.26 10.083 15.26s2.7 4.772-5.717 1.98c-8.418-2.792-8.912-7.293-16.61-1.306-7.698 5.987-7.204 6.707 4.545 16.655 11.75 9.948 15.757 14.677 7.248 20.843-8.508 6.167-3.151 9.768-3.151 9.768l27.415-.226s6.346-18.86 3.69-28.178c-2.655-9.318-3.196-10.174-3.196-10.174s9.767-5.985 7.517-15.934c-2.249-9.95-3.736-18.636-16.79-25.029-13.053-6.392-7.158-8.327-16.79-6.257z" fill="#efefef"/><path d="M484.956 338.479s-11.297 3.457-18.409 5.078c-7.11 1.621-15.619 3.017-23.542 7.787-7.923 4.771-14.448 16.477-6.797 20.843 0 0-10.127-4.864-9.002-11.48 1.124-6.617 5.851-2.339 7.697-10.487 1.845-8.15 2.071-12.785 2.071-12.785s5.67-5.13 12.648-13.638c6.977-8.51 7.023-9.364 15.035-10.084 8.012-.72-10.577 9.635-4.14 13.73 6.436 4.095 4.68 5.31 13.638 4.23 8.958-1.08 16.701 1.982 15.845-4.951-.855-6.933 4.497 6.003-5.044 11.757z" fill="#dcdcdc"/><path d="M464.028 360.256s.45 11.029 10.848 17.512c10.398 6.483 15.575 9.14 22.912 7.248 7.338-1.891 6.615 1.666 2.25 5.986-4.366 4.322-7.293 6.754-14.855 8.688-7.561 1.935-11.749.63-20.796-.72-9.047-1.351-18.636.812-18.636.812l18.277-39.526z" fill="#d6d6d6"/><path d="M370.207 294.45c2.547-3.736-4.502 8.78-15.981 13.235-11.479 4.456 5.77 7.208 32.283-3.864 11.385-4.754 10.15 1.27 4.297 10.768-5.854 9.498-3.988 24.787 3.348 32.8 7.338 8.01 6.886 12.244 14.493 11.253 7.608-.991-.718-.856-4.365-4.682-3.646-3.826 6.84 1.35 14.27 2.926 7.427 1.574 12.604 4.098 2.656 10.309-9.948 6.21-49.65-1.35-56.178-10.67-6.528-9.317-52.352-17.6-52.352-17.6l-36.236 8.327-30.297 12.739 1.442-8.238s.586-.448 2.43-4.365c1.846-3.917 6.393-.181 4.412-6.168-1.98-5.986.45-9.767-6.483-17.645-6.93-7.878 10.984 5.672 9.59 15.575-1.396 9.903 3.466 10.85 8.867 5.762 5.4-5.088 10.63-3.084 12.11-8.418 1.8-6.482 4.632-6.932 7.02-23.812 1.717-12.131-.585 22.283 2.296 22.327 5.334.082 17.422-3.69 21.563-9.813 4.142-6.123 4.953-3.107 8.868-15.62 3.915-12.515 1.35 3.421-.676 9.228-2.025 5.807 4.413 4.232 10.624-1.8 6.21-6.033 12.829-6.797 20.661-9.814 7.832-3.016 16.027-4.952 21.338-12.74z" fill="#f5f5f5"/><path d="M162.236 476.2s18.965 40.99 29.949 56.536c10.983 15.546 36.672 53.48 60.319 62.182 23.647 8.7 60.44 8.402 68.422-.781 7.981-9.183 4.202-13.323 11.944-20.826 7.742-7.503 16.807-15.067 21.727-21.849 4.922-6.782 8.821-12.544 14.223-19.146 5.403-6.601 11.286-18.486 11.286-18.486l11.882-13.383s7.506 8.463 13.746.6c6.24-7.863 3.844-17.884 6.063-30.97 2.218-13.085 24.067-87.209 24.067-87.209l-10.203-19.625s-10.685 7.685-19.628 3.782c-8.943-3.904-17.767-11.103-21.367-22.387-3.6-11.285 2.223-25.689 6.603-33.01 4.38-7.324-4.024-5.642-13.925-.601-9.902 5.04-31.09 15.962-42.134 15.242-11.043-.719-13.203-.18-22.566 4.262-9.363 4.442-16.865 9.003-24.608 9.124-7.742.12-6.362.78-6.362.78s-4.619 3.543-14.044 8.943c-9.424 5.4-20.947 4.981-20.947 4.981l-6.843 10.084s.603.902-4.14 10.505c-4.744 9.602 2.521 9.662 0 17.644-2.523 7.982-8.524 9.724-8.524 9.724s.42 12.722-9.543 15.544c-9.964 2.821-27.188.06-27.188.06s-3.027 8.852-9.507 15.875c-6.48 7.023-6.75 9.463-18.463 16.295-6.35 3.703-12.303 2.343-15.364 8.764-3.061 6.421-8.283 8.763-8.283 8.763s-6.722 1.682-10.203 8.763c-3.481 7.08-7.283 7.91-15.725 12.723-59.93 34.174-82.432 51.304-82.432 51.304l78.065 75.532s68.95 62.765 96.197 90.073c27.246 27.309 18.544-48.795 45.493-107.134 0 0-26.646-15.125-43.633-38.532-16.986-23.408-31.21-54.857-44.354-84.147z" fill="#ebebeb"/><path d="M408.12 358.547s-9.768-2.07-13.686-11.028c-3.916-8.959-6.3-19.177.541-30.026 6.842-10.848 2.971 10.533 5.717 16.025 2.746 5.492 2.477-3.105 9.273-2.834 6.796.27 10.669 3.87 16.385 9.227 5.716 5.356 13.233 8.326 7.967 13.458-5.266 5.133 1.08-2.205-7.517-8.282-8.597-6.077 1.889 3.737.54 11.075-1.35 7.337-.316-4.097-9.634-8.329s-2.025 5.132 3.647 8.329c5.671 3.196-1.801-1.935-9.003 1.08" fill="#dcdcdc"/><path d="M412.98 389.818s4.456 12.964-3.24 18.05c-7.698 5.086-8.778 3.374-15.485 7.697-6.707 4.323-6.708-.046-14.406.315-7.696.361-7.696-6.257-14.539-4.14-6.843 2.114-20.213 9.363-30.835 3.421-10.623-5.942-15.395-20.529-24.263-24.939-8.868-4.41-15.755-1.844-19.716-9.002-3.961-7.157-1.846-20.618-11.299-22.373-9.453-1.754-9.633.675-17.78 3.961-8.147 3.288-7.878 5.807-11.884 13.73s-3.915 5.268-7.11 15.081c-3.197 9.812 4.32 6.213 4.455 14.495.135 8.281-6.302 13.772-14.045 25.026-7.743 11.255-29.574 28.494-30.7 43.844-1.126 15.35-1.665 41.368 19.131 68.063 20.796 26.693 26.74 7.607 42.72 10.533 15.978 2.925 38.485 19.041 46.814 28.36 8.328 9.317 10.263 11.208 10.263 11.208s-66.352 2.432-76.21-4.502c-9.858-6.932-47.038-44.563-55.097-56.357-8.057-11.796-21.609-38.399-25.704-50.327-4.095-11.929-9.362-29.35-9.362-29.35s17.42-4.41 25.163-17.915c7.743-13.505 10.714-16.79 10.714-16.79s25.837 6.616 32.23-5.268c6.392-11.884 4.817-10.578 4.817-10.578s9.318-2.52 8.102-10.712c-1.215-8.194-4.547-8.598-.54-15.711 4.005-7.113 5.041-12.154 5.041-12.154l6.617-7.788s14.764-1.347 25.343-8.687c10.58-7.339 10.489-7.427 10.489-7.427s8.597 4.413 21.067-3.106 12.738-9.992 22.191-10.533c9.454-.541 28.901-2.702 41.144-9.409 12.244-6.707.855 5.268-12.47 9.858-13.323 4.592-23.858 6.303-27.143 16.7-3.285 10.399-2.522.404 17.736 6.932 20.257 6.528 44.384 12.335 54.468 21.472 10.083 9.139 13.323 18.322 13.323 18.322z" fill="#e7e7e7"/><path d="M479.645 311.38s-1.155-8.533-14.659-12.313c-13.503-3.78-25.703-6.795-36.326-10.531-10.622-3.738-44.069-10.13-52.621-10.58-8.553-.45-39.073-.091-50.822 1.845-11.749 1.936-15.215 0-22.417.135-7.203.136-38.26 3.691-49.29 7.968-11.03 4.276-17.963 4.005-26.605 2.701-8.642-1.305-24.218-1.486-34.66-2.116-10.444-.63-10.398-2.565-18.456-4.5-8.057-1.936 28.269-1.668 41.729-6.034 13.458-4.365 48.479-9.452 65.09-13.638 16.611-4.186 68.242-8.012 89.174-9.768 20.932-1.757 58.653 3.737 88.723 16.746 0 0 19.761 10.08 20.797 23.946 1.035 13.864.343 16.14.343 16.14z" fill="#e4e4e4"/><path d="M253.863 594.164s-2.071 3.285-6.076 11.208c-4.006 7.923-4.186 7.293-4.186 7.293s-6.772 22.204-12.412 43.272c-2.003 7.487-9.061-5.638-15.784-18.994-2.995-5.95-2.413-37.376-10.742-40.978-8.328-3.602 12.423 2.655 10.713-4.097-1.71-6.752-4.653-6.946-11.54-19.372-6.887-12.425-27.457-31.539-29.258-36.625-1.8-5.087 2.654-1.306 6.662 1.08 4.007 2.386-17.091-43.113-21.952-69.669-1.45-7.922 37.858 73.9 48.346 89.475 9.245 13.73 33.627 35.156 46.23 37.407z" fill="#d6d6d6"/><path d="M294.639 346.289s33.356-1.125 70.311 9.003c17.898 4.904 36.82 9.993 45.149 24.487 8.329 14.495 12.243 29.079 5.042 47.22-7.202 18.141 3.85-6.555-1.666-28.988-5.988-24.354-16.79-25.659-28.404-31.15-11.614-5.492-39.162-12.47-59.643-16.522-20.482-4.05-22.011-3.51-30.79-4.05z" fill="#d3d3d3"/><path d="M346.369 480.727s-5.448 10.265 4.77 15.802c10.22 5.535 11.344 4.86 14.225 10.172 2.881 5.311 2.612 9.092-2.475 10.848-5.088 1.756-3.107-.18-9.859-.45-6.752-.271-15.486 1.799-23.498.18-8.012-1.62-8.192-2.972-15.8-2.747-7.607.226-1.756 2.297-5.446 6.754-3.691 4.456-9.725 6.976-2.296 7.741 7.428.765 11.567 4.367 14.99 9.588 3.421 5.222 6.798 5.582 5.762 10.399-1.036 4.817-4.142 2.971-11.164-.18-7.022-3.152-9.948-6.255-16.204-3.105-6.258 3.15.718 11.434 10.487 10.127 9.768-1.306 14.99 1.036 19.762 5.672 4.771 4.636 9.183 1.934 6.707 6.302-2.475 4.367-.857-4.276 5.896-8.868 6.753-4.592 9.95-9.047 9.95-9.047l8.37-15.89s11.164-.766 14.63-12.065c3.468-11.298 10.175-23.902 10.175-23.902s.719-14.946-12.334-11.66c-13.054 3.288-14.316 10.849-19.537 5.177-5.221-5.67-7.111-10.848-7.111-10.848z" fill="#ddd"/><path d="M325.797 585.206s-1.262 7.294-10.805 4.637c-9.542-2.657-16.204-12.514-25.837-17.826-9.634-5.312-26.56-10.128-38.579-9.453-12.017.674-9.364 9.272-6.256 15.62 3.107 6.347-2.972 3.646-8.238-3.377-5.266-7.022-11.793-8.104-18.186-14-6.392-5.896-30.744-36.909-38.217-49.154-7.473-12.245 16.702 30.88 30.926 49.38 14.224 18.501 32.906 31.6 48.12 35.966 15.214 4.367 42.177 7.833 53.386 2.342 11.21-5.492 10.536-6.483 13.686-14.135z" fill="#dedede"/><path d="M202.565 689.944c-2.73.426-6.7 5.604-4.368 10.155 2.333 4.552 12.762 12.373 19.807 15.508 7.045 3.133 18.823 4.164 23.854 5.146 5.033.983 25.184 5.238 29.986 6.13 4.803.891 7.525 2.652 12.58 3.864 5.054 1.213 20.584 3.249 27.515 6.976 6.93 3.728 40.3 12.604 51.942 13.632 11.642 1.03 36.817-.645 46.584.11 9.766.754 22.528-1.67 26.393-4.003 3.866-2.333 2.31-2.128 5.97-1.601 3.66.526 9.034-.046 9.034-.046s10.304 16.967 17.05 22.982c6.748 6.015 12.901 17.36 16.88 25.297 3.98 7.936 18.252 31.596 18.252 31.596l45.879-128.286s-21.774-21.73-27.973-27.563c-6.199-5.832-24.488-18.838-36.863-23.617-12.374-4.78-25.647-6.71-33.332-7.28-7.685-.573-31.197-2.198-38.013-2.243-6.816-.045-21.408-.869-29.208-.342-7.8.526-28.894-.543-38.546.395-9.651.937-27.72 1.738-38.721 1.257-11.003-.48-10.665-1.85-15.446-3.656-4.78-1.807-15.164-10.224-19.83-11.3-4.666-1.075-10.75-4.298-15.964-5.556-5.215-1.26-10.155-3.843-13.655-4.575-3.499-.732-12.825-1.904-18.222-2.339-5.397-.434-24.495-3.614-31.15-4.254-6.657-.64-15.211-2.127-22.85-3.5-7.64-1.372-10.91-.503-10.91-.503s-8.325-3.132-13.106-1.76c-4.78 1.371-6.77 5.077-6.129 10.383.64 5.306 4.803 9.126 10.132 11.116 5.329 1.99 18.71 6.793 18.71 6.793s-2.539 2.15-6.45 3.156c-3.912 1.006-8.67-.275-12.946.412-4.277.685-5.605 1.601-5.605 1.601s-3.956-.64-10.2-2.127c-4.162-.991-7.434 2.47-7.914 7.364-.48 4.895 2.401 9.195 7.799 12.626 5.399 3.43 10.385 5.718 14.319 6.747 3.934 1.029 9.056 2.905 13.06 4.757 4.002 1.853 25.022 8.349 32.067 10.224 7.043 1.875 27.65 6.61 32.568 9.72 4.919 3.11 21.455 9.744 21.455 9.744s-4.413.298-9.79.686c-5.375.39-12.464-.388-16.376-.914-3.911-.527-10.464-4.13-18.27-2.912z" fill="#e8e8e8"/><path d="M205.572 689.443c2.773-.544-3.705 3.088-1.326 6.976 2.378 3.889 10.2 9.583 13.837 10.064 3.637.48 1.647 3.957 5.718 5.764 4.07 1.806 20.745 5.19 30.42 5.237 9.674.047 12.556 3.065 19.509 4.757 6.954 1.693 26.257-1.623 34.217 3.5 7.96 5.123 33.258 3.394 43.093 5.087 9.836 1.693 26.773 11.789 39.398 14.26 12.626 2.47 34.606 3.064 38.242 1.806 3.637-1.257-10.086.137-9.766-4.094.32-4.231 8.211-3.888 14.203-2.126 5.993 1.76 8.28 2.653 15.462 1.348 7.182-1.304 7.113-1.555 10.933 3.18 3.82 4.734 1.25 11.413 4.94 15.736 3.69 4.323-6.35-5.741-9.85-10.704-3.5-4.964-5.168-4.757-9.994-4.85-4.827-.091-4.713-1.829-9.104 1.51-4.39 3.34-17.886 3.98-30.489 3.66-12.601-.32-25.913 1.487-34.672 1.281-8.76-.206-34.423-5.786-44.35-8.531-9.926-2.745-14.318-7.48-22.323-8.371-8.005-.893-19.67-2.86-25.457-4.872-5.785-2.013-3.178-2.15-9.216-3.293-6.039-1.145-19-3.518-29.109-5.83-10.11-2.31-22.917-6.631-29.893-9.4-6.977-2.767-14.746-11.017-11.506-17.45 1.625-3.225 2.66-3.776 7.083-4.645zM133.646 631.902s-3.926 2.79-3.742 7.18c.183 4.392 4.369 10.475 8.188 12.008 3.82 1.533 7.937 2.95 10.361 3.957 2.425 1.006 9.583 3.088 14.5 4.757 4.918 1.67 21.89 2.562 31.473 3.34 9.583.777 39.339 7.205 46.75 11.322 7.41 4.116 18.38 10.005 26.04 11.582 7.662 1.578 10.087 4.072 15.576 5.033 5.489.96 10.659.388 16.33 2.561 5.673 2.173 8.258-.412 4.507-2.722-3.752-2.31 8.303 2.836 11.618 5.444 0 0 1.167 1.899-4.802 1.76-5.97-.136-7.938-.938-13.221-2.447-5.283-1.508-2.539-3.018-8.462-2.675-5.924.342-28.431-.023-34.149.205-5.717.229-7.433.229-7.433.229s-11.893-5.351-16.399-7.09c-4.506-1.739-5.535-3.568-9.675-5.101-4.14-1.532-18.069-4.346-24.45-6.176-6.381-1.829-22.985-6.357-29.687-8.896-6.702-2.54-15.187-5.878-20.151-7.754-4.963-1.875-13.654-6.838-17.085-10.178-3.43-3.34-4.895-5.42-3.408-9.835 1.486-4.415.988-5.254 7.32-6.504zM144.912 601.495s-5.329 2.402-4.917 6.542c.412 4.14 1.052 8.897 10.955 13.631 9.904 4.735 17.407 7.662 17.407 7.662s3.727-1.372 8.279-2.63c4.044-1.117 7.89-1.19 14.89-1.258 6.998-.07 18.754.206 22.917.137 4.163-.069-11.711-.183-15.736-2.928-4.025-2.744-14.295-2.173-20.058-2.195-5.764-.023-10.66 1.167-17.68-.549-7.022-1.715-12.215-1.623-14.113-6.152-1.898-4.53.985-.572 4.14.091 3.156.663-4.986-1.944-5.764-5.49-.777-3.545-3.11-4.3-.32-6.86zM223.134 626.037c-3.703-.25 7.593 1.189 12.122 2.264 4.53 1.075 10.065 1.052 14.455 2.699 4.392 1.647 15.257 5.192 24.908 10.132 9.652 4.94 16.606 5.329 19.945 4.025 3.34-1.303 5.717-3.978.731-4.711-4.986-.732-8.92-.321-16.559-1.808-7.64-1.486-16.468-6.06-21.592-8.92-5.123-2.858-11.71-3.52-15.987-3.75-4.277-.229-10.2.595-18.023.069zM336.434 684.757s-7.663.847-13.7-.182c-6.04-1.029-8.463-1.761-10.796-4.071-2.333-2.31-.572-1.007 3.087-1.098 3.66-.092-1.737-1.807 2.951-2.516 4.689-.709 13.495-1.738 17.794.595 4.3 2.333 6.176 5.465.664 7.272zM334.512 661.908s-8.486.527-14.57-.64c-6.083-1.166-7.707.07-7.456-3.408.252-3.476-3.5-2.676-.115-4.003 3.386-1.326 5.788.938 10.98.71 5.191-.229 13.631-1.258 13.608 2.905-.023 4.162 5.01 4.094-2.447 4.436zM143.846 634.029s3.753 2.825 8.328 4.082c4.574 1.259 12.305 1.762 15.713 3.272 3.408 1.509 5.672 1.417 8.737 2.012 3.065.595 9.858.183 15.21-.298 5.352-.48 23.443.505 28.955.779 5.512.275 18.093.068 22.965.343 4.87.274 10.178 1.052 16.239 3.866 6.06 2.812 14.249 7.684 20.08 10.566 5.833 2.882 11.003 2.242 14.067 3.866 3.064 1.623 6.7.89 3.476-2.814-3.224-3.705-7.547-3.087-13.951-5.398-6.405-2.31-19.42-8.006-24.222-9.904-4.803-1.897-15.324-3.887-22.849-4.23-7.525-.344-20.654-.755-27.31-2.242-6.655-1.487-19.234-1.784-26.348-1.235-7.113.55-7.02 2.333-12.167 1.487-5.147-.847-12.603-1.35-12.603-1.35s-.869.275-2.676-1.852c-1.806-2.128 2.332 2.263-1.052 1.6-3.385-.663-6.727-.55-10.592-2.55z" fill="#dbdbdb"/><path d="M129.24 648.46s-3.476-2.813-3.476-6.747c0-3.934 2.035-7.685 2.035-7.685s-1.943-.823-6.494-1.442c-4.553-.617-11.048-.206-13.839 2.265-2.79 2.47-2.972 4.712 1.876 7.73 4.85 3.02 7.707 3.775 12.03 4.598 4.323.823 7.869 1.281 7.869 1.281z" fill="#dbdbdb"/><path d="M374.196 525.302s-5.56 4.393-7.828 1.26c-2.269-3.133-1.095-7.273-6.857-7.38-5.762-.11 1.725.085 5.398-2.004 3.673-2.088 2.399-5.273 4.487-10.025 1.434-3.265-.395 6.639-1.732 10.9-1.143 3.647 2.662 8.56 6.617 2.47.735-1.133-.085 4.779-.085 4.779z" fill="#d0d0d0"/><path d="M314.8 523.393s13.829-3.24 26.829-4.177c13-.937 19.699-1.982 22.723 1.764 3.024 3.746 1.33 7.67 6.156 5.04 4.826-2.627 3.747-2.123 4.034.326.289 2.448-3.386 6.446-7.634 8.139-4.249 1.692-6.986 1.798-7.238 5.11-.252 3.313 1.112 5.729-3.854 9.851-3.353 2.783-13.43 2.072-24.054-4.95-11.065-7.311-12.856-10.841-15.413-14.946-2.557-4.104-8.356-5.077-1.55-6.157z" fill="#e7e7e7"/><path d="M359.778 537.15s-1.153-3.098-7.31-3.494c-6.159-.395-12.388-4.357-16.17-7.058-3.78-2.7-10.624-4.61-16.817-3.673-6.193.936-9.436-.394-6.807 2.63 2.63 3.024 4.81 5.348 4.81 5.348s-4.447-5.453 6.283-4.716c6.972.479 11.414 2.609 17.716 7.29 6.303 4.68 8.93 4.067 12.64 3.599 4.339-.548 4.719-.358 5.655.074z" fill="#cecece"/><path d="M422.399 420.785s-1.729 11.164-2.593 17.681c-.864 6.518-3.422 20.922-4.826 30.574-1.404 9.65-.286 15.809-1.656 22.398-1.37 6.59-6.986 13.146-12.82 14.586-5.834 1.44-8.897-.614-12.389-.901 0 0-5.258 6.626-7.815 11.092-2.556 4.466-6.193 10.48-6.193 10.48s-1.19-12.246 1.656-16.927c2.846-4.681 3.494-5.798 12.208-5.942 8.715-.144 14.298 3.71 17.035-2.303 2.736-6.014 1.944-10.338-5.15-14.515-7.094-4.177-12.095-3.673-12.928-6.949-.56-2.197 3.852 1.512 14.367-1.8 6.244-1.968 6.752-9.286 8.969-24.992 2.845-20.168 5.258-26.361 7.562-35.256 2.303-8.895 2.303-21.788-1.37-28.593s3.747.11.65-4.213c-3.099-4.322-3.493-1.44-8.788-8.751-5.294-7.31-8.174-7.31-4.14-9.291 4.032-1.98 4.896 4.645 11.738 1.224 6.843-3.42 7.744-8.93 12.316-1.62 4.574 7.31 8.644 8.932 16.278 4.61 7.633-4.322 13.81-5.72 14.027-14.904.216-9.184 1.765-12.1 6.266-13.18 4.502-1.08 4.285 3.71 1.729 10.263-2.557 6.554-14.73 39.686-17.214 44.87-2.485 5.186-26.92 22.359-26.92 22.359z" fill="#e2e2e2"/><path d="M357.185 498.257s-10.55-2.738-11.775-9.147c-1.226-6.41.575-16.35 6.697-20.167s-4.32 6.987-.54 11.417c3.781 4.428 3.745 10.478 11.307 6.625 7.563-3.853 10.41-1.873 16.89-.576 6.483 1.296-.575-4.97 5.15-3.817 5.726 1.153 11.955 4.466 14.333 8.534 2.377 4.07 3.313-1.944 5.51 2.593 2.195 4.538 4.25 10.012-2.63 11.74-6.878 1.729-11.055.72-18.006-1.332-6.95-2.052-3.24-4.86-3.24-4.86s7.958 3.059 7.094-2.63c-.864-5.69-6.7-9.147-14.838-8.067-8.137 1.08-14.115 2.486-12.387 6.194 1.728 3.709 2.377 3.78-3.565 3.493z" fill="#d0d0d0"/><path d="M360.75 494.764s1.981-5.439 9.832-2.63c7.85 2.81 9.29 2.524 9.435 7.132.143 4.608 9.903 1.37 7.958-3.673-1.944-5.042-5.223-9.543-14.838-8.284-9.614 1.26-10.298 2.09-12.387 7.455z" fill="#a4a4a4"/><path d="M456.19 399.784c1.49-4.018-5.547-1.765-10.445-1.333-4.897.434-16.564 4.9-21.174 13.65-4.61 8.75-5.545 19.195-6.482 27.584-.937 8.39-.18-9.326 5.545-18.941 5.727-9.616 18.295-8.967 22.94-11.849 4.646-2.88 7.6-3.674 9.615-9.111z" fill="#b9b9b9"/><path d="M451.328 405.33s-7.599-2.593-12.713-1.73c-5.113.865-11.125 7.67-14.223 13.577-3.098 5.907-4.358 14.657-4.61 18.295-.252 3.637 1.549-10.155 10.371-13.937 8.823-3.781 9.976-4.105 13.937-8.03 3.96-3.926 7.238-8.176 7.238-8.176z" fill="#c1c1c1"/><path d="M370.03 408.034s2.1.24 3.21-5.161c1.111-5.402 3.812-5.01 5.163-1.17 1.35 3.84-1.351 7.23 2.34 6.991 3.691-.24 4.231-4.47 11.043-.81 6.812 3.661 11.765-5.37 11.074-14.014-.69-8.643 1.77-8.313-2.49-13.295-4.262-4.981-30.7-17.134-43.784-20.495-13.085-3.362 8.222 4.11 10.563 11.342 2.34 7.233-2.252-1.59-8.854-.99-6.6.6-14.223-1.53-21.965-4.411-7.744-2.881-20.468-4.983-21.848-10.354-1.38-5.37-8.493-3.45-16.835-4.5-8.343-1.05-11.134 6.6-10.234 14.074.9 7.472 6.753 15.304 12.394 18.005 5.641 2.701 12.274 2.19 15.756 8.252 3.48 6.063 11.284 21.517 26.077 21.668 14.795.15 16.716-2.13 16.716-2.13s-20.287-6.994-10.053-7.353c10.234-.36 8.793 3.87 15.245 4.681 6.452.81 6.482-.33 6.482-.33z" fill="#dbdbdb"/><path d="M367.967 378.151s-3.319-2.38-8.335-2.007c-5.017.372-12.655.615-16.976 1.1-4.321.486-14.436.275-18.983 1.311-4.547 1.036-11.134 2.12-13.934 1.732-2.8-.389 5.358-5.81 9.888-7.315 4.532-1.505 16.167.307 22.527-.34 6.36-.647 15.6 1.813 20.213 1.894 4.612.08 3.48.437 5.6 3.625z" fill="#f2f2f2" fill-opacity=".36"/><path d="M373.825 398.477s-.615-3.56-1.716-5.357c-1.1-1.796-1.538-6.943-2.104-9.451-.566-2.508-2.59-5.453-7.152-6.877-4.564-1.425-26.137-3.075-26.137-3.075l-25.78 4.515-1.569 1.812s-3.851.05-1.99-2.33c1.862-2.379 4.645-3.269 7.412-5.05 2.767-1.78 8.237-2.2 16.458-2.152 8.221.05 15.18.615 19.905.551 4.726-.065 13.74 1.44 17.623 3.884 3.885 2.443 8.512 12.509 9.338 15.956.825 3.447 1.86 7.508 1.295 9.775-.566 2.266-1.069.777-1.538-3.528-.47-4.304-.825-7.137-2.945-10.859-2.12-3.722-2.427-.437-1.602 2.557.825 2.993.68 6.28.502 9.629z" fill="#d4d4d4"/><path d="M358.612 410.436s-7.815.76-12.638-.858c-4.823-1.618-9.646-3.981-12.591-7.962-2.945-3.98-2.104-.29-.486 1.91 1.619 2.2-4.434-1.182-5.567-5.211-1.133-4.03-2.735-5.794-5.437-7.493-2.702-1.699-2.912-4.419-1.279-6.716 1.634-2.297-7.703-2.104-10.616-.113-2.912 1.99 1.813 1.36 4.888 3.803 3.075 2.444 6.78 7.105 8.82 11.863 2.039 4.756 3.85 8.543 8.043 10.308 4.191 1.764 2.573-1.198 6.117.178s15.681 1.99 22.219.08" fill="#d4d4d4"/><path d="M363.208 406.196s2.59 2.493 6.005.631c3.414-1.86 2.653-4.709 1.245-7.493-1.407-2.783-3.9-8.026-4.79-12.023-.89-3.998-3.188-8.756-10.098-10.132-6.91-1.374-23.222.098-28.741.956-5.519.858-16.361 2.265-16.361 2.265s12.008-.792 13.933-.177c1.927.615-1.666-.13-1.068 3.203.6 3.334 4.127 5.164 7.363 8.432 3.237 3.27 9.653 8.779 13.238 10.374 5.454 2.426 12.105 2.298 19.145 4.062 3.118.781-7.396-4.143-11.781-4.646-4.387-.501-9.969-.452-10.018-5.26-.049-4.805 13.125-9.013 13.125-9.013l8.803 18.821z" fill="#c7c7c7"/><path d="M364.605 406.339c-3.345-1.324-4.812-2.108-8.095-2.56-5.82-.8-9.018-2.346-13.498-4.595-4.135-2.076-11.227-7.528-14.245-10.196-4.362-3.857-5.276-5.031-4.215-7.062 1.043-1.993 4.03-1.661 11.268-2.863 5.18-.861 20.169-1.602 24.085.409 3.916 2.01 5.378 5.51 5.9 9.896.523 4.386.196 7.054 2.025 10.573 1.696 3.265 2.65 8.72-3.225 6.398z" fill="#ebebeb"/><path d="M324.401 384.01s2.12 4.029 6.91 8.43c4.791 4.402 10.617 8.804 15.18 9.872 4.564 1.068 9.694 1.586 13.238 2.849 3.544 1.262 5.437 2.685 7.137 1.068 1.7-1.619.825-4.564-2.573-6.377-3.4-1.812-7.768.017-11.588.842-3.818.826-9.644-1.49-14.564-4.855-4.92-3.366-11.7-8.14-13.74-11.83z" fill="#f2f2f2"/><path d="M348.061 378.134s9 .205 10.713 5.503c1.7 5.26 2.752 11.781-3.932 13.852-6.684 2.073-9.403.955-13.82-1.375-4.419-2.33.194 2.945 3.98 4.127 3.788 1.181 8.707 2.314 12.494 3.48 3.786 1.164 6.052 2.669 8.48 3.041 2.427.373-4.127-1.423-3.997-5.08.129-3.658.663-1.246 2.022-6.312 1.36-5.066 1.845-12.067-3.527-15.39-4.16-2.574-9.742-1.878-12.413-1.846z" fill="#d7d7d7"/><path d="M364.907 386.906s1.053 8.221 1.036 10.406c-.016 2.184-2.152 1.813-.502 2.945 1.652 1.132 3.852 2.25 3.124 4.547-.728 2.299-1.052 1.684-3.188.357s2.12.42.955-2.056c-1.166-2.476-.923-1.278-2.962-2.136-2.039-.858-1.197-1.003.162-4.143 1.36-3.139 1.65-6.085 1.375-9.92z" fill="#dedede"/></svg>