<?xml version="1.0" encoding="UTF-8" standalone="no"?>
<!DOCTYPE svg PUBLIC "-//W3C//DTD SVG 1.1//EN" "http://www.w3.org/Graphics/SVG/1.1/DTD/svg11.dtd">
<svg width="100%" height="100%" viewBox="0 0 2481 2481" version="1.1" xmlns="http://www.w3.org/2000/svg" xmlns:xlink="http://www.w3.org/1999/xlink" xml:space="preserve" xmlns:serif="http://www.serif.com/" style="fill-rule:evenodd;clip-rule:evenodd;stroke-linecap:round;stroke-linejoin:round;stroke-miterlimit:1.5;">
    <g transform="matrix(1,0,0,1,3.21107,6.06353)">
        <g transform="matrix(2.49175,0,0,2.49175,-1764.78,-1769.07)">
            <g transform="matrix(3.06708,0,0,3.06708,-3115.3,640.941)">
                <g transform="matrix(1.58129,0.0469608,-0.0469608,1.58129,970.516,-244.054)">
                    <circle cx="284.556" cy="262.173" r="97.042" style="fill:white;stroke:rgb(27,117,213);stroke-width:9.45px;"/>
                </g>
                <g transform="matrix(0.435804,-1.2329,1.2329,0.435804,960.926,420.453)">
                    <circle cx="284.556" cy="262.173" r="97.042" style="fill:rgb(33,48,149);"/>
                </g>
                <g transform="matrix(0.358358,0,0,0.360418,975.587,-247.72)">
                    <path d="M984.169,1095.02L1017.48,1094.41L990.781,1114.24L1001.45,1145.86L974.409,1126.35L947.369,1145.86L958.036,1114.24L931.336,1094.41L963.914,1095L974.039,1063.42L984.169,1095.02Z" style="fill:rgb(245,204,35);"/>
                </g>
                <g transform="matrix(0.358358,0,0,0.360418,971.135,-198.738)">
                    <path d="M984.169,1095.02L1017.48,1094.41L990.781,1114.24L1001.45,1145.86L974.409,1126.35L947.369,1145.86L958.036,1114.24L931.336,1094.41L963.914,1095L974.039,1063.42L984.169,1095.02Z" style="fill:rgb(245,204,35);"/>
                </g>
                <g transform="matrix(0.358358,0,0,0.360418,992.174,-154.648)">
                    <path d="M984.169,1095.02L1017.48,1094.41L990.781,1114.24L1001.45,1145.86L974.409,1126.35L947.369,1145.86L958.036,1114.24L931.336,1094.41L963.914,1095L974.039,1063.42L984.169,1095.02Z" style="fill:rgb(245,204,35);"/>
                </g>
                <g transform="matrix(0.358358,0,0,0.360418,1032.43,-127.209)">
                    <path d="M984.169,1095.02L1017.48,1094.41L990.781,1114.24L1001.45,1145.86L974.409,1126.35L947.369,1145.86L958.036,1114.24L931.336,1094.41L963.914,1095L974.039,1063.42L984.169,1095.02Z" style="fill:rgb(245,204,35);"/>
                </g>
                <g transform="matrix(0.358358,0,0,0.360418,1002.64,-288.138)">
                    <path d="M984.169,1095.02L1017.48,1094.41L990.781,1114.24L1001.45,1145.86L974.409,1126.35L947.369,1145.86L958.036,1114.24L931.336,1094.41L963.914,1095L974.039,1063.42L984.169,1095.02Z" style="fill:rgb(245,204,35);"/>
                </g>
                <g transform="matrix(0.358358,0,0,0.360418,1046.52,-308.662)">
                    <path d="M984.169,1095.02L1017.48,1094.41L990.781,1114.24L1001.45,1145.86L974.409,1126.35L947.369,1145.86L958.036,1114.24L931.336,1094.41L963.914,1095L974.039,1063.42L984.169,1095.02Z" style="fill:rgb(245,204,35);"/>
                </g>
                <g transform="matrix(0.358358,0,0,0.360418,1094.64,-305.369)">
                    <path d="M984.169,1095.02L1017.48,1094.41L990.781,1114.24L1001.45,1145.86L974.409,1126.35L947.369,1145.86L958.036,1114.24L931.336,1094.41L963.914,1095L974.039,1063.42L984.169,1095.02Z" style="fill:rgb(245,204,35);"/>
                </g>
                <g transform="matrix(0.435804,-1.2329,1.2329,0.435804,960.926,420.453)">
                    <clipPath id="_clip1">
                        <path d="M445.876,361.039L446.017,261.341L99.787,260.849L99.645,360.548L445.876,361.039Z"/>
                    </clipPath>
                    <g clip-path="url(#_clip1)">
                        <circle cx="284.556" cy="262.173" r="97.042" style="fill:rgb(246,246,246);"/>
                    </g>
                </g>
            </g>
            <g transform="matrix(0.970236,-2.74481,2.74481,0.970236,1359.5,1451.25)">
                <g transform="matrix(62.5,0,0,62.5,0,0)">
                    <path d="M0.246,-0.594L0.221,-0.414L0.457,-0.414L0.442,-0.308L0.206,-0.308L0.178,-0.106L0.473,-0.106C0.468,-0.066 0.46,-0.038 0.451,-0.023C0.442,-0.008 0.427,0 0.406,0L0.009,0L0.107,-0.7L0.545,-0.7L0.53,-0.594L0.246,-0.594Z" style="fill:rgb(66,84,98);fill-rule:nonzero;"/>
                </g>
                <g transform="matrix(62.5,0,0,62.5,35,0)">
                    <path d="M0.297,0.009C0.215,0.009 0.153,-0.008 0.112,-0.043C0.071,-0.077 0.05,-0.128 0.05,-0.195C0.05,-0.215 0.051,-0.234 0.054,-0.252L0.117,-0.7L0.271,-0.7L0.205,-0.23C0.204,-0.218 0.203,-0.209 0.203,-0.203C0.203,-0.17 0.212,-0.144 0.231,-0.127C0.25,-0.11 0.277,-0.101 0.313,-0.101C0.396,-0.101 0.444,-0.144 0.456,-0.23L0.522,-0.7L0.676,-0.7L0.613,-0.252C0.601,-0.164 0.569,-0.098 0.517,-0.056C0.464,-0.012 0.391,0.009 0.297,0.009Z" style="fill:rgb(66,84,98);fill-rule:nonzero;"/>
                </g>
                <g transform="matrix(62.5,0,0,62.5,79.4375,0)">
                    <path d="M0.454,-0.298C0.467,-0.281 0.479,-0.258 0.489,-0.23L0.56,-0.013C0.553,-0.007 0.54,-0.002 0.523,0.002C0.506,0.006 0.488,0.008 0.47,0.008C0.447,0.008 0.429,0.005 0.418,-0.001C0.407,-0.007 0.399,-0.017 0.395,-0.032L0.345,-0.198C0.337,-0.223 0.327,-0.239 0.316,-0.248C0.304,-0.257 0.286,-0.261 0.261,-0.261L0.209,-0.261L0.173,0L0.019,0L0.117,-0.7L0.355,-0.7C0.436,-0.7 0.498,-0.684 0.541,-0.653C0.584,-0.622 0.605,-0.576 0.605,-0.517C0.605,-0.465 0.592,-0.42 0.566,-0.383C0.54,-0.346 0.503,-0.317 0.454,-0.298ZM0.299,-0.369C0.35,-0.369 0.388,-0.38 0.412,-0.403C0.436,-0.425 0.448,-0.46 0.448,-0.507C0.448,-0.536 0.439,-0.558 0.42,-0.572C0.401,-0.585 0.371,-0.592 0.33,-0.592L0.256,-0.592L0.225,-0.369L0.299,-0.369Z" style="fill:rgb(66,84,98);fill-rule:nonzero;"/>
                </g>
            </g>
        </g>
        <g transform="matrix(3.33058,-9.4223,9.4223,3.33058,-2183.56,3041.27)">
            <circle cx="284.556" cy="262.173" r="97.042" style="fill:none;stroke:white;stroke-width:0.85px;stroke-linecap:butt;stroke-miterlimit:2;"/>
        </g>
    </g>
</svg>
