<svg xmlns="http://www.w3.org/2000/svg" xmlns:xlink="http://www.w3.org/1999/xlink" width="145" height="145" viewBox="0 0 145 145">
  <defs>
    <clipPath id="clip-path">
      <circle id="Ellipse_244" data-name="Ellipse 244" cx="60.5" cy="60.5" r="60.5" fill="#fff"/>
    </clipPath>
  </defs>
  <g id="jAUD" transform="translate(23625 -2175)">
    <g id="Group_4300" data-name="Group 4300" transform="translate(-23625 2175)">
      <circle id="Ellipse_73" data-name="Ellipse 73" cx="72.368" cy="72.368" r="72.368" transform="translate(0 0)" fill="#fff"/>
      <path id="Ellipse_73_-_Outline" data-name="Ellipse 73 - Outline" d="M72.5,6.042a66.458,66.458,0,1,0,46.993,19.465A66.458,66.458,0,0,0,72.5,6.042M72.5,0A72.5,72.5,0,1,1,0,72.5,72.5,72.5,0,0,1,72.5,0Z" transform="translate(0 0)" fill="#012169"/>
    </g>
    <g id="Mask_Group_40" data-name="Mask Group 40" transform="translate(-23613 2187)" clip-path="url(#clip-path)">
      <g id="g602" transform="translate(-33.5 -4.889)">
        <rect id="rect124" width="251.777" height="125.889" fill="#006"/>
        <g id="g584">
          <path id="path146" d="M0,0V7.037L111.814,62.945h14.074V55.907L14.074,0H0ZM125.889,0V7.037L14.074,62.944H0V55.907L111.814,0Z" fill="#fff"/>
          <path id="path136" d="M52.454,0V62.944H73.435V0ZM0,20.981V41.963H125.889V20.981Z" fill="#fff"/>
          <path id="path141" d="M0,25.178V37.767H125.889V25.178ZM56.65,0V62.944H69.239V0Z" fill="#c00"/>
          <path id="path150" d="M0,62.944,41.963,41.963h9.383L9.383,62.944ZM0,0,41.963,20.981H32.58L0,4.692V0ZM74.543,20.981,116.506,0h9.383L83.926,20.981Zm51.346,41.963L83.926,41.963h9.383l32.58,16.29Z" fill="#c00"/>
        </g>
        <path id="polygon589" d="M39.812,36.3l3.642,11.322,11.12-4.211-6.58,9.905,10.226,6.07-11.848,1.03L48.005,72.2l-8.193-8.621L31.619,72.2l1.632-11.781L21.4,59.386l10.226-6.07-6.58-9.905,11.12,4.211Z" transform="translate(23.132 39.233)" fill="#fff" fill-rule="evenodd"/>
        <g id="g596" transform="translate(155.595 11.989)">
          <path id="polygon590" d="M95.3,46.095l1.733,5.392,5.3-2.006L99.2,54.2l4.87,2.891-5.642.491.778,5.608-3.9-4.1-3.9,4.1.778-5.608-5.642-.491,4.87-2.891-3.135-4.717,5.3,2.006Z" transform="translate(-62.065 37.83)" fill="#fff" fill-rule="evenodd"/>
          <path id="polygon592" d="M95.3,5.762l1.733,5.391,5.3-2.006L99.2,13.865l4.87,2.891-5.642.491.778,5.608-3.9-4.1-3.9,4.1.778-5.608-5.642-.491,4.87-2.891L88.272,9.147l5.3,2.006Z" transform="translate(-62.065 -5.762)" fill="#fff" fill-rule="evenodd"/>
          <path id="polygon593" d="M80.178,22.147l1.733,5.392,5.3-2.006L84.074,30.25l4.87,2.891-5.642.491.778,5.608-3.9-4.1-3.9,4.1.778-5.608-5.642-.491,4.87-2.891-3.135-4.717,5.3,2.006Z" transform="translate(-71.412 11.947)" fill="#fff" fill-rule="evenodd"/>
          <path id="polygon594" d="M108.741,18.114l1.741,5.392L115.77,21.5l-3.126,4.717,4.868,2.891-5.644.491.776,5.608-3.9-4.1-3.9,4.1.776-5.608-5.634-.491,4.878-2.891L101.719,21.5l5.3,2.006Z" transform="translate(-47.535 7.588)" fill="#fff" fill-rule="evenodd"/>
          <path id="polygon595" d="M99.392,30.25l1.37,3.359,3.619.266-2.772,2.339.867,3.523-3.084-1.911-3.084,1.911.867-3.523L94.4,33.876l3.619-.266Z" transform="translate(-53.565 20.705)" fill="#fff" fill-rule="evenodd"/>
        </g>
      </g>
    </g>
  </g>
</svg>
