<?xml version="1.0" encoding="UTF-8" standalone="no"?>
<!DOCTYPE svg PUBLIC "-//W3C//DTD SVG 1.1//EN" "http://www.w3.org/Graphics/SVG/1.1/DTD/svg11.dtd">
<svg width="100%" height="100%" viewBox="0 0 2481 2481" version="1.1" xmlns="http://www.w3.org/2000/svg" xmlns:xlink="http://www.w3.org/1999/xlink" xml:space="preserve" xmlns:serif="http://www.serif.com/" style="fill-rule:evenodd;clip-rule:evenodd;stroke-linecap:round;stroke-linejoin:round;stroke-miterlimit:1.5;">
    <g>
        <g transform="matrix(2.49175,0,0,2.49175,-1764.78,-1769.07)">
            <g transform="matrix(3.06708,0,0,3.06708,-3115.3,640.941)">
                <g transform="matrix(1.58129,0.0469608,-0.0469608,1.58129,970.516,-244.054)">
                    <circle cx="284.556" cy="262.173" r="97.042" style="fill:white;stroke:rgb(27,117,213);stroke-width:9.45px;"/>
                </g>
                <g transform="matrix(0.435804,-1.2329,1.2329,0.435804,960.926,420.453)">
                    <circle cx="284.556" cy="262.173" r="97.042" style="fill:rgb(216,0,39);"/>
                </g>
                <g transform="matrix(0.130849,0,0,0.130849,1246.64,22.5063)">
                    <rect x="983.806" y="600.112" width="419.708" height="1261.18" style="fill:white;"/>
                </g>
                <g transform="matrix(8.0122e-18,-0.130849,0.130849,8.0122e-18,1242.1,339.732)">
                    <rect x="983.806" y="600.112" width="419.708" height="1261.18" style="fill:white;"/>
                </g>
                <g transform="matrix(0.435804,-1.2329,1.2329,0.435804,960.926,420.453)">
                    <clipPath id="_clip1">
                        <path d="M445.876,361.039L446.017,261.341L99.787,260.849L99.645,360.548L445.876,361.039Z"/>
                    </clipPath>
                    <g clip-path="url(#_clip1)">
                        <circle cx="284.556" cy="262.173" r="97.042" style="fill:rgb(246,246,246);"/>
                    </g>
                </g>
            </g>
            <g transform="matrix(59.6122,-168.644,168.644,59.6122,1359.96,1445.96)">
                <path d="M0.323,0.01C0.232,0.01 0.161,-0.016 0.112,-0.068C0.063,-0.119 0.038,-0.192 0.038,-0.287C0.038,-0.375 0.053,-0.451 0.082,-0.514C0.111,-0.577 0.152,-0.626 0.207,-0.66C0.262,-0.693 0.327,-0.71 0.402,-0.71C0.447,-0.71 0.489,-0.703 0.528,-0.688C0.567,-0.673 0.6,-0.651 0.627,-0.622C0.621,-0.603 0.61,-0.584 0.593,-0.565C0.576,-0.546 0.562,-0.536 0.551,-0.536C0.542,-0.536 0.532,-0.54 0.521,-0.547C0.492,-0.568 0.469,-0.582 0.451,-0.589C0.433,-0.596 0.414,-0.6 0.394,-0.6C0.353,-0.6 0.318,-0.587 0.289,-0.562C0.259,-0.537 0.236,-0.501 0.22,-0.454C0.204,-0.407 0.196,-0.351 0.196,-0.287C0.196,-0.162 0.243,-0.1 0.337,-0.1C0.371,-0.1 0.4,-0.104 0.425,-0.113C0.449,-0.122 0.472,-0.136 0.493,-0.156C0.508,-0.155 0.52,-0.15 0.53,-0.139C0.539,-0.128 0.544,-0.115 0.544,-0.098C0.544,-0.079 0.534,-0.062 0.513,-0.045C0.492,-0.028 0.465,-0.015 0.431,-0.005C0.397,0.005 0.361,0.01 0.323,0.01Z" style="fill:rgb(66,84,98);fill-rule:nonzero;"/>
            </g>
            <g transform="matrix(59.6122,-168.644,168.644,59.6122,1397.87,1338.7)">
                <path d="M0.675,-0.7L0.577,0L0.423,0L0.465,-0.3L0.205,-0.3L0.163,0L0.009,0L0.107,-0.7L0.261,-0.7L0.22,-0.41L0.48,-0.41L0.521,-0.7L0.675,-0.7Z" style="fill:rgb(66,84,98);fill-rule:nonzero;"/>
            </g>
            <g transform="matrix(59.6122,-168.644,168.644,59.6122,1439.6,1220.65)">
                <path d="M0.246,-0.594L0.22,-0.409L0.455,-0.409L0.44,-0.303L0.206,-0.303L0.163,0L0.009,0L0.107,-0.7L0.539,-0.7L0.524,-0.594L0.246,-0.594Z" style="fill:rgb(66,84,98);fill-rule:nonzero;"/>
            </g>
        </g>
        <g transform="matrix(3.33058,-9.4223,9.4223,3.33058,-2183.56,3041.27)">
            <circle cx="284.556" cy="262.173" r="97.042" style="fill:none;stroke:white;stroke-width:0.85px;stroke-linecap:butt;stroke-miterlimit:2;"/>
        </g>
    </g>
</svg>
