<svg xmlns="http://www.w3.org/2000/svg" xmlns:xlink="http://www.w3.org/1999/xlink" width="145" height="145" viewBox="0 0 145 145">
  <defs>
    <clipPath id="clip-path">
      <circle id="Ellipse_243" data-name="Ellipse 243" cx="60.5" cy="60.5" r="60.5" transform="translate(-24380 1999)" fill="#c13636"/>
    </clipPath>
  </defs>
  <g id="jCOP" transform="translate(24391.998 -1987)">
    <circle id="Ellipse_73" data-name="Ellipse 73" cx="72.368" cy="72.368" r="72.368" transform="translate(-24391.998 1987)" fill="#fff"/>
    <path id="Ellipse_73_-_Outline" data-name="Ellipse 73 - Outline" d="M72.5,6.042a66.458,66.458,0,1,0,46.993,19.465A66.458,66.458,0,0,0,72.5,6.042M72.5,0A72.5,72.5,0,1,1,0,72.5,72.5,72.5,0,0,1,72.5,0Z" transform="translate(-24391.998 1987)" fill="#003087"/>
    <g id="Mask_Group_38" data-name="Mask Group 38" clip-path="url(#clip-path)">
      <g id="Flag_of_Colombia" transform="translate(-24410.25 1999)">
        <path id="Path_2935" data-name="Path 2935" d="M0,0H181.5V121H0Z" fill="#ffcd00"/>
        <path id="Path_2936" data-name="Path 2936" d="M0,40.333H181.5v60.5H0Z" transform="translate(0 20.167)" fill="#003087"/>
        <path id="Path_2937" data-name="Path 2937" d="M0,60.5H181.5V90.75H0Z" transform="translate(0 30.25)" fill="#c8102e"/>
      </g>
    </g>
  </g>
</svg>
