<?xml version="1.0" encoding="UTF-8" standalone="no"?>
<!DOCTYPE svg PUBLIC "-//W3C//DTD SVG 1.1//EN" "http://www.w3.org/Graphics/SVG/1.1/DTD/svg11.dtd">
<svg width="100%" height="100%" viewBox="0 0 2481 2481" version="1.1" xmlns="http://www.w3.org/2000/svg" xmlns:xlink="http://www.w3.org/1999/xlink" xml:space="preserve" xmlns:serif="http://www.serif.com/" style="fill-rule:evenodd;clip-rule:evenodd;stroke-linecap:round;stroke-linejoin:round;stroke-miterlimit:1.5;">
    <g transform="matrix(1,0,0,1,3.21107,6.06353)">
        <g transform="matrix(2.49175,0,0,2.49175,-1764.78,-1769.07)">
            <g transform="matrix(3.06708,0,0,3.06708,-3115.3,640.941)">
                <g transform="matrix(1.58129,0.0469608,-0.0469608,1.58129,970.516,-244.054)">
                    <circle cx="284.556" cy="262.173" r="97.042" style="fill:white;stroke:rgb(27,117,213);stroke-width:9.45px;"/>
                </g>
                <g>
                    <g>
                        <clipPath id="_clip1">
                            <path d="M1288.53,141.589C1311.87,75.556 1384.43,40.896 1450.46,64.237C1516.49,87.578 1551.15,160.139 1527.81,226.171C1504.47,292.204 1431.91,326.864 1365.88,303.523C1299.85,280.182 1265.18,207.622 1288.53,141.589Z"/>
                        </clipPath>
                        <g clip-path="url(#_clip1)">
                            <g transform="matrix(0.130849,0,0,0.130849,1246.22,21.7128)">
                                <path d="M1032.74,265.974L1032.74,1029.93L288.534,1029.93L212.492,1255.7L292.065,1416.63L1031.57,1416.63L1031.57,1865.22L1422.68,787.37L1422.68,285.432L1246.96,146.019L1032.74,265.974Z" style="fill:rgb(200,16,46);"/>
                            </g>
                            <g transform="matrix(0.130849,0,0,0.130849,1246.22,21.7128)">
                                <path d="M905.442,311.104L905.442,855.118L442.504,628.236L613.312,405.001L905.442,311.104Z" style="fill:rgb(1,33,105);"/>
                            </g>
                            <g transform="matrix(0.130849,0,0,0.130849,1246.22,21.7128)">
                                <path d="M374.966,798.758L580.658,903.853L298.56,908.529L374.966,798.758Z" style="fill:rgb(200,16,46);"/>
                            </g>
                            <g transform="matrix(0.130849,0,0,0.130849,1246.22,21.7128)">
                                <path d="M332.462,1669.88L585.369,1546.6L867.802,1550.27L384.511,1803.34L332.462,1669.88Z" style="fill:rgb(200,16,46);"/>
                            </g>
                            <g transform="matrix(0.130849,0,0,0.130849,1246.22,21.7128)">
                                <path d="M431.225,1846.05L905.006,1604.82L909.015,2275.82L431.225,1846.05Z" style="fill:rgb(1,33,105);"/>
                            </g>
                        </g>
                    </g>
                </g>
            </g>
            <g transform="matrix(0.93357,-2.64108,2.64108,0.93357,1355.37,1445.76)">
                <g transform="matrix(1.43176,-2.04216e-06,2.04216e-06,1.43176,-344.403,-455.082)">
                    <g>
                        <clipPath id="_clip2">
                            <path d="M445.876,361.039L446.017,261.341L99.787,260.849L99.645,360.548L445.876,361.039Z"/>
                        </clipPath>
                        <g clip-path="url(#_clip2)">
                            <circle cx="284.556" cy="262.173" r="97.042" style="fill:rgb(246,246,246);"/>
                        </g>
                    </g>
                </g>
                <g transform="matrix(62.5,0,0,62.5,0,0)">
                    <path d="M0.357,-0.335C0.357,-0.352 0.358,-0.369 0.361,-0.384L0.631,-0.384L0.587,-0.073C0.552,-0.044 0.514,-0.023 0.474,-0.01C0.433,0.003 0.386,0.01 0.333,0.01C0.274,0.01 0.222,-0.002 0.177,-0.026C0.132,-0.05 0.098,-0.084 0.074,-0.128C0.049,-0.171 0.037,-0.222 0.037,-0.281C0.037,-0.37 0.052,-0.446 0.082,-0.511C0.112,-0.575 0.155,-0.624 0.212,-0.659C0.269,-0.693 0.336,-0.71 0.414,-0.71C0.465,-0.71 0.514,-0.703 0.559,-0.689C0.604,-0.674 0.639,-0.655 0.663,-0.632C0.654,-0.611 0.641,-0.591 0.624,-0.572C0.606,-0.553 0.592,-0.543 0.582,-0.543C0.577,-0.543 0.573,-0.544 0.57,-0.546C0.566,-0.547 0.561,-0.55 0.556,-0.553C0.534,-0.568 0.51,-0.58 0.485,-0.588C0.459,-0.596 0.433,-0.6 0.407,-0.6C0.34,-0.6 0.289,-0.572 0.252,-0.516C0.215,-0.46 0.196,-0.381 0.196,-0.28C0.196,-0.222 0.208,-0.178 0.233,-0.147C0.257,-0.116 0.292,-0.1 0.337,-0.1C0.385,-0.1 0.42,-0.107 0.442,-0.122L0.464,-0.278L0.403,-0.278C0.387,-0.278 0.375,-0.283 0.368,-0.292C0.361,-0.301 0.357,-0.315 0.357,-0.335Z" style="fill:rgb(66,84,98);fill-rule:nonzero;"/>
                </g>
                <g transform="matrix(62.5,0,0,62.5,42.875,0)">
                    <path d="M0.471,-0.359C0.499,-0.348 0.522,-0.33 0.539,-0.305C0.556,-0.279 0.565,-0.25 0.565,-0.219C0.565,-0.15 0.541,-0.096 0.492,-0.058C0.443,-0.019 0.376,0 0.289,0L0.019,0L0.117,-0.7L0.357,-0.7C0.4,-0.7 0.438,-0.693 0.471,-0.678C0.504,-0.663 0.53,-0.643 0.549,-0.617C0.567,-0.59 0.576,-0.56 0.576,-0.526C0.576,-0.485 0.567,-0.45 0.548,-0.421C0.529,-0.391 0.503,-0.37 0.471,-0.359ZM0.293,-0.41C0.336,-0.41 0.368,-0.419 0.389,-0.437C0.409,-0.455 0.419,-0.484 0.419,-0.523C0.419,-0.548 0.41,-0.566 0.393,-0.577C0.376,-0.588 0.349,-0.594 0.312,-0.594L0.256,-0.594L0.23,-0.41L0.293,-0.41ZM0.264,-0.106C0.301,-0.106 0.329,-0.11 0.35,-0.118C0.371,-0.125 0.386,-0.138 0.395,-0.156C0.404,-0.173 0.409,-0.198 0.409,-0.229C0.409,-0.256 0.4,-0.275 0.382,-0.287C0.363,-0.298 0.332,-0.304 0.289,-0.304L0.215,-0.304L0.188,-0.106L0.264,-0.106Z" style="fill:rgb(66,84,98);fill-rule:nonzero;"/>
                </g>
                <g transform="matrix(62.5,0,0,62.5,81.9375,0)">
                    <path d="M0.335,-0.7C0.416,-0.7 0.478,-0.683 0.521,-0.649C0.563,-0.615 0.584,-0.565 0.584,-0.499C0.584,-0.444 0.572,-0.397 0.547,-0.357C0.522,-0.316 0.486,-0.285 0.439,-0.264C0.392,-0.242 0.337,-0.231 0.274,-0.231L0.205,-0.231L0.173,0L0.019,0L0.117,-0.7L0.335,-0.7ZM0.28,-0.345C0.331,-0.345 0.369,-0.357 0.392,-0.382C0.415,-0.406 0.427,-0.445 0.427,-0.499C0.427,-0.532 0.418,-0.557 0.399,-0.573C0.38,-0.588 0.35,-0.596 0.31,-0.596L0.256,-0.596L0.221,-0.345L0.28,-0.345Z" style="fill:rgb(66,84,98);fill-rule:nonzero;"/>
                </g>
            </g>
        </g>
        <g transform="matrix(3.33058,-9.4223,9.4223,3.33058,-2183.56,3041.27)">
            <circle cx="284.556" cy="262.173" r="97.042" style="fill:none;stroke:white;stroke-width:0.85px;stroke-linecap:butt;stroke-miterlimit:2;"/>
        </g>
    </g>
</svg>
