<svg xmlns="http://www.w3.org/2000/svg" xmlns:xlink="http://www.w3.org/1999/xlink" width="145" height="145" viewBox="0 0 145 145">
  <defs>
    <clipPath id="clip-path">
      <circle id="Ellipse_220" data-name="Ellipse 220" cx="56.5" cy="56.5" r="56.5" transform="translate(-24380.221 1998.779)" fill="#fff"/>
    </clipPath>
  </defs>
  <g id="Group_4565" data-name="Group 4565" transform="translate(24892 -2175)">
    <g id="Group_4555" data-name="Group 4555" transform="translate(-500.002 188)">
      <circle id="Ellipse_73" data-name="Ellipse 73" cx="72.368" cy="72.368" r="72.368" transform="translate(-24391.998 1987)" fill="#fff"/>
      <path id="Ellipse_73_-_Outline" data-name="Ellipse 73 - Outline" d="M72.5,6.042a66.458,66.458,0,1,0,46.993,19.465A66.458,66.458,0,0,0,72.5,6.042M72.5,0A72.5,72.5,0,1,1,0,72.5,72.5,72.5,0,0,1,72.5,0Z" transform="translate(-24391.998 1987)" fill="#bc002d"/>
      <g id="Mask_Group_32" data-name="Mask Group 32" transform="translate(4.221 4.221)" clip-path="url(#clip-path)">
        <g id="Flag_of_Japan" transform="translate(-24408.141 1999)">
          <rect id="Rectangle_871" data-name="Rectangle 871" width="168.838" height="112.559" fill="#fff"/>
          <circle id="Ellipse_221" data-name="Ellipse 221" cx="33.768" cy="33.768" r="33.768" transform="translate(50.652 22.512)" fill="#bc002d"/>
        </g>
      </g>
    </g>
  </g>
</svg>
