<svg xmlns="http://www.w3.org/2000/svg" xmlns:xlink="http://www.w3.org/1999/xlink" width="145" height="145" viewBox="0 0 145 145">
  <defs>
    <clipPath id="clip-path">
      <circle id="Ellipse_220" data-name="Ellipse 220" cx="60.5" cy="60.5" r="60.5" transform="translate(-24380 1999)" fill="#fff"/>
    </clipPath>
    <clipPath id="clip-path-2">
      <circle id="Ellipse_224" data-name="Ellipse 224" cx="60.5" cy="60.5" r="60.5" transform="translate(-23812 2187)" fill="#fff"/>
    </clipPath>
  </defs>
  <g id="Group_4562" data-name="Group 4562" transform="translate(23824 -2175)">
    <g id="Group_4299" data-name="Group 4299" transform="translate(567.998 188)">
      <circle id="Ellipse_73" data-name="Ellipse 73" cx="72.368" cy="72.368" r="72.368" transform="translate(-24391.998 1987)" fill="#fff"/>
      <path id="Ellipse_73_-_Outline" data-name="Ellipse 73 - Outline" d="M72.5,6.042a66.458,66.458,0,1,0,46.993,19.465A66.458,66.458,0,0,0,72.5,6.042M72.5,0A72.5,72.5,0,1,1,0,72.5,72.5,72.5,0,0,1,72.5,0Z" transform="translate(-24391.998 1987)" fill="#008751"/>
    </g>
    <g id="Mask_Group_35" data-name="Mask Group 35" clip-path="url(#clip-path-2)">
      <g id="Flag_of_Nigeria" transform="translate(-23839.408 2150.893)">
        <path id="Path_2925" data-name="Path 2925" d="M0,0H175.815V193.213H0Z" fill="#008751"/>
        <path id="Path_2926" data-name="Path 2926" d="M40.333,0H98.938V193.213H40.333Z" transform="translate(18.272)" fill="#fff"/>
      </g>
    </g>
  </g>
</svg>
