<svg xmlns="http://www.w3.org/2000/svg" xmlns:xlink="http://www.w3.org/1999/xlink" width="145" height="145" viewBox="0 0 145 145">
  <defs>
    <clipPath id="clip-path">
      <circle id="Ellipse_243" data-name="Ellipse 243" cx="60.5" cy="60.5" r="60.5" transform="translate(-24380 1999)" fill="#c13636"/>
    </clipPath>
  </defs>
  <g id="jSEK" transform="translate(24391.998 -1987)">
    <circle id="Ellipse_73" data-name="Ellipse 73" cx="72.368" cy="72.368" r="72.368" transform="translate(-24391.998 1987)" fill="#fff"/>
    <path id="Ellipse_73_-_Outline" data-name="Ellipse 73 - Outline" d="M72.5,6.042a66.458,66.458,0,1,0,46.993,19.465A66.458,66.458,0,0,0,72.5,6.042M72.5,0A72.5,72.5,0,1,1,0,72.5,72.5,72.5,0,0,1,72.5,0Z" transform="translate(-24391.998 1987)" fill="#006aa7"/>
    <g id="Mask_Group_39" data-name="Mask Group 39" clip-path="url(#clip-path)">
      <g id="Flag_of_Sweden" transform="translate(-24416.301 1999)">
        <path id="Path_2938" data-name="Path 2938" d="M0,0H193.6V121H0Z" fill="#006aa7"/>
        <path id="Path_2939" data-name="Path 2939" d="M0,48.4H60.5V0H84.7V48.4H193.6V72.6H84.7V121H60.5V72.6H0Z" fill="#fecc00"/>
      </g>
    </g>
  </g>
</svg>
