<svg xmlns="http://www.w3.org/2000/svg" xmlns:xlink="http://www.w3.org/1999/xlink" width="145" height="145" viewBox="0 0 145 145">
  <defs>
    <clipPath id="clip-path">
      <circle id="Ellipse_243" data-name="Ellipse 243" cx="60.5" cy="60.5" r="60.5" transform="translate(-24380 1999)" fill="#c13636"/>
    </clipPath>
  </defs>
  <g id="jTRY" transform="translate(24391.998 -1987)">
    <circle id="Ellipse_73" data-name="Ellipse 73" cx="72.368" cy="72.368" r="72.368" transform="translate(-24391.998 1987)" fill="#fff"/>
    <path id="Ellipse_73_-_Outline" data-name="Ellipse 73 - Outline" d="M72.5,6.042a66.458,66.458,0,1,0,46.993,19.465A66.458,66.458,0,0,0,72.5,6.042M72.5,0A72.5,72.5,0,1,1,0,72.5,72.5,72.5,0,0,1,72.5,0Z" transform="translate(-24391.998 1987)" fill="#e30a17"/>
    <g id="Mask_Group_37" data-name="Mask Group 37" clip-path="url(#clip-path)">
      <g id="Flag_of_Turkey" transform="translate(-24395.67 2043.72)">
        <path id="Path_2933" data-name="Path 2933" d="M0-40.333H168.339V82.455H0Z" transform="translate(0 -5.281)" fill="#e30a17"/>
        <path id="Path_2934" data-name="Path 2934" d="M70.2,7.891,95.579-.354,79.894,21.232V-5.451L95.579,16.135Zm1.73,15a28.057,28.057,0,1,1,0-30.006,22.445,22.445,0,1,0,0,30.006Z" transform="translate(7.89 7.889)" fill="#fff"/>
      </g>
    </g>
  </g>
</svg>
