<?xml version="1.0" encoding="UTF-8" standalone="no"?>
<!DOCTYPE svg PUBLIC "-//W3C//DTD SVG 1.1//EN" "http://www.w3.org/Graphics/SVG/1.1/DTD/svg11.dtd">
<svg width="100%" height="100%" viewBox="0 0 2481 2481" version="1.1" xmlns="http://www.w3.org/2000/svg" xmlns:xlink="http://www.w3.org/1999/xlink" xml:space="preserve" xmlns:serif="http://www.serif.com/" style="fill-rule:evenodd;clip-rule:evenodd;stroke-linecap:round;stroke-linejoin:round;stroke-miterlimit:1.5;">
    <g transform="matrix(19.0037,0,0,19.0037,-25462.5,-2190.46)">
        <g transform="matrix(0.130849,0,0,0.130849,1246.64,22.5063)">
            <g transform="matrix(4.34581,-2.12463,2.12463,4.34581,-583.766,670.231)">
                <circle cx="284.556" cy="262.173" r="97.042" style="fill:white;stroke:rgb(202,135,51);stroke-width:9.39px;"/>
            </g>
            <g transform="matrix(3.04691,0,0,3.04691,-800.091,-1703.35)">
                <g transform="matrix(-0.137603,-1.29677,1.29677,-0.137603,358.835,1359.58)">
                    <circle cx="284.556" cy="262.173" r="97.042" style="fill:rgb(212,154,80);"/>
                </g>
                <g transform="matrix(0.330929,0,0,0.309921,565.938,840.315)">
                    <path d="M249.751,131.55C247.959,124.07 244.224,119.217 237.417,119.217L112.391,119.217C105.584,119.217 101.883,124.575 100.058,131.55L62.692,291.308C62.692,298.115 68.219,303.641 75.026,303.641L274.783,303.641C281.59,303.641 287.116,298.115 287.116,291.308L249.751,131.55Z" style="fill:rgb(212,154,80);stroke:rgb(66,84,98);stroke-width:5.76px;stroke-linecap:butt;stroke-miterlimit:2;"/>
                </g>
                <g transform="matrix(0.330929,0,0,0.309921,605.011,900.504)">
                    <path d="M249.751,131.55C247.959,124.07 244.224,119.217 237.417,119.217L112.391,119.217C105.584,119.217 101.883,124.575 100.058,131.55L62.692,291.308C62.692,298.115 68.219,303.641 75.026,303.641L274.783,303.641C281.59,303.641 287.116,298.115 287.116,291.308L249.751,131.55Z" style="fill:rgb(212,154,80);stroke:rgb(66,84,98);stroke-width:5.76px;stroke-linecap:butt;stroke-miterlimit:2;"/>
                </g>
                <g transform="matrix(0.330929,0,0,0.309921,528.334,900.504)">
                    <path d="M249.751,131.55C247.959,124.07 244.224,119.217 237.417,119.217L112.391,119.217C105.584,119.217 101.883,124.575 100.058,131.55L62.692,291.308C62.692,298.115 68.219,303.641 75.026,303.641L274.783,303.641C281.59,303.641 287.116,298.115 287.116,291.308L249.751,131.55Z" style="fill:rgb(212,154,80);stroke:rgb(66,84,98);stroke-width:5.76px;stroke-linecap:butt;stroke-miterlimit:2;"/>
                </g>
                <g transform="matrix(0.338686,0,0,0.338686,552.429,813.67)">
                    <path d="M228.264,356.995C226.051,362.833 250.407,360.827 252.038,323.222C253.074,299.342 244.674,351.464 271.629,356.911C293.576,361.347 253.922,348.802 253.021,399.051C252.12,449.301 260.151,364.209 228.264,356.995Z" style="fill:rgb(232,232,232);stroke:rgb(66,84,98);stroke-width:5.46px;"/>
                </g>
                <g transform="matrix(0.250122,0,0,0.250122,536.572,872.835)">
                    <path d="M228.264,356.995C226.051,362.833 250.407,360.827 252.038,323.222C253.074,299.342 244.674,351.464 271.629,356.911C293.576,361.347 253.922,348.802 253.021,399.051C252.12,449.301 260.151,364.209 228.264,356.995Z" style="fill:rgb(232,232,232);stroke:rgb(66,84,98);stroke-width:7.39px;"/>
                </g>
                <g transform="matrix(0.319008,0,0,0.319008,521.406,762.196)">
                    <path d="M228.264,356.995C226.051,362.833 250.407,360.827 252.038,323.222C253.074,299.342 244.674,351.464 271.629,356.911C293.576,361.347 253.922,348.802 253.021,399.051C252.12,449.301 260.151,364.209 228.264,356.995Z" style="fill:rgb(232,232,232);stroke:rgb(66,84,98);stroke-width:5.79px;"/>
                </g>
                <g transform="matrix(0.436733,-1.23553,1.23553,0.436733,210.898,1191.4)">
                    <clipPath id="_clip1">
                        <path d="M445.876,361.039L446.017,261.341L99.787,260.849L99.645,360.548L445.876,361.039Z"/>
                    </clipPath>
                    <g clip-path="url(#_clip1)">
                        <circle cx="284.556" cy="262.173" r="97.042" style="fill:rgb(246,246,246);"/>
                    </g>
                </g>
            </g>
            <g transform="matrix(1.37591,-3.89248,3.89248,1.37591,-203.919,1959.3)">
                <circle cx="284.556" cy="262.173" r="97.042" style="fill:none;stroke:white;stroke-width:0.41px;"/>
            </g>
            <g transform="matrix(61.3783,-173.64,173.64,61.3783,1348.55,1503.85)">
                <path d="M0.357,-0.335C0.357,-0.352 0.358,-0.369 0.361,-0.384L0.631,-0.384L0.587,-0.073C0.552,-0.044 0.514,-0.023 0.474,-0.01C0.433,0.003 0.386,0.01 0.333,0.01C0.274,0.01 0.222,-0.002 0.177,-0.026C0.132,-0.05 0.098,-0.084 0.074,-0.128C0.049,-0.171 0.037,-0.222 0.037,-0.281C0.037,-0.37 0.052,-0.446 0.082,-0.511C0.112,-0.575 0.155,-0.624 0.212,-0.659C0.269,-0.693 0.336,-0.71 0.414,-0.71C0.465,-0.71 0.514,-0.703 0.559,-0.689C0.604,-0.674 0.639,-0.655 0.663,-0.632C0.654,-0.611 0.641,-0.591 0.624,-0.572C0.606,-0.553 0.592,-0.543 0.582,-0.543C0.577,-0.543 0.573,-0.544 0.57,-0.546C0.566,-0.547 0.561,-0.55 0.556,-0.553C0.534,-0.568 0.51,-0.58 0.485,-0.588C0.459,-0.596 0.433,-0.6 0.407,-0.6C0.34,-0.6 0.289,-0.572 0.252,-0.516C0.215,-0.46 0.196,-0.381 0.196,-0.28C0.196,-0.222 0.208,-0.178 0.233,-0.147C0.257,-0.116 0.292,-0.1 0.337,-0.1C0.385,-0.1 0.42,-0.107 0.442,-0.122L0.464,-0.278L0.403,-0.278C0.387,-0.278 0.375,-0.283 0.368,-0.292C0.361,-0.301 0.357,-0.315 0.357,-0.335Z" style="fill:rgb(66,84,98);fill-rule:nonzero;"/>
            </g>
            <g transform="matrix(61.3783,-173.64,173.64,61.3783,1390.65,1384.73)">
                <path d="M0.31,0.01C0.219,0.01 0.148,-0.015 0.098,-0.064C0.048,-0.113 0.023,-0.183 0.023,-0.273C0.023,-0.361 0.037,-0.438 0.066,-0.504C0.095,-0.57 0.135,-0.621 0.189,-0.657C0.242,-0.692 0.304,-0.71 0.375,-0.71C0.468,-0.71 0.538,-0.686 0.587,-0.639C0.636,-0.591 0.66,-0.522 0.66,-0.433C0.66,-0.344 0.646,-0.266 0.617,-0.199C0.588,-0.132 0.548,-0.081 0.495,-0.045C0.442,-0.008 0.381,0.01 0.31,0.01ZM0.308,-0.1C0.371,-0.1 0.42,-0.129 0.454,-0.186C0.487,-0.243 0.504,-0.326 0.504,-0.433C0.504,-0.488 0.493,-0.529 0.471,-0.558C0.449,-0.586 0.416,-0.6 0.373,-0.6C0.309,-0.6 0.261,-0.572 0.228,-0.518C0.195,-0.462 0.179,-0.381 0.179,-0.272C0.179,-0.215 0.19,-0.173 0.212,-0.144C0.233,-0.115 0.265,-0.1 0.308,-0.1Z" style="fill:rgb(66,84,98);fill-rule:nonzero;"/>
            </g>
            <g transform="matrix(61.3783,-173.64,173.64,61.3783,1433.62,1263.18)">
                <path d="M0.456,-0.106L0.441,0L0.029,0L0.127,-0.7L0.281,-0.7L0.198,-0.106L0.456,-0.106Z" style="fill:rgb(66,84,98);fill-rule:nonzero;"/>
            </g>
            <g transform="matrix(61.3783,-173.64,173.64,61.3783,1465.1,1174.11)">
                <path d="M0.334,-0.7C0.397,-0.7 0.451,-0.688 0.498,-0.665C0.544,-0.641 0.58,-0.607 0.605,-0.564C0.63,-0.52 0.642,-0.469 0.642,-0.41C0.642,-0.329 0.626,-0.258 0.594,-0.196C0.561,-0.134 0.516,-0.086 0.458,-0.052C0.399,-0.017 0.332,0 0.256,0L0.009,0L0.107,-0.7L0.334,-0.7ZM0.241,-0.106C0.292,-0.106 0.335,-0.118 0.373,-0.142C0.409,-0.166 0.438,-0.2 0.458,-0.246C0.478,-0.291 0.488,-0.343 0.488,-0.404C0.488,-0.465 0.472,-0.512 0.442,-0.545C0.411,-0.578 0.366,-0.594 0.309,-0.594L0.246,-0.594L0.177,-0.106L0.241,-0.106Z" style="fill:rgb(66,84,98);fill-rule:nonzero;"/>
            </g>
        </g>
        <g transform="matrix(0.174119,-0.492587,0.492587,0.174119,1226.03,274.62)">
            <circle cx="284.556" cy="262.173" r="97.042" style="fill:none;stroke:white;stroke-width:0.86px;stroke-linecap:butt;stroke-miterlimit:2;"/>
        </g>
    </g>
</svg>
